{"glyphs":{"0":{"ha":844,"x_min":82,"x_max":763,"o":"m 763 407 q 737 238 763 315 q 666 105 711 161 q 558 17 621 49 q 422 -14 496 -14 q 286 17 349 -14 q 178 105 224 49 q 108 238 133 161 q 82 407 82 315 q 108 576 82 499 q 178 709 133 653 q 286 797 224 765 q 422 829 349 829 q 558 797 496 829 q 666 709 621 765 q 737 576 711 653 q 763 407 763 499 m 735 407 q 712 567 735 494 q 648 691 689 639 q 549 772 607 743 q 422 801 492 801 q 295 772 353 801 q 197 691 238 743 q 133 567 156 639 q 110 407 110 494 q 133 247 110 319 q 197 123 156 175 q 295 42 238 71 q 422 14 353 14 q 549 42 492 14 q 648 123 607 71 q 712 247 689 175 q 735 407 735 319 z "},"1":{"ha":521,"x_min":63,"x_max":496,"o":"m 496 28 l 496 0 l 94 0 l 94 28 l 292 28 l 292 747 q 253 710 281 731 q 194 672 226 690 q 126 640 161 653 q 63 628 90 628 l 63 661 q 140 681 100 661 q 214 725 181 701 q 269 769 247 749 q 292 793 290 790 l 319 793 l 319 28 l 496 28 z "},"2":{"ha":675,"x_min":65,"x_max":607,"o":"m 65 0 q 71 72 65 25 q 100 173 76 119 q 172 278 124 226 q 303 365 219 331 q 387 400 342 382 q 472 444 432 418 q 538 509 511 471 q 564 601 564 547 q 550 665 564 633 q 508 722 536 697 q 438 763 481 747 q 339 779 396 779 q 244 763 286 779 q 173 725 203 746 q 125 685 143 704 q 101 658 107 665 l 79 675 q 97 696 79 675 q 149 742 115 717 q 230 787 182 767 q 339 807 278 807 q 449 789 401 807 q 528 742 496 771 q 576 676 560 713 q 592 601 592 639 q 563 496 592 539 q 492 424 535 453 q 400 375 449 394 q 313 339 351 356 q 197 262 240 307 q 131 171 154 217 q 99 85 107 125 q 92 28 92 46 l 607 28 l 607 0 l 65 0 z "},"3":{"ha":724,"x_min":64,"x_max":647,"o":"m 428 328 q 588 242 528 314 q 647 67 647 171 q 626 -44 647 6 q 565 -129 604 -93 q 471 -185 525 -165 q 353 -204 417 -204 q 171 -156 249 -204 q 64 -26 93 -108 l 90 -17 q 127 -82 103 -53 q 186 -132 151 -111 q 264 -165 221 -153 q 356 -176 307 -176 q 464 -159 415 -176 q 547 -109 513 -142 q 601 -31 582 -76 q 619 71 619 14 q 547 249 619 183 q 349 315 475 315 l 318 315 l 318 343 l 350 343 q 538 395 472 343 q 603 542 603 447 q 584 635 603 593 q 532 708 565 678 q 453 756 499 739 q 353 772 407 772 q 199 729 265 772 q 104 615 132 686 l 79 625 q 119 697 93 664 q 182 752 146 729 q 261 788 218 775 q 353 800 304 800 q 463 781 413 800 q 551 728 514 763 q 610 649 589 694 q 631 549 631 603 q 576 399 631 460 q 428 328 521 339 z "},"4":{"ha":719,"x_min":26,"x_max":683,"o":"m 533 -176 l 533 100 l 26 100 l 26 124 l 542 793 l 561 793 l 561 128 l 683 128 l 683 100 l 561 100 l 561 -176 l 533 -176 m 65 128 l 533 128 l 533 742 l 65 128 z "},"5":{"ha":746,"x_min":54,"x_max":692,"o":"m 372 425 q 496 402 438 425 q 598 338 554 379 q 667 240 642 297 q 692 114 692 182 q 665 -17 692 42 q 594 -119 639 -76 q 490 -184 549 -161 q 365 -207 431 -207 q 265 -192 313 -207 q 178 -151 218 -178 q 106 -87 138 -124 q 54 -4 75 -50 l 85 -4 q 197 -131 122 -83 q 365 -179 272 -179 q 482 -158 428 -179 q 576 -97 536 -136 q 640 -5 617 -58 q 664 114 664 49 q 641 228 664 176 q 578 318 618 281 q 486 376 539 356 q 372 397 433 397 q 222 363 293 397 q 106 261 151 328 l 72 261 q 81 303 75 274 q 96 372 88 332 q 113 458 104 411 q 132 551 122 504 q 181 793 154 661 l 649 793 l 649 765 l 204 765 l 114 314 q 231 397 164 368 q 372 425 299 425 z "},"6":{"ha":826,"x_min":78,"x_max":767,"o":"m 767 322 q 740 192 767 253 q 667 85 714 131 q 558 13 621 39 q 425 -14 496 -14 q 288 13 351 -14 q 178 89 225 39 q 104 210 131 139 q 78 369 78 281 q 103 649 78 532 q 176 843 129 767 q 286 956 222 919 q 428 993 350 993 q 606 938 529 993 q 714 789 683 883 l 688 779 q 649 855 675 821 q 590 914 624 889 q 515 952 556 939 q 429 965 474 965 q 298 929 357 965 q 197 824 239 893 q 131 656 154 756 q 108 428 108 556 q 156 522 125 479 q 231 596 188 565 q 324 643 274 626 q 431 660 375 660 q 561 633 500 660 q 668 561 622 607 q 740 453 714 515 q 767 322 767 392 m 428 14 q 549 38 492 14 q 648 104 606 63 q 715 202 690 146 q 739 321 739 258 q 714 441 739 385 q 646 540 689 497 q 547 607 603 582 q 426 632 490 632 q 306 607 363 632 q 206 540 249 582 q 139 441 164 497 q 114 322 114 385 q 139 203 114 260 q 207 105 164 147 q 307 38 250 63 q 428 14 364 14 z "},"7":{"ha":743,"x_min":69,"x_max":708,"o":"m 663 782 l 69 782 l 69 810 l 708 810 l 203 -176 l 171 -176 l 663 782 z "},"8":{"ha":807,"x_min":74,"x_max":733,"o":"m 733 261 q 706 149 733 199 q 633 63 679 99 q 526 9 586 28 q 399 -10 465 -10 q 264 13 324 -10 q 162 74 204 36 q 97 160 119 111 q 74 264 74 210 q 93 359 74 315 q 145 437 113 403 q 219 494 178 471 q 301 529 260 518 q 228 564 263 543 q 167 613 193 585 q 125 675 140 640 q 110 751 110 710 q 135 852 110 808 q 203 926 161 896 q 297 971 244 956 q 404 986 350 986 q 511 971 458 986 q 605 926 564 956 q 672 852 646 896 q 697 751 697 808 q 681 675 697 710 q 639 613 665 640 q 578 564 613 585 q 504 529 543 543 q 594 490 553 515 q 667 431 636 465 q 716 353 699 396 q 733 261 733 311 m 706 265 q 678 372 706 325 q 606 450 650 418 q 507 499 561 482 q 401 515 453 515 q 294 497 347 515 q 197 446 240 479 q 128 366 154 413 q 101 263 101 319 q 129 157 101 203 q 201 79 157 111 q 299 31 246 47 q 406 14 353 14 q 513 31 460 14 q 609 81 567 49 q 678 160 651 114 q 706 265 706 207 m 138 749 q 162 660 138 699 q 225 597 186 622 q 310 557 264 571 q 403 543 357 543 q 496 557 449 543 q 582 598 543 571 q 645 663 621 625 q 669 751 669 701 q 647 840 669 801 q 586 904 624 878 q 500 944 549 931 q 401 958 451 958 q 303 944 351 958 q 219 903 256 931 q 160 838 182 876 q 138 749 138 799 z "},"9":{"ha":804,"x_min":51,"x_max":740,"o":"m 51 457 q 78 588 51 526 q 151 694 104 649 q 260 767 197 740 q 393 793 322 793 q 530 767 467 793 q 640 690 593 740 q 714 569 688 640 q 740 410 740 499 q 715 130 740 247 q 642 -64 689 13 q 531 -177 596 -140 q 390 -214 467 -214 q 212 -159 289 -214 q 104 -10 135 -104 l 131 0 q 169 -76 143 -42 q 228 -135 194 -110 q 303 -173 263 -160 q 389 -186 344 -186 q 520 -150 461 -186 q 622 -45 579 -114 q 687 124 664 24 q 710 351 710 224 q 662 257 693 300 q 588 183 631 214 q 494 136 544 153 q 388 119 443 119 q 257 146 318 119 q 150 218 196 172 q 78 326 104 264 q 51 457 51 388 m 390 765 q 269 741 326 765 q 170 675 213 717 q 103 577 128 633 q 79 458 79 521 q 104 338 79 394 q 172 240 129 282 q 271 172 214 197 q 392 147 328 147 q 513 172 456 147 q 612 240 569 197 q 679 338 654 282 q 704 457 704 394 q 679 576 704 519 q 611 674 654 632 q 511 741 568 717 q 390 765 454 765 z "},"\u0000":{"ha":0,"x_min":0,"x_max":0,"o":""},"\r":{"ha":0,"x_min":0,"x_max":0,"o":""}," ":{"ha":363,"x_min":0,"x_max":0,"o":""},"!":{"ha":317,"x_min":144,"x_max":172,"o":"m 144 278 l 144 996 l 172 996 l 172 278 l 144 278 m 144 0 l 144 117 l 172 117 l 172 0 l 144 0 z "},"\"":{"ha":300,"x_min":101,"x_max":199,"o":"m 101 792 l 101 986 l 129 986 l 129 792 l 101 792 m 171 792 l 171 986 l 199 986 l 199 792 l 171 792 z "},"#":{"ha":903,"x_min":53,"x_max":850,"o":"m 850 668 l 686 668 l 606 335 l 794 335 l 794 307 l 599 307 l 525 0 l 496 0 l 571 307 l 238 307 l 164 0 l 135 0 l 210 307 l 53 307 l 53 335 l 217 335 l 297 668 l 108 668 l 108 696 l 304 696 l 375 986 l 404 986 l 332 696 l 665 696 l 736 986 l 765 986 l 693 696 l 850 696 l 850 668 m 578 335 l 658 668 l 325 668 l 244 335 l 578 335 z "},"$":{"ha":851,"x_min":64,"x_max":794,"o":"m 717 856 q 595 943 658 919 q 444 967 532 967 l 444 504 q 590 469 525 488 q 700 421 654 450 q 770 349 746 392 q 794 242 794 306 q 702 57 794 121 q 447 -7 610 -7 l 444 -7 l 444 -129 l 417 -129 l 417 -6 q 224 35 308 -1 q 64 146 139 72 l 85 164 q 235 57 156 92 q 417 17 315 22 l 417 485 q 280 517 339 500 q 180 562 221 535 q 118 628 139 589 q 97 728 97 668 q 183 919 97 851 q 417 992 269 986 l 417 1132 l 444 1132 l 444 993 q 607 965 538 992 q 735 875 676 938 l 717 856 m 767 238 q 747 331 767 292 q 688 397 728 369 q 588 443 649 424 q 444 479 528 463 l 444 17 l 449 17 q 681 72 596 17 q 767 238 767 126 m 125 731 q 142 644 125 679 q 194 585 158 610 q 284 544 229 561 q 417 511 339 528 l 417 965 q 284 944 339 963 q 194 896 229 926 q 142 824 158 865 q 125 731 125 782 z "},"%":{"ha":931,"x_min":67,"x_max":865,"o":"m 258 617 q 183 632 218 617 q 123 673 149 647 q 82 733 97 699 q 67 808 67 768 q 82 883 67 847 q 123 944 97 918 q 183 985 149 969 q 258 1000 218 1000 q 333 985 297 1000 q 394 944 368 969 q 435 883 419 918 q 450 808 450 847 q 435 733 450 768 q 394 673 419 699 q 333 632 368 647 q 258 617 297 617 m 258 644 q 323 658 293 644 q 375 694 353 671 q 410 747 397 717 q 422 808 422 776 q 409 873 422 843 q 373 925 396 903 q 320 960 350 947 q 258 972 290 972 q 194 959 224 972 q 142 923 164 946 q 107 870 119 900 q 94 808 94 840 q 108 744 94 774 q 143 692 121 714 q 195 657 165 669 q 258 644 225 644 m 674 -14 q 599 1 633 -14 q 538 42 564 15 q 497 103 513 68 q 482 178 482 138 q 497 252 482 217 q 538 313 513 288 q 599 354 564 339 q 674 369 633 369 q 748 354 713 369 q 809 313 783 339 q 850 252 835 288 q 865 178 865 217 q 850 103 865 138 q 809 42 835 68 q 748 1 783 15 q 674 -14 713 -14 m 674 14 q 738 27 708 14 q 790 63 768 40 q 825 115 813 86 q 838 178 838 144 q 824 241 838 211 q 788 293 811 271 q 735 328 765 315 q 674 342 706 342 q 609 328 639 342 q 557 292 579 315 q 522 240 535 269 q 510 178 510 210 q 523 113 510 143 q 558 61 536 83 q 610 26 581 39 q 674 14 640 14 m 67 15 l 842 988 l 864 971 l 89 -1 l 67 15 z "},"&":{"ha":882,"x_min":74,"x_max":868,"o":"m 831 0 l 683 153 q 553 32 631 78 q 375 -14 475 -14 q 265 2 318 -14 q 168 50 211 18 q 99 128 125 82 q 74 236 74 175 q 92 329 74 288 q 143 407 111 371 q 218 476 175 443 q 310 543 261 510 q 235 625 265 589 q 188 691 206 661 q 161 747 169 721 q 153 797 153 772 q 171 873 153 836 q 220 938 189 910 q 294 982 251 965 q 385 999 336 999 q 468 984 431 999 q 533 945 506 969 q 576 889 561 921 q 592 821 592 857 q 571 741 592 778 q 516 670 550 704 q 438 604 482 636 q 347 540 394 572 l 681 194 q 734 322 715 253 q 753 463 753 390 l 781 463 q 760 312 781 386 q 699 175 739 238 l 868 0 l 831 0 m 379 11 q 544 56 471 11 q 665 172 617 100 l 326 526 q 241 463 282 494 q 169 397 200 432 q 119 321 138 361 q 101 233 101 281 q 127 135 101 176 q 192 65 153 93 q 281 24 232 38 q 379 11 331 11 m 181 796 q 186 756 181 776 q 208 707 192 735 q 254 643 225 679 q 331 557 283 607 q 428 625 385 593 q 501 688 471 657 q 547 750 531 718 q 564 818 564 782 q 513 928 564 885 q 383 971 463 971 q 303 957 340 971 q 240 919 267 943 q 197 864 213 896 q 181 796 181 832 z "},"'":{"ha":231,"x_min":101,"x_max":129,"o":"m 101 790 l 101 986 l 129 986 l 129 790 l 101 790 z "},"(":{"ha":325,"x_min":69,"x_max":276,"o":"m 69 479 q 84 617 69 550 q 124 751 99 685 q 183 881 149 817 q 254 1008 217 944 l 276 992 q 210 880 243 943 q 153 748 178 817 q 112 608 128 679 q 96 475 96 538 q 108 361 96 422 q 142 236 119 300 q 199 107 165 172 q 276 -19 233 42 l 254 -36 q 117 224 164 96 q 69 479 69 353 z "},")":{"ha":324,"x_min":49,"x_max":256,"o":"m 256 479 q 208 224 256 353 q 71 -36 161 96 l 49 -19 q 126 107 92 42 q 183 236 160 172 q 217 361 206 300 q 229 475 229 422 q 213 608 229 538 q 172 748 197 679 q 115 880 147 817 q 49 992 82 943 l 71 1008 q 142 881 108 944 q 201 751 176 817 q 241 617 226 685 q 256 479 256 550 z "},"*":{"ha":419,"x_min":94,"x_max":325,"o":"m 131 783 l 188 863 l 94 893 l 103 919 l 196 889 l 196 986 l 224 986 l 224 889 l 317 919 l 325 893 l 232 863 l 290 783 l 267 767 l 210 846 l 153 767 l 131 783 z "},"+":{"ha":572,"x_min":78,"x_max":494,"o":"m 494 507 l 494 479 l 300 479 l 300 271 l 272 271 l 272 479 l 78 479 l 78 507 l 272 507 l 272 715 l 300 715 l 300 507 l 494 507 z "},",":{"ha":361,"x_min":161,"x_max":199,"o":"m 161 -112 l 175 -14 l 163 -14 l 163 89 l 199 89 l 199 -14 l 181 -112 l 161 -112 z "},"-":{"ha":585,"x_min":96,"x_max":489,"o":"m 96 363 l 96 390 l 489 390 l 489 363 l 96 363 z "},".":{"ha":219,"x_min":96,"x_max":124,"o":"m 96 0 l 96 89 l 124 89 l 124 0 l 96 0 z "},"/":{"ha":744,"x_min":38,"x_max":706,"o":"m 706 986 l 72 0 l 38 0 l 669 986 l 706 986 z "},":":{"ha":219,"x_min":96,"x_max":124,"o":"m 96 629 l 96 718 l 124 718 l 124 629 l 96 629 m 96 0 l 96 89 l 124 89 l 124 0 l 96 0 z "},";":{"ha":233,"x_min":97,"x_max":135,"o":"m 101 629 l 101 718 l 129 718 l 129 629 l 101 629 m 97 -112 l 111 -14 l 99 -14 l 99 89 l 135 89 l 135 -14 l 117 -112 l 97 -112 z "},"<":{"ha":697,"x_min":47,"x_max":626,"o":"m 47 372 l 626 718 l 626 688 l 88 360 l 626 31 l 626 0 l 47 347 l 47 372 z "},"=":{"ha":604,"x_min":99,"x_max":506,"o":"m 99 321 l 99 349 l 506 349 l 506 321 l 99 321 m 99 418 l 99 446 l 506 446 l 506 418 l 99 418 z "},">":{"ha":697,"x_min":71,"x_max":650,"o":"m 650 347 l 71 0 l 71 31 l 610 360 l 71 688 l 71 718 l 650 372 l 650 347 z "},"?":{"ha":650,"x_min":49,"x_max":597,"o":"m 247 249 q 256 359 247 315 q 281 432 265 403 q 319 478 297 461 q 367 508 342 496 q 435 542 400 525 q 501 583 471 558 q 550 646 531 608 q 569 743 569 683 q 550 846 569 803 q 498 917 531 889 q 424 958 465 944 q 339 971 382 971 q 257 960 297 971 q 182 927 217 949 q 119 876 147 906 q 74 808 92 846 l 49 819 q 99 896 68 863 q 169 952 131 929 q 251 987 207 975 q 338 999 294 999 q 435 982 388 999 q 518 933 482 965 q 576 851 554 900 q 597 739 597 803 q 577 635 597 676 q 525 567 557 594 q 454 522 493 540 q 378 482 415 503 q 337 455 356 469 q 304 415 318 440 q 283 349 290 389 q 275 249 275 310 l 247 249 m 247 0 l 247 117 l 275 117 l 275 0 l 247 0 z "},"@":{"ha":1153,"x_min":69,"x_max":1068,"o":"m 574 838 q 767 796 676 838 q 924 683 857 754 q 1029 515 990 611 q 1068 308 1068 418 q 1066 256 1068 289 q 1057 187 1064 224 q 1038 113 1050 150 q 1003 45 1025 75 q 950 -3 982 15 q 874 -22 918 -22 q 821 -12 840 -22 q 791 17 801 -1 q 776 62 781 36 q 769 117 772 88 q 672 47 733 76 q 538 17 610 17 q 454 30 492 17 q 390 67 417 43 q 349 123 364 90 q 335 194 335 156 q 357 278 335 244 q 415 331 379 311 q 497 360 451 351 q 586 368 542 368 q 700 356 649 368 q 775 336 751 344 q 767 441 775 393 q 738 523 758 489 q 681 576 717 557 q 592 596 646 596 q 488 578 539 596 q 392 529 436 561 l 375 551 q 477 603 424 583 q 593 624 531 624 q 702 599 661 624 q 765 535 743 575 q 794 446 788 496 q 801 344 801 396 l 801 132 q 815 38 801 69 q 875 6 828 6 q 954 37 922 6 q 1006 114 986 68 q 1033 213 1025 160 q 1040 310 1040 265 q 1003 505 1040 414 q 903 663 967 596 q 755 770 840 731 q 574 810 669 810 q 394 773 481 810 q 242 671 308 736 q 137 516 176 606 q 97 319 97 426 q 135 126 97 217 q 237 -31 172 36 q 388 -136 301 -97 q 572 -175 474 -175 q 680 -162 626 -175 q 783 -122 733 -150 l 797 -147 q 572 -203 690 -203 q 378 -162 469 -203 q 217 -51 286 -122 q 109 115 149 19 q 69 319 69 210 q 112 528 69 433 q 224 692 154 624 q 384 799 293 761 q 574 838 475 838 m 672 76 q 727 113 707 93 q 758 153 747 132 q 771 198 768 175 q 774 242 774 221 l 774 307 q 749 312 765 307 q 708 323 732 317 q 651 335 683 329 q 579 340 618 340 q 501 333 539 340 q 431 310 463 326 q 381 265 400 293 q 363 194 363 236 q 377 130 363 158 q 416 83 392 101 q 472 54 440 64 q 538 44 503 44 q 610 54 574 44 q 672 76 646 64 z "},"A":{"ha":936,"x_min":25,"x_max":910,"o":"m 456 986 l 481 986 l 910 0 l 879 0 l 725 353 l 210 353 l 56 0 l 25 0 l 456 986 m 713 381 l 468 946 l 221 381 l 713 381 z "},"B":{"ha":910,"x_min":138,"x_max":840,"o":"m 840 256 q 821 158 840 204 q 768 77 801 113 q 690 21 735 42 q 594 0 644 0 l 138 0 l 138 986 l 574 986 q 667 964 625 986 q 738 906 708 942 q 783 826 767 871 q 799 735 799 781 q 760 597 799 660 q 657 506 722 535 q 733 468 699 493 q 791 410 767 443 q 828 337 815 376 q 840 256 840 297 m 813 256 q 797 341 813 300 q 753 414 781 382 q 687 465 725 446 q 604 483 649 483 l 165 483 l 165 28 l 594 28 q 680 47 640 28 q 749 99 719 67 q 796 172 779 131 q 813 256 813 213 m 165 958 l 165 511 l 565 511 q 649 531 611 511 q 713 582 686 550 q 756 653 740 614 q 771 735 771 693 q 756 819 771 779 q 716 891 742 860 q 653 940 690 922 q 574 958 617 958 l 165 958 z "},"C":{"ha":968,"x_min":67,"x_max":915,"o":"m 67 500 q 98 676 67 589 q 188 834 129 764 q 334 948 247 904 q 532 992 421 992 q 756 931 664 992 q 892 776 847 871 l 865 768 q 798 860 836 822 q 715 920 760 897 q 622 953 669 943 q 526 964 574 964 q 343 923 424 964 q 207 815 263 882 q 123 665 151 749 q 94 496 94 581 q 128 315 94 401 q 222 163 163 229 q 360 58 281 97 q 531 19 439 19 q 631 32 579 19 q 730 69 682 44 q 819 134 778 94 q 889 228 860 174 l 915 221 q 847 122 890 165 q 751 50 804 79 q 640 6 699 21 q 525 -8 581 -8 q 340 36 425 -8 q 195 152 256 81 q 101 315 135 224 q 67 500 67 406 z "},"D":{"ha":988,"x_min":138,"x_max":917,"o":"m 138 0 l 138 986 l 454 986 q 658 947 571 986 q 802 842 744 908 q 888 685 860 775 q 917 494 917 596 q 884 291 917 382 q 792 135 851 200 q 646 35 732 71 q 454 0 560 0 l 138 0 m 889 494 q 860 681 889 596 q 776 827 832 765 q 640 924 721 889 q 454 958 558 958 l 165 958 l 165 28 l 454 28 q 642 63 561 28 q 778 161 724 99 q 861 309 833 224 q 889 494 889 394 z "},"E":{"ha":857,"x_min":138,"x_max":785,"o":"m 785 28 l 785 0 l 138 0 l 138 986 l 772 986 l 772 958 l 165 958 l 165 518 l 697 518 l 697 490 l 165 490 l 165 28 l 785 28 z "},"F":{"ha":836,"x_min":138,"x_max":772,"o":"m 138 0 l 138 986 l 772 986 l 772 958 l 165 958 l 165 519 l 683 519 l 683 492 l 165 492 l 165 0 l 138 0 z "},"G":{"ha":1000,"x_min":67,"x_max":915,"o":"m 888 168 q 532 -7 733 -7 q 344 37 429 -7 q 197 151 258 81 q 101 312 135 222 q 67 493 67 401 q 100 679 67 589 q 192 840 133 769 q 334 951 251 910 q 515 993 417 993 q 651 977 592 993 q 757 933 711 961 q 835 865 803 904 q 892 778 868 825 l 865 769 q 719 919 808 874 q 515 965 631 965 q 340 924 418 965 q 208 817 263 883 q 124 665 153 750 q 94 493 94 581 q 128 315 94 400 q 222 164 163 229 q 361 60 282 99 q 532 21 440 21 q 717 65 629 21 q 888 207 804 110 l 888 442 l 656 442 l 656 469 l 915 469 l 915 0 l 888 0 l 888 168 z "},"H":{"ha":1015,"x_min":138,"x_max":878,"o":"m 878 986 l 878 0 l 850 0 l 850 490 l 165 490 l 165 0 l 138 0 l 138 986 l 165 986 l 165 518 l 850 518 l 850 986 l 878 986 z "},"I":{"ha":303,"x_min":138,"x_max":165,"o":"m 138 0 l 138 986 l 165 986 l 165 0 l 138 0 z "},"J":{"ha":657,"x_min":26,"x_max":532,"o":"m 42 68 q 240 13 122 13 q 381 45 329 13 q 460 138 433 78 q 496 286 488 199 q 504 485 504 374 l 504 986 l 532 986 l 532 485 q 523 280 532 372 q 483 122 514 188 q 395 21 453 57 q 240 -15 338 -15 q 26 46 115 -15 l 42 68 z "},"K":{"ha":863,"x_min":138,"x_max":853,"o":"m 138 0 l 138 986 l 165 986 l 165 346 l 793 986 l 833 986 l 413 556 l 853 0 l 817 0 l 392 536 l 165 307 l 165 0 l 138 0 z "},"L":{"ha":804,"x_min":138,"x_max":785,"o":"m 138 0 l 138 986 l 165 986 l 165 28 l 785 28 l 785 0 l 138 0 z "},"M":{"ha":1228,"x_min":138,"x_max":1090,"o":"m 1063 0 l 1063 925 l 625 194 l 603 194 l 165 925 l 165 0 l 138 0 l 138 986 l 160 986 l 614 228 l 1068 986 l 1090 986 l 1090 0 l 1063 0 z "},"N":{"ha":1078,"x_min":138,"x_max":940,"o":"m 165 932 l 165 0 l 138 0 l 138 986 l 158 986 l 913 40 l 913 986 l 940 986 l 940 0 l 908 0 l 165 932 z "},"O":{"ha":1051,"x_min":67,"x_max":985,"o":"m 526 -7 q 340 36 424 -7 q 194 149 256 79 q 100 308 133 218 q 67 493 67 399 q 102 682 67 592 q 199 842 138 772 q 345 952 261 911 q 526 993 429 993 q 713 949 628 993 q 858 835 797 906 q 951 674 918 764 q 985 493 985 585 q 949 303 985 393 q 852 144 914 213 q 707 34 790 75 q 526 -7 624 -7 m 94 493 q 127 316 94 401 q 217 165 160 231 q 353 60 274 99 q 526 21 432 21 q 702 62 622 21 q 838 169 782 103 q 926 321 894 236 q 957 493 957 406 q 924 670 957 585 q 833 822 892 756 q 697 926 775 888 q 526 965 618 965 q 351 924 431 965 q 214 817 271 883 q 126 665 157 750 q 94 493 94 581 z "},"P":{"ha":860,"x_min":138,"x_max":817,"o":"m 138 0 l 138 986 l 539 986 q 650 960 599 986 q 738 892 701 935 q 796 797 775 850 q 817 688 817 743 q 797 575 817 629 q 742 479 778 521 q 658 413 707 438 q 549 388 608 388 l 165 388 l 165 0 l 138 0 m 165 415 l 549 415 q 649 439 604 415 q 725 501 694 463 q 772 589 756 540 q 789 688 789 638 q 769 789 789 740 q 716 875 750 838 q 636 935 682 913 q 539 958 590 958 l 165 958 l 165 415 z "},"Q":{"ha":1051,"x_min":67,"x_max":985,"o":"m 814 106 q 683 23 756 53 q 526 -7 610 -7 q 340 36 424 -7 q 194 149 256 79 q 100 308 133 218 q 67 493 67 399 q 102 682 67 592 q 199 842 138 772 q 345 952 261 911 q 526 993 429 993 q 713 949 628 993 q 858 835 797 906 q 951 674 918 764 q 985 493 985 585 q 944 290 985 385 q 833 124 904 194 l 933 0 l 899 0 l 814 106 m 526 21 q 675 50 607 21 q 797 128 743 79 l 693 258 l 728 258 l 817 146 q 920 306 883 215 q 957 493 957 397 q 924 670 957 585 q 833 822 892 756 q 697 926 775 888 q 526 965 618 965 q 351 924 431 965 q 214 817 271 883 q 126 665 157 750 q 94 493 94 581 q 127 316 94 401 q 217 165 160 231 q 353 60 274 99 q 526 21 432 21 z "},"R":{"ha":892,"x_min":138,"x_max":817,"o":"m 138 0 l 138 986 l 539 986 q 650 960 599 986 q 738 892 701 935 q 796 797 775 850 q 817 688 817 743 q 799 578 817 631 q 747 484 781 525 q 667 417 714 443 q 565 388 621 392 l 815 0 l 782 0 l 532 388 l 165 388 l 165 0 l 138 0 m 165 415 l 549 415 q 649 439 604 415 q 724 501 693 463 q 772 588 756 539 q 789 688 789 636 q 769 789 789 740 q 716 875 750 838 q 636 935 682 913 q 539 958 590 958 l 165 958 l 165 415 z "},"S":{"ha":836,"x_min":54,"x_max":785,"o":"m 707 856 q 585 943 649 919 q 435 967 522 967 q 290 950 350 967 q 190 902 229 933 q 133 828 151 871 q 115 731 115 785 q 133 642 115 678 q 189 583 151 607 q 285 541 226 558 q 426 507 344 524 q 575 471 508 490 q 688 422 642 451 q 760 350 735 393 q 785 242 785 307 q 692 57 785 121 q 438 -7 600 -7 q 226 30 318 -7 q 54 146 133 67 l 75 164 q 238 51 150 86 q 439 17 326 17 q 672 72 586 17 q 757 238 757 126 q 738 331 757 293 q 678 397 718 369 q 575 444 638 425 q 428 481 513 464 q 283 513 346 496 q 176 558 219 531 q 110 626 132 585 q 88 728 88 667 q 112 841 88 792 q 181 924 136 890 q 290 976 226 958 q 432 993 353 993 q 597 966 526 993 q 725 875 667 939 l 707 856 z "},"T":{"ha":833,"x_min":25,"x_max":808,"o":"m 808 958 l 431 958 l 431 0 l 403 0 l 403 958 l 25 958 l 25 986 l 808 986 l 808 958 z "},"U":{"ha":1050,"x_min":122,"x_max":929,"o":"m 525 21 q 709 63 636 21 q 824 171 782 104 q 884 322 867 238 q 901 493 901 407 l 901 986 l 929 986 l 929 493 q 909 304 929 394 q 842 145 889 214 q 717 35 794 76 q 526 -7 640 -7 q 332 36 410 -7 q 208 150 254 79 q 142 310 161 221 q 122 493 122 400 l 122 986 l 150 986 l 150 493 q 167 319 150 404 q 228 168 185 235 q 343 61 271 101 q 525 21 415 21 z "},"V":{"ha":942,"x_min":26,"x_max":915,"o":"m 56 986 l 471 35 l 885 986 l 915 986 l 486 0 l 456 0 l 26 986 l 56 986 z "},"W":{"ha":1442,"x_min":26,"x_max":1415,"o":"m 529 978 l 560 978 l 719 608 l 881 978 l 911 978 l 735 575 l 971 35 l 1385 986 l 1415 986 l 986 0 l 956 0 l 721 540 l 486 0 l 456 0 l 26 986 l 57 986 l 471 35 l 706 575 l 529 978 z "},"X":{"ha":863,"x_min":15,"x_max":847,"o":"m 51 986 l 432 508 l 813 986 l 847 986 l 449 486 l 836 0 l 801 0 l 432 464 l 63 0 l 26 0 l 414 486 l 15 986 l 51 986 z "},"Y":{"ha":890,"x_min":32,"x_max":858,"o":"m 64 986 l 444 414 l 826 986 l 858 986 l 458 382 l 458 0 l 431 0 l 431 385 l 32 986 l 64 986 z "},"Z":{"ha":867,"x_min":39,"x_max":826,"o":"m 39 28 l 792 958 l 46 958 l 46 986 l 826 986 l 826 958 l 74 28 l 821 28 l 821 0 l 39 0 l 39 28 z "},"[":{"ha":317,"x_min":135,"x_max":232,"o":"m 135 -56 l 135 1028 l 232 1028 l 232 1000 l 163 1000 l 163 -28 l 232 -28 l 232 -56 l 135 -56 z "},"\\":{"ha":714,"x_min":38,"x_max":678,"o":"m 74 986 l 678 0 l 643 0 l 38 986 l 74 986 z "},"]":{"ha":317,"x_min":85,"x_max":182,"o":"m 85 -56 l 85 -28 l 154 -28 l 154 1000 l 85 1000 l 85 1028 l 182 1028 l 182 -56 l 85 -56 z "},"^":{"ha":701,"x_min":64,"x_max":638,"o":"m 64 421 l 339 986 l 364 986 l 638 421 l 606 421 l 351 946 l 93 421 l 64 421 z "},"_":{"ha":738,"x_min":96,"x_max":642,"o":"m 96 -28 l 96 0 l 642 0 l 642 -28 l 96 -28 z "},"`":{"ha":275,"x_min":69,"x_max":206,"o":"m 69 1014 l 115 1014 l 206 913 l 183 896 l 69 1014 z "},"a":{"ha":728,"x_min":54,"x_max":643,"o":"m 288 -14 q 196 3 239 -14 q 122 51 153 21 q 72 121 90 81 q 54 207 54 161 q 76 290 54 253 q 137 355 97 328 q 231 397 176 382 q 351 413 286 413 q 478 402 414 413 q 593 372 542 392 l 593 454 q 576 556 593 510 q 528 635 560 603 q 453 686 497 668 q 357 704 410 704 q 244 681 304 704 q 124 615 185 658 l 107 638 q 357 732 246 732 q 466 713 417 732 q 549 657 515 693 q 602 569 583 621 q 621 454 621 518 l 621 56 q 643 28 621 28 l 643 0 q 624 3 628 0 q 601 23 610 8 q 593 56 593 38 l 593 122 q 463 22 543 57 q 288 -14 382 -14 m 288 14 q 458 49 381 14 q 572 142 535 83 q 593 199 593 171 l 593 342 q 351 385 482 385 q 241 372 290 385 q 156 336 192 360 q 101 280 121 313 q 82 207 82 247 q 98 131 82 167 q 142 69 114 96 q 207 28 169 43 q 288 14 244 14 z "},"b":{"ha":838,"x_min":117,"x_max":774,"o":"m 426 -14 q 342 -1 383 -14 q 265 33 301 11 q 197 85 228 56 q 144 150 165 115 l 144 0 l 117 0 l 117 1014 l 144 1014 l 144 553 q 272 681 200 631 q 439 732 344 732 q 581 699 518 732 q 685 612 643 665 q 751 492 728 558 q 774 358 774 425 q 747 217 774 285 q 674 99 721 150 q 563 17 626 47 q 426 -14 500 -14 m 426 14 q 555 44 496 14 q 656 122 614 74 q 722 233 699 171 q 746 358 746 294 q 724 488 746 425 q 660 598 701 550 q 563 675 619 646 q 439 704 507 704 q 342 687 388 704 q 260 640 297 669 q 194 574 224 611 q 144 494 165 536 l 144 232 q 176 148 147 188 q 246 78 204 108 q 336 31 288 49 q 426 14 385 14 z "},"c":{"ha":747,"x_min":64,"x_max":692,"o":"m 64 364 q 90 509 64 442 q 164 626 117 576 q 274 703 211 675 q 411 732 338 732 q 574 690 503 732 q 682 571 646 647 l 654 561 q 552 666 618 628 q 407 704 486 704 q 283 678 340 704 q 183 606 226 651 q 116 497 140 560 q 92 364 92 435 q 117 229 92 293 q 185 117 142 165 q 286 42 229 69 q 408 14 343 14 q 492 26 450 14 q 570 60 535 39 q 631 108 606 81 q 664 165 656 136 l 692 157 q 652 90 679 121 q 588 35 625 58 q 505 -1 550 13 q 413 -14 460 -14 q 278 16 342 -14 q 167 97 214 46 q 92 217 119 149 q 64 364 64 286 z "},"d":{"ha":839,"x_min":64,"x_max":743,"o":"m 411 -14 q 272 18 336 -14 q 162 103 208 50 q 90 222 115 156 q 64 358 64 289 q 89 501 64 433 q 159 619 114 568 q 265 701 204 671 q 399 732 326 732 q 492 717 449 732 q 574 678 536 703 q 641 622 611 654 q 693 553 671 589 l 693 1014 l 721 1014 l 721 56 q 743 28 721 28 l 743 0 q 725 3 731 0 q 701 24 710 10 q 693 56 693 39 l 693 150 q 638 84 669 114 q 570 32 607 54 q 493 -2 533 10 q 411 -14 453 -14 m 411 14 q 501 32 453 14 q 592 80 550 50 q 662 150 633 110 q 693 235 690 190 l 693 494 q 646 576 678 538 q 574 642 614 614 q 488 688 533 671 q 399 704 442 704 q 272 674 328 704 q 175 596 215 644 q 113 485 135 547 q 92 358 92 422 q 117 228 92 290 q 185 119 142 167 q 286 42 228 71 q 411 14 344 14 z "},"e":{"ha":800,"x_min":64,"x_max":751,"o":"m 411 -14 q 277 16 340 -14 q 167 98 214 46 q 92 219 119 150 q 64 365 64 288 q 90 508 64 442 q 163 625 117 575 q 272 703 210 675 q 404 732 333 732 q 540 703 476 732 q 649 624 603 674 q 724 506 696 574 q 751 360 751 438 l 751 344 l 92 344 q 124 215 97 275 q 194 110 151 154 q 294 40 238 65 q 413 14 350 14 q 494 25 454 14 q 568 56 533 36 q 629 104 603 76 q 671 165 656 132 l 697 158 q 653 90 682 121 q 587 35 625 58 q 503 -1 549 13 q 411 -14 458 -14 m 722 372 q 692 506 718 444 q 623 610 665 567 q 525 679 581 654 q 406 704 469 704 q 286 679 342 704 q 188 610 231 654 q 121 504 146 565 q 92 372 96 443 l 722 372 z "},"f":{"ha":415,"x_min":39,"x_max":465,"o":"m 143 0 l 143 693 l 39 693 l 39 721 l 143 721 l 143 750 q 193 955 143 882 q 333 1028 243 1028 q 410 1015 374 1028 q 465 981 446 1001 l 443 964 q 397 991 426 981 q 335 1001 367 1001 q 213 937 256 1001 q 171 750 171 872 l 171 721 l 386 721 l 386 693 l 171 693 l 171 0 l 143 0 z "},"g":{"ha":838,"x_min":64,"x_max":721,"o":"m 411 -14 q 272 18 336 -14 q 162 103 208 50 q 90 222 115 156 q 64 358 64 289 q 88 498 64 431 q 157 617 113 565 q 263 701 201 669 q 399 732 325 732 q 490 718 447 732 q 569 680 532 704 q 636 623 606 656 q 693 553 667 590 l 693 721 l 721 721 l 721 -31 q 694 -154 721 -101 q 624 -242 668 -207 q 522 -293 579 -276 q 403 -310 464 -310 q 203 -262 275 -310 q 90 -137 131 -215 l 117 -129 q 238 -247 161 -211 q 403 -282 315 -282 q 515 -266 463 -282 q 608 -218 568 -250 q 670 -140 647 -186 q 693 -31 693 -93 l 693 150 q 638 84 669 114 q 570 32 607 54 q 493 -2 533 10 q 411 -14 453 -14 m 411 14 q 512 34 463 14 q 600 86 561 54 q 665 157 639 118 q 693 235 690 196 l 693 494 q 645 578 676 540 q 575 644 614 617 q 490 688 536 672 q 399 704 444 704 q 268 673 325 704 q 172 592 211 642 q 113 481 133 543 q 92 358 92 419 q 117 228 92 290 q 185 119 142 167 q 286 42 228 71 q 411 14 344 14 z "},"h":{"ha":785,"x_min":117,"x_max":676,"o":"m 676 0 l 649 0 l 649 401 q 449 704 649 704 q 350 685 399 704 q 260 632 301 665 q 189 553 219 599 q 144 456 158 508 l 144 0 l 117 0 l 117 1014 l 144 1014 l 144 535 q 199 616 167 579 q 272 678 232 653 q 356 718 311 704 q 447 732 401 732 q 618 649 560 732 q 676 401 676 565 l 676 0 z "},"i":{"ha":261,"x_min":117,"x_max":144,"o":"m 117 0 l 117 721 l 144 721 l 144 0 l 117 0 m 117 907 l 117 1014 l 144 1014 l 144 907 l 117 907 z "},"j":{"ha":272,"x_min":-168,"x_max":156,"o":"m -29 -236 q -105 -226 -69 -236 q -168 -189 -140 -217 l -146 -172 q -90 -201 -121 -194 q -31 -208 -60 -208 q 26 -196 -1 -208 q 77 -162 54 -183 q 114 -112 100 -142 q 128 -50 128 -83 l 128 721 l 156 721 l 156 -50 q 139 -124 156 -90 q 96 -183 122 -158 q 36 -222 69 -208 q -29 -236 3 -236 m 128 907 l 128 1014 l 156 1014 l 156 907 l 128 907 z "},"k":{"ha":706,"x_min":117,"x_max":681,"o":"m 647 0 l 340 413 l 144 235 l 144 0 l 117 0 l 117 1014 l 144 1014 l 144 272 l 636 718 l 674 718 l 361 432 l 681 0 l 647 0 z "},"l":{"ha":331,"x_min":125,"x_max":331,"o":"m 125 1014 l 153 1014 l 153 107 q 178 43 153 67 q 244 19 203 19 q 281 23 260 19 q 321 32 303 26 l 331 10 q 283 -2 311 3 q 235 -7 254 -7 q 156 24 186 -7 q 125 107 125 56 l 125 1014 z "},"m":{"ha":1261,"x_min":117,"x_max":1153,"o":"m 1153 0 l 1125 0 l 1125 401 q 1078 631 1125 557 q 932 704 1032 704 q 835 685 881 704 q 753 633 790 667 q 690 554 717 600 q 649 454 663 508 l 649 0 l 621 0 l 621 401 q 575 631 621 558 q 429 704 529 704 q 334 686 379 704 q 252 635 289 668 q 188 557 215 603 q 144 456 160 511 l 144 0 l 117 0 l 117 721 l 144 721 l 144 535 q 265 681 192 629 q 424 732 338 732 q 574 675 515 732 q 643 522 632 618 q 932 732 751 732 q 1099 651 1044 732 q 1153 401 1153 569 l 1153 0 z "},"n":{"ha":785,"x_min":117,"x_max":676,"o":"m 676 0 l 649 0 l 649 401 q 605 632 649 560 q 464 704 561 704 q 360 685 411 704 q 267 633 310 667 q 192 554 224 600 q 144 456 160 508 l 144 0 l 117 0 l 117 721 l 144 721 l 144 535 q 201 615 167 578 q 278 677 236 651 q 367 717 319 703 q 463 732 414 732 q 625 652 574 732 q 676 401 676 572 l 676 0 z "},"o":{"ha":814,"x_min":64,"x_max":750,"o":"m 407 -14 q 274 16 336 -14 q 165 97 211 46 q 91 215 118 147 q 64 358 64 283 q 91 502 64 435 q 165 621 118 569 q 275 702 213 672 q 407 732 338 732 q 539 702 476 732 q 648 621 601 672 q 722 502 694 569 q 750 358 750 435 q 723 215 750 283 q 649 97 696 147 q 540 16 603 46 q 407 -14 478 -14 m 92 356 q 117 224 92 286 q 184 115 142 161 q 283 41 226 68 q 406 14 340 14 q 527 42 469 14 q 628 117 585 69 q 697 226 672 164 q 722 360 722 289 q 697 492 722 429 q 629 601 672 554 q 528 676 586 649 q 407 704 471 704 q 285 676 343 704 q 185 601 228 649 q 117 490 142 553 q 92 356 92 426 z "},"p":{"ha":838,"x_min":117,"x_max":774,"o":"m 439 -14 q 347 1 390 -14 q 267 40 304 15 q 199 97 229 64 q 144 165 168 129 l 144 -296 l 117 -296 l 117 721 l 144 721 l 144 568 q 199 634 167 604 q 267 686 231 664 q 344 720 304 708 q 426 732 385 732 q 567 699 503 732 q 676 614 631 667 q 748 494 722 561 q 774 358 774 428 q 749 217 774 285 q 681 99 725 150 q 576 17 638 47 q 439 -14 514 -14 m 439 14 q 566 44 510 14 q 663 122 622 74 q 724 233 703 171 q 746 358 746 294 q 721 489 746 426 q 653 599 696 551 q 551 676 610 647 q 426 704 493 704 q 336 686 385 704 q 246 638 288 668 q 176 567 204 607 q 144 483 147 526 l 144 224 q 194 141 164 179 q 263 75 225 103 q 346 31 301 47 q 439 14 390 14 z "},"q":{"ha":838,"x_min":64,"x_max":743,"o":"m 399 -14 q 260 18 322 -14 q 155 102 199 50 q 88 221 111 154 q 64 358 64 288 q 91 499 64 432 q 165 619 118 567 q 276 701 213 671 q 411 732 339 732 q 495 719 454 732 q 573 685 536 707 q 641 633 610 663 q 693 568 672 603 l 693 721 l 721 721 l 721 -240 q 743 -268 721 -268 l 743 -296 q 724 -293 729 -296 q 701 -272 708 -286 q 693 -240 693 -257 l 693 165 q 558 32 632 78 q 399 -14 483 -14 m 399 14 q 494 31 450 14 q 576 78 539 49 q 643 144 614 107 q 693 224 672 182 l 693 483 q 661 567 689 526 q 593 638 633 607 q 505 686 553 668 q 411 704 457 704 q 282 674 340 704 q 181 595 224 644 q 115 484 139 546 q 92 358 92 422 q 115 228 92 290 q 178 118 138 165 q 276 42 219 71 q 399 14 332 14 z "},"r":{"ha":449,"x_min":117,"x_max":425,"o":"m 425 693 q 248 626 322 689 q 144 456 174 564 l 144 0 l 117 0 l 117 721 l 144 721 l 144 535 q 245 660 182 611 q 379 718 308 710 q 405 720 393 719 q 425 721 417 721 l 425 693 z "},"s":{"ha":654,"x_min":51,"x_max":594,"o":"m 326 -14 q 51 103 158 -14 l 72 121 q 188 40 128 67 q 326 14 249 14 q 500 60 433 14 q 567 189 567 106 q 550 253 567 228 q 501 298 533 279 q 422 330 469 317 q 315 357 375 343 q 214 383 257 371 q 142 413 171 394 q 99 458 114 431 q 85 528 85 485 q 106 620 85 582 q 161 683 126 658 q 242 720 196 708 q 339 732 288 732 q 488 702 426 732 q 574 628 550 672 l 549 617 q 463 682 522 660 q 333 704 403 704 q 249 694 289 704 q 178 664 208 685 q 130 610 147 643 q 113 532 113 578 q 124 473 113 496 q 161 435 136 450 q 225 408 186 419 q 317 385 264 397 q 433 356 381 369 q 520 321 485 342 q 575 270 556 300 q 594 193 594 240 q 575 108 594 146 q 521 42 556 69 q 436 1 486 15 q 326 -14 386 -14 z "},"t":{"ha":410,"x_min":36,"x_max":397,"o":"m 397 33 q 387 26 397 33 q 359 13 376 19 q 318 -1 342 6 q 265 -7 294 -7 q 178 24 215 -7 q 140 104 140 54 l 140 693 l 36 693 l 36 721 l 140 721 l 140 972 l 168 972 l 168 721 l 342 721 l 342 693 l 168 693 l 168 104 q 200 42 171 64 q 265 21 229 21 q 310 26 289 21 q 347 37 331 31 q 372 49 363 43 q 382 56 381 54 l 397 33 z "},"u":{"ha":800,"x_min":108,"x_max":704,"o":"m 340 -14 q 108 317 108 -14 l 108 721 l 136 721 l 136 317 q 340 14 136 14 q 442 33 392 14 q 533 84 492 51 q 606 163 575 117 q 654 263 638 208 l 654 721 l 682 721 l 682 56 q 704 28 682 28 l 704 0 q 685 3 689 0 q 663 23 671 8 q 654 56 654 38 l 654 183 q 522 39 607 92 q 340 -14 438 -14 z "},"v":{"ha":722,"x_min":35,"x_max":688,"o":"m 349 0 l 35 721 l 65 721 l 361 40 l 657 721 l 688 721 l 374 0 l 349 0 z "},"w":{"ha":1103,"x_min":35,"x_max":1068,"o":"m 1038 721 l 1068 721 l 753 0 l 728 0 l 551 404 l 375 0 l 350 0 l 35 721 l 65 721 l 363 40 l 536 439 l 415 719 l 444 719 l 551 475 l 658 719 l 688 719 l 567 439 l 740 40 l 1038 721 z "},"x":{"ha":669,"x_min":28,"x_max":642,"o":"m 64 721 l 324 396 l 335 379 l 346 396 l 606 721 l 642 721 l 353 358 l 639 0 l 603 0 l 346 322 l 335 339 l 324 322 l 67 0 l 31 0 l 317 358 l 28 721 l 64 721 z "},"y":{"ha":744,"x_min":29,"x_max":710,"o":"m 178 -282 q 219 -280 201 -282 q 243 -268 236 -278 q 253 -252 247 -264 q 271 -212 258 -240 q 306 -133 283 -183 q 364 0 328 -82 l 29 721 l 60 721 l 378 35 l 679 721 l 710 721 l 281 -258 q 235 -303 264 -294 q 178 -310 207 -310 l 178 -282 z "},"z":{"ha":678,"x_min":46,"x_max":631,"o":"m 46 28 l 596 693 l 53 693 l 53 721 l 631 721 l 631 693 l 82 28 l 625 28 l 625 0 l 46 0 l 46 28 z "},"{":{"ha":318,"x_min":94,"x_max":240,"o":"m 164 1000 l 164 578 q 163 565 164 574 q 160 545 163 557 q 151 522 157 533 q 135 500 146 510 q 160 455 157 481 q 164 422 164 429 l 164 -15 l 240 -15 l 240 -43 l 168 -43 q 147 -34 157 -43 q 136 -1 136 -25 l 136 422 q 128 464 136 443 q 94 488 119 485 l 94 515 q 117 524 108 515 q 129 542 125 532 q 135 563 133 553 q 136 578 136 574 l 136 986 q 149 1021 136 1014 q 168 1028 163 1028 l 240 1028 l 240 1000 l 164 1000 z "},"|":{"ha":292,"x_min":132,"x_max":160,"o":"m 132 -181 l 132 1076 l 160 1076 l 160 -181 l 132 -181 z "},"}":{"ha":318,"x_min":78,"x_max":224,"o":"m 78 1000 l 78 1028 l 150 1028 q 169 1021 156 1028 q 182 986 182 1014 l 182 578 q 183 563 182 574 q 188 542 183 553 q 200 524 192 532 q 224 515 208 515 l 224 488 q 190 464 199 485 q 182 422 182 443 l 182 -1 q 172 -34 182 -25 q 150 -43 161 -43 l 78 -43 l 78 -15 l 154 -15 l 154 422 q 158 455 154 429 q 183 500 161 481 q 167 522 172 510 q 158 545 161 533 q 155 565 156 557 q 154 578 154 574 l 154 1000 l 78 1000 z "},"~":{"ha":642,"x_min":97,"x_max":546,"o":"m 97 349 q 103 368 97 350 q 124 407 110 386 q 160 444 139 428 q 214 461 182 461 q 267 448 242 461 q 318 419 293 435 q 368 390 343 403 q 421 376 393 376 q 464 387 446 376 q 494 411 482 397 q 513 437 507 425 q 518 451 518 449 l 546 450 q 518 399 535 421 q 480 364 503 379 q 421 349 457 349 q 360 362 388 349 q 307 391 332 375 q 259 420 282 407 q 214 433 236 433 q 176 420 193 433 q 148 392 160 407 q 131 363 136 376 q 125 349 125 350 l 97 349 l 97 349 z "}," ":{"ha":363,"x_min":0,"x_max":0,"o":""},"¡":{"ha":317,"x_min":144,"x_max":172,"o":"m 172 718 l 172 0 l 144 0 l 144 718 l 172 718 m 172 996 l 172 879 l 144 879 l 144 996 l 172 996 z "},"¢":{"ha":751,"x_min":64,"x_max":692,"o":"m 383 -167 l 383 -12 q 254 27 313 -7 q 153 113 196 61 q 88 228 111 164 q 64 358 64 292 q 88 494 64 429 q 153 612 111 560 q 253 696 194 664 q 383 732 313 728 l 383 896 l 411 896 l 411 732 q 583 685 519 729 q 681 571 646 640 l 654 561 q 551 667 614 633 q 411 704 489 701 l 411 14 q 485 24 444 14 q 563 55 526 35 q 627 103 599 75 q 664 165 656 131 l 692 157 q 647 83 678 115 q 577 30 617 51 q 494 -3 538 8 q 411 -14 450 -14 l 411 -167 l 383 -167 m 92 358 q 114 235 92 294 q 176 128 136 175 q 268 51 215 82 q 383 15 321 21 l 383 704 q 260 668 314 700 q 168 588 206 636 q 111 478 131 539 q 92 358 92 418 z "},"£":{"ha":649,"x_min":67,"x_max":582,"o":"m 67 508 l 218 508 q 182 571 201 540 q 147 632 163 601 q 120 694 131 663 q 110 764 110 726 q 128 853 110 811 q 176 926 146 894 q 249 975 207 957 q 336 993 290 993 q 465 953 406 993 q 561 847 525 914 l 538 831 q 450 929 504 893 q 333 965 396 965 q 258 950 293 965 q 197 908 224 935 q 156 844 171 881 q 140 767 140 808 q 151 699 140 731 q 179 637 163 668 q 215 574 196 606 q 251 508 235 543 l 492 508 l 492 481 l 264 481 q 287 413 278 449 q 296 336 296 376 q 288 264 296 299 q 260 193 279 229 q 209 116 240 157 q 132 25 178 75 q 181 32 156 29 q 231 35 206 35 q 289 31 263 35 q 339 21 315 26 q 386 11 363 15 q 436 7 410 7 q 498 14 465 7 q 574 36 531 21 l 582 10 q 435 -21 507 -21 q 379 -17 404 -21 q 330 -7 354 -12 q 279 3 306 -1 q 222 7 253 7 q 156 2 192 7 q 92 -10 121 -3 l 78 14 q 170 118 133 74 q 228 199 207 163 q 258 267 250 235 q 267 335 267 299 q 257 413 267 376 q 232 481 247 449 l 67 481 l 67 508 z "},"¤":{"ha":740,"x_min":89,"x_max":656,"o":"m 203 649 q 277 698 235 681 q 368 715 319 715 q 462 697 418 715 q 538 646 506 678 l 635 742 l 656 722 l 557 625 q 599 551 583 592 q 614 465 614 510 q 598 379 614 421 q 554 304 582 338 l 656 206 l 635 186 l 535 285 q 459 235 501 253 q 368 218 417 218 q 278 235 319 218 q 206 281 238 251 l 110 186 l 89 206 l 186 301 q 125 465 125 371 q 140 553 125 511 q 183 628 156 594 l 89 722 l 110 742 l 203 649 m 154 464 q 171 378 154 418 q 217 308 188 338 q 285 260 246 278 q 368 243 324 243 q 452 261 413 243 q 521 310 492 279 q 567 381 550 340 q 585 467 585 421 q 567 553 585 513 q 521 624 550 594 q 452 672 492 654 q 368 689 413 689 q 286 672 325 689 q 218 624 247 654 q 172 552 189 593 q 154 464 154 511 z "},"¥":{"ha":904,"x_min":39,"x_max":865,"o":"m 526 474 l 656 474 l 656 446 l 508 446 l 465 382 l 465 349 l 656 349 l 656 321 l 465 321 l 465 0 l 438 0 l 438 321 l 249 321 l 249 349 l 438 349 l 438 385 l 397 446 l 249 446 l 249 474 l 379 474 l 39 986 l 71 986 l 451 414 l 833 986 l 865 986 l 526 474 z "},"¦":{"ha":297,"x_min":135,"x_max":163,"o":"m 163 396 l 163 -181 l 135 -181 l 135 396 l 163 396 m 163 1076 l 163 500 l 135 500 l 135 1076 l 163 1076 z "},"§":{"ha":668,"x_min":64,"x_max":610,"o":"m 535 251 q 592 192 575 229 q 610 103 610 156 q 586 6 610 49 q 525 -65 563 -36 q 442 -108 488 -93 q 351 -122 396 -122 q 200 -89 261 -122 q 92 -8 139 -56 l 113 10 q 226 -69 169 -43 q 351 -94 282 -94 q 434 -81 393 -94 q 508 -42 475 -68 q 561 20 540 -17 q 582 103 582 57 q 562 184 582 153 q 510 233 542 215 q 439 256 479 250 q 360 264 399 263 q 261 278 308 265 q 178 315 214 290 q 122 380 143 340 q 101 474 101 419 q 114 546 101 510 q 146 604 126 582 q 86 672 108 628 q 64 774 64 717 q 88 867 64 826 q 148 936 111 908 q 230 978 185 964 q 319 993 275 993 q 463 966 411 993 q 549 889 514 939 l 524 878 q 486 922 510 904 q 435 949 463 939 q 376 962 407 958 q 319 965 346 965 q 238 952 279 965 q 165 914 197 939 q 112 853 132 889 q 92 774 92 818 q 109 689 92 724 q 157 633 126 654 q 230 601 188 611 q 322 592 272 592 q 418 581 371 592 q 503 545 465 569 q 563 482 540 521 q 586 389 586 443 q 572 312 586 349 q 535 251 558 275 m 129 474 q 149 384 129 418 q 201 331 168 350 q 274 303 233 311 q 356 290 314 294 q 438 280 399 285 q 507 264 478 275 q 544 318 531 283 q 558 389 558 353 q 536 473 558 439 q 479 527 514 507 q 403 556 444 547 q 322 564 361 564 q 243 570 282 564 q 172 590 204 576 q 141 539 153 571 q 129 474 129 507 z "},"¨":{"ha":328,"x_min":69,"x_max":258,"o":"m 69 907 l 69 1014 l 97 1014 l 97 907 l 69 907 m 231 907 l 231 1014 l 258 1014 l 258 907 l 231 907 z "},"©":{"ha":1144,"x_min":71,"x_max":1074,"o":"m 572 -10 q 372 28 464 -10 q 214 134 281 67 q 109 293 147 201 q 71 493 71 385 q 109 692 71 600 q 214 850 147 783 q 372 955 281 917 q 572 993 464 993 q 772 955 681 993 q 931 850 864 917 q 1035 692 997 783 q 1074 493 1074 600 q 1035 293 1074 385 q 931 134 997 201 q 772 28 864 67 q 572 -10 681 -10 m 574 18 q 759 52 674 18 q 908 149 844 86 q 1008 298 972 211 q 1044 489 1044 385 q 1009 679 1044 592 q 910 830 974 767 q 761 929 847 893 q 574 965 675 965 q 385 930 471 965 q 235 831 299 894 q 135 680 171 767 q 100 492 100 593 q 135 303 100 390 q 234 153 171 217 q 384 54 297 90 q 574 18 471 18 m 582 176 q 475 197 529 176 q 377 259 421 218 q 306 359 333 300 q 278 493 278 418 q 295 606 278 549 q 348 709 313 663 q 439 785 383 756 q 571 814 494 814 q 714 781 649 814 q 807 676 779 747 l 781 667 q 738 728 764 704 q 683 765 713 751 q 623 782 653 778 q 571 786 593 786 q 451 759 501 786 q 369 690 401 732 q 322 595 338 647 q 306 493 306 543 q 331 370 306 424 q 397 280 357 317 q 484 224 436 243 q 576 204 532 204 q 640 213 607 204 q 703 238 672 222 q 758 278 733 254 q 794 331 782 301 l 821 324 q 796 280 815 306 q 745 231 776 254 q 672 192 714 208 q 582 176 631 176 z "},"ª":{"ha":590,"x_min":72,"x_max":501,"o":"m 236 488 q 172 499 201 488 q 119 531 142 511 q 85 577 97 550 q 72 636 72 604 q 88 693 72 667 q 131 738 103 719 q 196 767 158 757 q 279 778 233 778 q 363 771 321 778 q 439 751 406 764 l 439 800 q 397 909 439 868 q 285 950 356 950 q 124 893 210 950 l 106 921 q 288 985 203 985 q 430 935 378 985 q 482 796 482 885 l 482 558 q 501 536 482 536 l 501 496 q 476 497 483 496 q 444 538 444 504 l 443 578 q 353 511 408 535 q 236 488 299 488 m 244 524 q 351 544 303 524 q 424 597 399 564 q 439 635 439 617 l 439 719 q 364 740 403 735 q 285 746 325 746 q 161 717 208 746 q 114 638 114 688 q 151 556 114 589 q 244 524 189 524 z "},"«":{"ha":719,"x_min":58,"x_max":624,"o":"m 58 372 l 388 607 l 388 576 l 85 360 l 388 142 l 388 111 l 58 347 l 58 372 m 294 372 l 624 607 l 624 576 l 321 360 l 624 142 l 624 111 l 294 347 l 294 372 z "},"¬":{"ha":779,"x_min":121,"x_max":681,"o":"m 681 469 l 681 194 l 653 194 l 653 442 l 121 442 l 121 469 l 681 469 z "},"­":{"ha":751,"x_min":96,"x_max":656,"o":"m 96 363 l 96 390 l 656 390 l 656 363 l 96 363 z "},"®":{"ha":1144,"x_min":71,"x_max":1074,"o":"m 572 -10 q 372 28 464 -10 q 214 134 281 67 q 109 293 147 201 q 71 493 71 385 q 109 692 71 600 q 214 850 147 783 q 372 955 281 917 q 572 993 464 993 q 772 955 681 993 q 931 850 864 917 q 1035 692 997 783 q 1074 493 1074 600 q 1035 293 1074 385 q 931 134 997 201 q 772 28 864 67 q 572 -10 681 -10 m 572 18 q 758 52 672 18 q 908 149 844 86 q 1008 299 972 211 q 1044 493 1044 386 q 1009 681 1044 594 q 910 830 974 767 q 760 929 847 893 q 572 965 674 965 q 384 929 471 965 q 234 830 297 893 q 135 681 171 767 q 100 493 100 594 q 135 303 100 390 q 234 153 171 217 q 383 54 297 90 q 572 18 469 18 m 371 810 l 632 810 q 704 793 671 810 q 762 749 738 776 q 799 686 786 721 q 813 615 813 651 q 801 544 813 578 q 767 483 789 510 q 715 440 746 457 q 649 421 685 424 l 811 168 l 778 168 l 617 421 l 400 421 l 400 168 l 371 168 l 371 810 m 639 449 q 702 462 675 449 q 748 498 729 475 q 776 551 767 521 q 785 615 785 582 q 774 679 785 649 q 742 732 763 710 q 694 767 722 754 q 632 781 665 781 l 400 781 l 400 449 l 639 449 z "},"¯":{"ha":528,"x_min":69,"x_max":458,"o":"m 69 953 l 69 981 l 458 981 l 458 953 l 69 953 z "},"°":{"ha":350,"x_min":79,"x_max":271,"o":"m 79 910 q 107 978 79 950 q 175 1006 135 1006 q 243 978 215 1006 q 271 910 271 950 q 243 842 271 869 q 175 814 215 814 q 107 842 135 814 q 79 910 79 869 m 126 958 q 107 910 107 939 q 126 863 107 879 q 175 842 147 842 q 224 863 203 842 q 243 910 243 882 q 238 937 243 925 q 224 958 232 949 q 175 978 204 978 q 126 958 146 978 z "},"±":{"ha":653,"x_min":118,"x_max":535,"o":"m 118 118 l 118 146 l 535 146 l 535 118 l 118 118 m 535 507 l 535 479 l 340 479 l 340 271 l 313 271 l 313 479 l 118 479 l 118 507 l 313 507 l 313 715 l 340 715 l 340 507 l 535 507 z "},"²":{"ha":513,"x_min":56,"x_max":451,"o":"m 56 588 q 101 744 56 690 q 226 828 147 799 q 292 850 257 839 q 355 877 326 861 q 402 917 383 893 q 421 976 421 940 q 411 1022 421 1000 q 382 1062 401 1044 q 333 1090 363 1079 q 264 1100 304 1100 q 197 1091 226 1100 q 144 1069 167 1082 q 107 1042 122 1057 q 83 1017 92 1028 l 63 1033 q 77 1051 64 1036 q 115 1082 90 1065 q 178 1113 140 1099 q 267 1126 217 1126 q 348 1114 314 1126 q 405 1081 382 1101 q 439 1032 428 1060 q 450 975 450 1004 q 429 906 450 933 q 378 861 408 879 q 312 831 347 843 q 247 810 276 819 q 161 765 193 790 q 114 714 129 740 q 94 661 99 688 q 90 614 90 635 l 451 614 l 451 588 l 56 588 z "},"³":{"ha":528,"x_min":57,"x_max":468,"o":"m 264 581 q 184 590 221 581 q 119 618 147 600 q 75 660 92 636 q 57 714 58 685 l 79 724 q 95 679 81 700 q 135 642 110 658 q 193 617 160 626 q 264 607 226 607 q 333 616 301 607 q 390 640 365 625 q 427 678 414 656 q 440 725 440 700 q 383 813 440 781 q 233 846 326 846 l 203 846 l 203 871 l 233 871 q 374 898 325 871 q 422 978 422 925 q 374 1067 422 1032 q 253 1101 326 1101 q 150 1078 194 1101 q 88 1018 106 1054 l 67 1035 q 138 1101 88 1076 q 253 1126 189 1126 q 332 1115 296 1126 q 394 1084 368 1104 q 436 1037 421 1064 q 451 979 451 1010 q 328 858 451 886 q 430 810 392 847 q 468 722 468 774 q 452 665 468 692 q 408 620 436 639 q 344 591 381 601 q 264 581 307 581 z "},"´":{"ha":275,"x_min":69,"x_max":206,"o":"m 92 896 l 69 913 l 158 1014 l 206 1014 l 92 896 z "},"µ":{"ha":836,"x_min":126,"x_max":722,"o":"m 126 721 l 154 721 l 154 317 q 358 14 154 14 q 460 33 410 14 q 551 84 510 51 q 624 163 593 117 q 672 263 656 208 l 672 721 l 700 721 l 700 56 q 722 28 700 28 l 722 0 q 703 3 707 0 q 681 23 689 8 q 672 56 672 38 l 672 183 q 540 39 625 92 q 358 -14 456 -14 q 154 131 207 -14 l 154 -294 l 126 -294 l 126 721 z "},"¶":{"ha":785,"x_min":44,"x_max":715,"o":"m 44 665 q 71 799 44 740 q 148 900 97 858 q 272 964 199 942 q 436 986 344 986 l 715 986 l 715 958 l 618 958 l 618 -111 l 590 -111 l 590 344 l 464 344 l 464 -111 l 436 -111 l 436 344 q 272 368 344 346 q 149 431 200 390 q 72 531 99 472 q 44 665 44 590 m 72 665 q 101 535 72 589 q 181 445 131 481 q 297 392 231 410 q 436 372 363 375 l 436 958 q 165 881 258 958 q 72 665 72 804 m 590 958 l 464 958 l 464 372 l 590 372 l 590 958 z "},"·":{"ha":219,"x_min":96,"x_max":124,"o":"m 96 347 l 96 463 l 124 463 l 124 347 l 96 347 z "},"¸":{"ha":350,"x_min":32,"x_max":275,"o":"m 46 -174 q 99 -191 67 -183 q 167 -199 131 -199 q 247 -146 247 -199 q 228 -105 247 -117 q 181 -93 210 -93 q 119 -101 151 -93 q 68 -115 88 -108 l 143 15 l 168 0 l 122 -79 q 153 -72 136 -74 q 181 -71 169 -71 q 275 -146 275 -71 q 245 -206 275 -187 q 163 -225 215 -225 q 92 -217 126 -225 q 32 -199 58 -210 l 46 -174 z "},"¹":{"ha":350,"x_min":49,"x_max":319,"o":"m 319 613 l 319 586 l 68 586 l 68 613 l 183 613 l 183 1090 q 160 1070 176 1082 q 126 1049 144 1058 q 86 1032 107 1039 q 49 1025 65 1025 l 49 1051 q 94 1063 71 1051 q 138 1088 118 1074 q 169 1113 157 1101 q 183 1126 182 1125 l 211 1126 l 211 613 l 319 613 z "},"º":{"ha":625,"x_min":68,"x_max":557,"o":"m 311 488 q 215 508 260 488 q 138 562 171 528 q 87 640 106 596 q 68 735 68 685 q 87 831 68 786 q 138 910 106 876 q 215 965 171 944 q 311 985 260 985 q 408 965 363 985 q 486 910 453 944 q 538 831 519 876 q 557 735 557 786 q 538 640 557 685 q 486 562 519 596 q 408 508 453 528 q 311 488 363 488 m 99 733 q 115 648 99 688 q 161 578 132 608 q 228 531 190 549 q 311 514 267 514 q 394 532 356 514 q 463 580 433 550 q 509 650 492 610 q 526 736 526 690 q 509 822 526 782 q 463 892 492 863 q 394 940 433 922 q 311 957 356 957 q 229 940 268 957 q 161 892 190 922 q 115 820 132 861 q 99 733 99 779 z "},"»":{"ha":719,"x_min":96,"x_max":661,"o":"m 661 347 l 332 111 l 332 142 l 635 360 l 332 576 l 332 607 l 661 372 l 661 347 m 425 347 l 96 111 l 96 142 l 399 360 l 96 576 l 96 607 l 425 372 l 425 347 z "},"¼":{"ha":1035,"x_min":64,"x_max":985,"o":"m 136 15 l 911 988 l 933 971 l 158 -1 l 136 15 m 335 501 l 335 475 l 83 475 l 83 501 l 199 501 l 199 979 q 176 959 192 971 q 141 938 160 947 q 101 921 122 928 q 64 914 81 914 l 64 940 q 110 951 86 940 q 153 976 133 963 q 185 1002 172 990 q 199 1015 197 1014 l 226 1015 l 226 501 l 335 501 m 881 0 l 881 153 l 557 153 l 557 176 l 889 532 l 908 532 l 908 179 l 985 179 l 985 153 l 908 153 l 908 0 l 881 0 m 596 179 l 881 179 l 881 483 l 596 179 z "},"½":{"ha":1106,"x_min":69,"x_max":1044,"o":"m 99 15 l 874 988 l 896 971 l 121 -1 l 99 15 m 340 501 l 340 475 l 89 475 l 89 501 l 204 501 l 204 979 q 181 959 197 971 q 147 938 165 947 q 107 921 128 928 q 69 914 86 914 l 69 940 q 115 951 92 940 q 158 976 139 963 q 190 1002 178 990 q 204 1015 203 1014 l 232 1015 l 232 501 l 340 501 m 649 0 q 694 157 649 103 q 819 240 740 211 q 885 263 850 251 q 948 290 919 274 q 995 329 976 306 q 1014 389 1014 353 q 1004 435 1014 413 q 975 474 994 457 q 926 502 956 492 q 857 513 897 513 q 790 503 819 513 q 738 482 760 494 q 700 455 715 469 q 676 429 685 440 l 656 446 q 670 463 657 449 q 708 494 683 478 q 772 525 733 511 q 860 539 810 539 q 941 526 907 539 q 998 493 975 514 q 1032 444 1021 472 q 1043 388 1043 417 q 1022 319 1043 346 q 971 274 1001 292 q 905 244 940 256 q 840 222 869 232 q 754 178 786 203 q 707 126 722 153 q 688 74 692 100 q 683 26 683 47 l 1044 26 l 1044 0 l 649 0 z "},"¾":{"ha":1064,"x_min":63,"x_max":1006,"o":"m 190 15 l 965 988 l 988 971 l 213 -1 l 190 15 m 901 0 l 901 153 l 578 153 l 578 176 l 910 532 l 929 532 l 929 179 l 1006 179 l 1006 153 l 929 153 l 929 0 l 901 0 m 617 179 l 901 179 l 901 483 l 617 179 m 269 469 q 190 479 226 469 q 125 507 153 489 q 81 549 97 525 q 63 603 64 574 l 85 613 q 101 568 86 589 q 140 531 115 547 q 199 506 165 515 q 269 496 232 496 q 339 505 307 496 q 395 529 371 514 q 433 567 419 544 q 446 614 446 589 q 389 702 446 669 q 239 735 332 735 l 208 735 l 208 760 l 239 760 q 379 787 331 760 q 428 867 428 814 q 380 956 428 921 q 258 990 332 990 q 156 967 200 990 q 93 907 111 943 l 72 924 q 144 990 93 965 q 258 1015 194 1015 q 338 1004 301 1015 q 400 973 374 993 q 442 926 426 953 q 457 868 457 899 q 333 747 457 775 q 435 699 397 736 q 474 611 474 663 q 458 554 474 581 q 414 509 442 528 q 349 480 386 490 q 269 469 313 469 z "},"¿":{"ha":640,"x_min":47,"x_max":596,"o":"m 397 454 q 388 344 397 388 q 363 271 379 300 q 325 224 347 242 q 278 194 303 207 q 209 161 244 178 q 144 119 174 144 q 94 57 114 94 q 75 -40 75 19 q 94 -143 75 -100 q 147 -214 114 -186 q 220 -255 179 -242 q 306 -268 261 -268 q 388 -257 347 -268 q 463 -224 428 -246 q 525 -173 497 -203 q 571 -106 553 -143 l 596 -117 q 545 -193 576 -160 q 475 -249 514 -226 q 393 -284 436 -272 q 307 -296 350 -296 q 210 -279 257 -296 q 126 -230 163 -262 q 69 -149 90 -197 q 47 -36 47 -100 q 67 67 47 26 q 119 135 88 108 q 190 181 151 163 q 267 221 229 200 q 308 248 289 233 q 340 288 326 263 q 362 353 354 314 q 369 454 369 393 l 397 454 m 397 703 l 397 586 l 369 586 l 369 703 l 397 703 z "},"À":{"ha":936,"x_min":25,"x_max":910,"o":"m 456 986 l 481 986 l 910 0 l 879 0 l 725 353 l 210 353 l 56 0 l 25 0 l 456 986 m 713 381 l 468 946 l 221 381 l 713 381 m 374 1275 l 419 1275 l 510 1174 l 488 1157 l 374 1275 z "},"Á":{"ha":936,"x_min":25,"x_max":910,"o":"m 456 986 l 481 986 l 910 0 l 879 0 l 725 353 l 210 353 l 56 0 l 25 0 l 456 986 m 713 381 l 468 946 l 221 381 l 713 381 m 449 1157 l 426 1174 l 515 1275 l 563 1275 l 449 1157 z "},"Â":{"ha":936,"x_min":25,"x_max":910,"o":"m 456 986 l 481 986 l 910 0 l 879 0 l 725 353 l 210 353 l 56 0 l 25 0 l 456 986 m 713 381 l 468 946 l 221 381 l 713 381 m 328 1172 l 457 1275 l 479 1275 l 608 1172 l 586 1156 l 468 1243 l 350 1156 l 328 1172 z "},"Ã":{"ha":936,"x_min":25,"x_max":910,"o":"m 456 986 l 481 986 l 910 0 l 879 0 l 725 353 l 210 353 l 56 0 l 25 0 l 456 986 m 713 381 l 468 946 l 221 381 l 713 381 m 553 1182 q 499 1190 522 1182 q 457 1208 476 1199 q 419 1226 438 1218 q 379 1235 400 1235 q 343 1226 357 1235 q 322 1205 329 1217 q 311 1182 314 1193 q 308 1168 308 1171 l 281 1168 q 283 1186 281 1171 q 297 1218 286 1201 q 327 1248 307 1235 q 382 1261 347 1261 q 429 1253 408 1261 q 469 1235 450 1244 q 509 1217 489 1225 q 556 1208 529 1208 q 601 1218 585 1208 q 625 1240 617 1228 q 635 1262 633 1251 q 638 1275 638 1272 l 665 1275 q 662 1256 665 1271 q 647 1224 658 1240 q 613 1194 636 1207 q 553 1182 590 1182 z "},"Ä":{"ha":936,"x_min":25,"x_max":910,"o":"m 456 986 l 481 986 l 910 0 l 879 0 l 725 353 l 210 353 l 56 0 l 25 0 l 456 986 m 713 381 l 468 946 l 221 381 l 713 381 m 374 1168 l 374 1275 l 401 1275 l 401 1168 l 374 1168 m 535 1168 l 535 1275 l 563 1275 l 563 1168 l 535 1168 z "},"Å":{"ha":936,"x_min":25,"x_max":910,"o":"m 456 986 l 481 986 l 910 0 l 879 0 l 725 353 l 210 353 l 56 0 l 25 0 l 456 986 m 713 381 l 468 946 l 221 381 l 713 381 m 389 1196 q 412 1252 389 1229 q 468 1275 435 1275 q 524 1252 501 1275 q 547 1196 547 1229 q 524 1140 547 1163 q 468 1117 501 1117 q 412 1140 435 1117 q 389 1196 389 1163 m 468 1253 q 428 1238 444 1253 q 411 1196 411 1222 q 428 1156 411 1172 q 468 1139 444 1139 q 507 1155 489 1139 q 525 1196 525 1171 q 508 1238 525 1222 q 468 1253 492 1253 z "},"Æ":{"ha":1336,"x_min":-40,"x_max":1264,"o":"m 610 986 l 1251 986 l 1251 958 l 644 958 l 644 518 l 1176 518 l 1176 490 l 644 490 l 644 28 l 1264 28 l 1264 0 l 617 0 l 617 353 l 226 353 l -6 0 l -40 0 l 610 986 m 617 381 l 617 942 l 243 381 l 617 381 z "},"Ç":{"ha":963,"x_min":61,"x_max":910,"o":"m 425 -174 q 478 -191 446 -183 q 546 -199 510 -199 q 626 -146 626 -199 q 608 -105 626 -117 q 560 -93 589 -93 q 499 -101 531 -93 q 447 -115 467 -108 l 508 -7 q 328 40 410 -6 q 186 156 246 85 q 94 317 126 228 q 61 500 61 407 q 92 676 61 589 q 183 834 124 764 q 328 948 242 904 q 526 992 415 992 q 750 931 658 992 q 886 776 842 871 l 860 768 q 792 860 831 822 q 709 920 754 897 q 616 953 664 943 q 521 964 568 964 q 338 923 418 964 q 201 815 257 882 q 117 665 146 749 q 89 496 89 581 q 123 315 89 401 q 216 163 157 229 q 354 58 275 97 q 525 19 433 19 q 625 32 574 19 q 724 69 676 44 q 813 134 772 94 q 883 228 854 174 l 910 221 q 845 126 885 168 q 756 56 806 85 q 652 12 707 28 q 543 -7 597 -4 l 501 -79 q 532 -72 515 -74 q 560 -71 549 -71 q 654 -146 654 -71 q 624 -206 654 -187 q 542 -225 594 -225 q 472 -217 506 -225 q 411 -199 438 -210 l 425 -174 z "},"È":{"ha":857,"x_min":138,"x_max":785,"o":"m 785 28 l 785 0 l 138 0 l 138 986 l 772 986 l 772 958 l 165 958 l 165 518 l 697 518 l 697 490 l 165 490 l 165 28 l 785 28 m 383 1275 l 429 1275 l 519 1174 l 497 1157 l 383 1275 z "},"É":{"ha":857,"x_min":138,"x_max":785,"o":"m 785 28 l 785 0 l 138 0 l 138 986 l 772 986 l 772 958 l 165 958 l 165 518 l 697 518 l 697 490 l 165 490 l 165 28 l 785 28 m 458 1157 l 436 1174 l 525 1275 l 572 1275 l 458 1157 z "},"Ê":{"ha":857,"x_min":138,"x_max":785,"o":"m 785 28 l 785 0 l 138 0 l 138 986 l 772 986 l 772 958 l 165 958 l 165 518 l 697 518 l 697 490 l 165 490 l 165 28 l 785 28 m 338 1172 l 467 1275 l 489 1275 l 618 1172 l 596 1156 l 478 1243 l 360 1156 l 338 1172 z "},"Ë":{"ha":857,"x_min":138,"x_max":785,"o":"m 785 28 l 785 0 l 138 0 l 138 986 l 772 986 l 772 958 l 165 958 l 165 518 l 697 518 l 697 490 l 165 490 l 165 28 l 785 28 m 383 1168 l 383 1275 l 411 1275 l 411 1168 l 383 1168 m 544 1168 l 544 1275 l 572 1275 l 572 1168 l 544 1168 z "},"Ì":{"ha":303,"x_min":57,"x_max":193,"o":"m 138 0 l 138 986 l 165 986 l 165 0 l 138 0 m 57 1275 l 103 1275 l 193 1174 l 171 1157 l 57 1275 z "},"Í":{"ha":303,"x_min":110,"x_max":246,"o":"m 138 0 l 138 986 l 165 986 l 165 0 l 138 0 m 132 1157 l 110 1174 l 199 1275 l 246 1275 l 132 1157 z "},"Î":{"ha":303,"x_min":11,"x_max":292,"o":"m 138 0 l 138 986 l 165 986 l 165 0 l 138 0 m 11 1172 l 140 1275 l 163 1275 l 292 1172 l 269 1156 l 151 1243 l 33 1156 l 11 1172 z "},"Ï":{"ha":303,"x_min":57,"x_max":246,"o":"m 138 0 l 138 986 l 165 986 l 165 0 l 138 0 m 57 1168 l 57 1275 l 85 1275 l 85 1168 l 57 1168 m 218 1168 l 218 1275 l 246 1275 l 246 1168 l 218 1168 z "},"Ð":{"ha":997,"x_min":49,"x_max":926,"o":"m 147 0 l 147 482 l 49 482 l 49 510 l 147 510 l 147 986 l 464 986 q 667 947 581 986 q 812 842 754 908 q 898 685 869 775 q 926 494 926 596 q 894 291 926 382 q 801 135 861 200 q 656 35 742 71 q 464 0 569 0 l 147 0 m 899 494 q 870 681 899 596 q 786 827 842 765 q 649 924 731 889 q 464 958 568 958 l 175 958 l 175 510 l 442 510 l 442 482 l 175 482 l 175 28 l 464 28 q 652 63 571 28 q 788 161 733 99 q 871 309 843 224 q 899 494 899 394 z "},"Ñ":{"ha":1078,"x_min":138,"x_max":940,"o":"m 165 932 l 165 0 l 138 0 l 138 986 l 158 986 l 913 40 l 913 986 l 940 986 l 940 0 l 908 0 l 165 932 m 631 1182 q 577 1190 600 1182 q 535 1208 554 1199 q 497 1226 515 1218 q 457 1235 478 1235 q 421 1226 435 1235 q 399 1205 407 1217 q 389 1182 392 1193 q 386 1168 386 1171 l 358 1168 q 361 1186 358 1171 q 374 1218 364 1201 q 405 1248 385 1235 q 460 1261 425 1261 q 507 1253 486 1261 q 547 1235 528 1244 q 587 1217 567 1225 q 633 1208 607 1208 q 678 1218 663 1208 q 703 1240 694 1228 q 713 1262 711 1251 q 715 1275 715 1272 l 743 1275 q 740 1256 743 1271 q 725 1224 736 1240 q 691 1194 714 1207 q 631 1182 668 1182 z "},"Ò":{"ha":1051,"x_min":67,"x_max":985,"o":"m 526 -7 q 340 36 424 -7 q 194 149 256 79 q 100 308 133 218 q 67 493 67 399 q 102 682 67 592 q 199 842 138 772 q 345 952 261 911 q 526 993 429 993 q 713 949 628 993 q 858 835 797 906 q 951 674 918 764 q 985 493 985 585 q 949 303 985 393 q 852 144 914 213 q 707 34 790 75 q 526 -7 624 -7 m 94 493 q 127 316 94 401 q 217 165 160 231 q 353 60 274 99 q 526 21 432 21 q 702 62 622 21 q 838 169 782 103 q 926 321 894 236 q 957 493 957 406 q 924 670 957 585 q 833 822 892 756 q 697 926 775 888 q 526 965 618 965 q 351 924 431 965 q 214 817 271 883 q 126 665 157 750 q 94 493 94 581 m 432 1275 l 478 1275 l 568 1174 l 546 1157 l 432 1275 z "},"Ó":{"ha":1051,"x_min":67,"x_max":985,"o":"m 526 -7 q 340 36 424 -7 q 194 149 256 79 q 100 308 133 218 q 67 493 67 399 q 102 682 67 592 q 199 842 138 772 q 345 952 261 911 q 526 993 429 993 q 713 949 628 993 q 858 835 797 906 q 951 674 918 764 q 985 493 985 585 q 949 303 985 393 q 852 144 914 213 q 707 34 790 75 q 526 -7 624 -7 m 94 493 q 127 316 94 401 q 217 165 160 231 q 353 60 274 99 q 526 21 432 21 q 702 62 622 21 q 838 169 782 103 q 926 321 894 236 q 957 493 957 406 q 924 670 957 585 q 833 822 892 756 q 697 926 775 888 q 526 965 618 965 q 351 924 431 965 q 214 817 271 883 q 126 665 157 750 q 94 493 94 581 m 507 1157 l 485 1174 l 574 1275 l 621 1275 l 507 1157 z "},"Ô":{"ha":1051,"x_min":67,"x_max":985,"o":"m 526 -7 q 340 36 424 -7 q 194 149 256 79 q 100 308 133 218 q 67 493 67 399 q 102 682 67 592 q 199 842 138 772 q 345 952 261 911 q 526 993 429 993 q 713 949 628 993 q 858 835 797 906 q 951 674 918 764 q 985 493 985 585 q 949 303 985 393 q 852 144 914 213 q 707 34 790 75 q 526 -7 624 -7 m 94 493 q 127 316 94 401 q 217 165 160 231 q 353 60 274 99 q 526 21 432 21 q 702 62 622 21 q 838 169 782 103 q 926 321 894 236 q 957 493 957 406 q 924 670 957 585 q 833 822 892 756 q 697 926 775 888 q 526 965 618 965 q 351 924 431 965 q 214 817 271 883 q 126 665 157 750 q 94 493 94 581 m 386 1172 l 515 1275 l 538 1275 l 667 1172 l 644 1156 l 526 1243 l 408 1156 l 386 1172 z "},"Õ":{"ha":1051,"x_min":67,"x_max":985,"o":"m 526 -7 q 340 36 424 -7 q 194 149 256 79 q 100 308 133 218 q 67 493 67 399 q 102 682 67 592 q 199 842 138 772 q 345 952 261 911 q 526 993 429 993 q 713 949 628 993 q 858 835 797 906 q 951 674 918 764 q 985 493 985 585 q 949 303 985 393 q 852 144 914 213 q 707 34 790 75 q 526 -7 624 -7 m 94 493 q 127 316 94 401 q 217 165 160 231 q 353 60 274 99 q 526 21 432 21 q 702 62 622 21 q 838 169 782 103 q 926 321 894 236 q 957 493 957 406 q 924 670 957 585 q 833 822 892 756 q 697 926 775 888 q 526 965 618 965 q 351 924 431 965 q 214 817 271 883 q 126 665 157 750 q 94 493 94 581 m 611 1182 q 558 1190 581 1182 q 515 1208 535 1199 q 477 1226 496 1218 q 438 1235 458 1235 q 401 1226 415 1235 q 380 1205 388 1217 q 369 1182 372 1193 q 367 1168 367 1171 l 339 1168 q 342 1186 339 1171 q 355 1218 344 1201 q 385 1248 365 1235 q 440 1261 406 1261 q 488 1253 467 1261 q 528 1235 508 1244 q 567 1217 547 1225 q 614 1208 588 1208 q 659 1218 643 1208 q 683 1240 675 1228 q 694 1262 692 1251 q 696 1275 696 1272 l 724 1275 q 720 1256 724 1271 q 706 1224 717 1240 q 672 1194 694 1207 q 611 1182 649 1182 z "},"Ö":{"ha":1051,"x_min":67,"x_max":985,"o":"m 526 -7 q 340 36 424 -7 q 194 149 256 79 q 100 308 133 218 q 67 493 67 399 q 102 682 67 592 q 199 842 138 772 q 345 952 261 911 q 526 993 429 993 q 713 949 628 993 q 858 835 797 906 q 951 674 918 764 q 985 493 985 585 q 949 303 985 393 q 852 144 914 213 q 707 34 790 75 q 526 -7 624 -7 m 94 493 q 127 316 94 401 q 217 165 160 231 q 353 60 274 99 q 526 21 432 21 q 702 62 622 21 q 838 169 782 103 q 926 321 894 236 q 957 493 957 406 q 924 670 957 585 q 833 822 892 756 q 697 926 775 888 q 526 965 618 965 q 351 924 431 965 q 214 817 271 883 q 126 665 157 750 q 94 493 94 581 m 432 1168 l 432 1275 l 460 1275 l 460 1168 l 432 1168 m 593 1168 l 593 1275 l 621 1275 l 621 1168 l 593 1168 z "},"×":{"ha":611,"x_min":97,"x_max":514,"o":"m 514 188 l 493 168 l 306 356 l 118 168 l 99 189 l 285 375 l 97 564 l 118 583 l 306 396 l 494 585 l 514 564 l 325 375 l 514 188 z "},"Ø":{"ha":1051,"x_min":67,"x_max":985,"o":"m 860 986 l 800 892 q 877 810 843 856 q 935 713 911 764 q 972 605 960 661 q 985 493 985 549 q 949 303 985 393 q 852 144 914 213 q 707 34 790 75 q 526 -7 624 -7 q 391 16 454 -6 q 275 75 328 38 l 226 0 l 192 0 l 251 93 q 115 270 164 164 q 67 493 67 376 q 102 682 67 592 q 199 842 138 772 q 345 952 261 911 q 526 993 429 993 q 660 972 597 993 q 775 911 722 950 l 824 986 l 860 986 m 957 493 q 910 702 957 603 q 785 868 864 801 l 289 99 q 399 42 339 63 q 526 21 458 21 q 702 62 622 21 q 838 169 782 103 q 926 321 894 236 q 957 493 957 406 m 94 493 q 140 283 94 382 q 265 117 186 183 l 760 888 q 651 944 710 924 q 526 965 593 965 q 351 924 431 965 q 214 817 271 883 q 126 665 157 750 q 94 493 94 581 z "},"Ù":{"ha":1050,"x_min":122,"x_max":929,"o":"m 525 21 q 709 63 636 21 q 824 171 782 104 q 884 322 867 238 q 901 493 901 407 l 901 986 l 929 986 l 929 493 q 909 304 929 394 q 842 145 889 214 q 717 35 794 76 q 526 -7 640 -7 q 332 36 410 -7 q 208 150 254 79 q 142 310 161 221 q 122 493 122 400 l 122 986 l 150 986 l 150 493 q 167 319 150 404 q 228 168 185 235 q 343 61 271 101 q 525 21 415 21 m 432 1275 l 478 1275 l 568 1174 l 546 1157 l 432 1275 z "},"Ú":{"ha":1050,"x_min":122,"x_max":929,"o":"m 525 21 q 709 63 636 21 q 824 171 782 104 q 884 322 867 238 q 901 493 901 407 l 901 986 l 929 986 l 929 493 q 909 304 929 394 q 842 145 889 214 q 717 35 794 76 q 526 -7 640 -7 q 332 36 410 -7 q 208 150 254 79 q 142 310 161 221 q 122 493 122 400 l 122 986 l 150 986 l 150 493 q 167 319 150 404 q 228 168 185 235 q 343 61 271 101 q 525 21 415 21 m 507 1157 l 485 1174 l 574 1275 l 621 1275 l 507 1157 z "},"Û":{"ha":1050,"x_min":122,"x_max":929,"o":"m 525 21 q 709 63 636 21 q 824 171 782 104 q 884 322 867 238 q 901 493 901 407 l 901 986 l 929 986 l 929 493 q 909 304 929 394 q 842 145 889 214 q 717 35 794 76 q 526 -7 640 -7 q 332 36 410 -7 q 208 150 254 79 q 142 310 161 221 q 122 493 122 400 l 122 986 l 150 986 l 150 493 q 167 319 150 404 q 228 168 185 235 q 343 61 271 101 q 525 21 415 21 m 386 1172 l 515 1275 l 538 1275 l 667 1172 l 644 1156 l 526 1243 l 408 1156 l 386 1172 z "},"Ü":{"ha":1050,"x_min":122,"x_max":929,"o":"m 525 21 q 709 63 636 21 q 824 171 782 104 q 884 322 867 238 q 901 493 901 407 l 901 986 l 929 986 l 929 493 q 909 304 929 394 q 842 145 889 214 q 717 35 794 76 q 526 -7 640 -7 q 332 36 410 -7 q 208 150 254 79 q 142 310 161 221 q 122 493 122 400 l 122 986 l 150 986 l 150 493 q 167 319 150 404 q 228 168 185 235 q 343 61 271 101 q 525 21 415 21 m 432 1168 l 432 1275 l 460 1275 l 460 1168 l 432 1168 m 593 1168 l 593 1275 l 621 1275 l 621 1168 l 593 1168 z "},"Ý":{"ha":890,"x_min":32,"x_max":858,"o":"m 64 986 l 444 414 l 826 986 l 858 986 l 458 382 l 458 0 l 431 0 l 431 385 l 32 986 l 64 986 m 425 1157 l 403 1174 l 492 1275 l 539 1275 l 425 1157 z "},"Þ":{"ha":832,"x_min":138,"x_max":789,"o":"m 511 778 q 622 752 571 778 q 710 684 674 726 q 768 588 747 642 q 789 479 789 535 q 769 367 789 421 q 715 271 750 313 q 630 204 679 229 q 521 179 581 179 l 165 179 l 165 0 l 138 0 l 138 986 l 165 986 l 165 778 l 511 778 m 521 207 q 622 231 576 207 q 697 293 667 254 q 744 381 728 332 q 761 479 761 429 q 742 581 761 532 q 688 667 722 629 q 608 727 654 704 q 511 750 563 750 l 165 750 l 165 207 l 521 207 z "},"ß":{"ha":758,"x_min":117,"x_max":694,"o":"m 319 18 q 577 89 488 21 q 667 281 667 157 q 646 389 667 340 q 588 472 625 438 q 498 526 550 507 q 382 546 446 546 l 358 546 l 358 574 l 381 574 q 465 588 426 574 q 533 629 504 603 q 578 690 563 656 q 594 767 594 725 q 577 844 594 808 q 530 907 560 881 q 459 949 500 933 q 371 964 418 964 q 206 894 267 964 q 144 707 144 825 l 144 0 l 117 0 l 117 707 q 135 824 117 771 q 188 914 154 876 q 268 972 221 951 q 372 992 315 992 q 471 975 425 992 q 550 929 517 958 q 603 860 583 900 q 622 774 622 819 q 609 701 622 736 q 574 636 596 665 q 521 588 551 607 q 456 561 490 568 q 633 465 571 538 q 694 282 694 392 q 599 73 694 147 q 319 -8 503 -1 l 319 18 z "},"à":{"ha":728,"x_min":54,"x_max":643,"o":"m 288 -14 q 196 3 239 -14 q 122 51 153 21 q 72 121 90 81 q 54 207 54 161 q 76 290 54 253 q 137 355 97 328 q 231 397 176 382 q 351 413 286 413 q 478 402 414 413 q 593 372 542 392 l 593 454 q 576 556 593 510 q 528 635 560 603 q 453 686 497 668 q 357 704 410 704 q 244 681 304 704 q 124 615 185 658 l 107 638 q 357 732 246 732 q 466 713 417 732 q 549 657 515 693 q 602 569 583 621 q 621 454 621 518 l 621 56 q 643 28 621 28 l 643 0 q 624 3 628 0 q 601 23 610 8 q 593 56 593 38 l 593 122 q 463 22 543 57 q 288 -14 382 -14 m 288 14 q 458 49 381 14 q 572 142 535 83 q 593 199 593 171 l 593 342 q 351 385 482 385 q 241 372 290 385 q 156 336 192 360 q 101 280 121 313 q 82 207 82 247 q 98 131 82 167 q 142 69 114 96 q 207 28 169 43 q 288 14 244 14 m 263 1014 l 308 1014 l 399 913 l 376 896 l 263 1014 z "},"á":{"ha":728,"x_min":54,"x_max":643,"o":"m 288 -14 q 196 3 239 -14 q 122 51 153 21 q 72 121 90 81 q 54 207 54 161 q 76 290 54 253 q 137 355 97 328 q 231 397 176 382 q 351 413 286 413 q 478 402 414 413 q 593 372 542 392 l 593 454 q 576 556 593 510 q 528 635 560 603 q 453 686 497 668 q 357 704 410 704 q 244 681 304 704 q 124 615 185 658 l 107 638 q 357 732 246 732 q 466 713 417 732 q 549 657 515 693 q 602 569 583 621 q 621 454 621 518 l 621 56 q 643 28 621 28 l 643 0 q 624 3 628 0 q 601 23 610 8 q 593 56 593 38 l 593 122 q 463 22 543 57 q 288 -14 382 -14 m 288 14 q 458 49 381 14 q 572 142 535 83 q 593 199 593 171 l 593 342 q 351 385 482 385 q 241 372 290 385 q 156 336 192 360 q 101 280 121 313 q 82 207 82 247 q 98 131 82 167 q 142 69 114 96 q 207 28 169 43 q 288 14 244 14 m 338 896 l 315 913 l 404 1014 l 451 1014 l 338 896 z "},"â":{"ha":728,"x_min":54,"x_max":643,"o":"m 288 -14 q 196 3 239 -14 q 122 51 153 21 q 72 121 90 81 q 54 207 54 161 q 76 290 54 253 q 137 355 97 328 q 231 397 176 382 q 351 413 286 413 q 478 402 414 413 q 593 372 542 392 l 593 454 q 576 556 593 510 q 528 635 560 603 q 453 686 497 668 q 357 704 410 704 q 244 681 304 704 q 124 615 185 658 l 107 638 q 357 732 246 732 q 466 713 417 732 q 549 657 515 693 q 602 569 583 621 q 621 454 621 518 l 621 56 q 643 28 621 28 l 643 0 q 624 3 628 0 q 601 23 610 8 q 593 56 593 38 l 593 122 q 463 22 543 57 q 288 -14 382 -14 m 288 14 q 458 49 381 14 q 572 142 535 83 q 593 199 593 171 l 593 342 q 351 385 482 385 q 241 372 290 385 q 156 336 192 360 q 101 280 121 313 q 82 207 82 247 q 98 131 82 167 q 142 69 114 96 q 207 28 169 43 q 288 14 244 14 m 217 911 l 346 1014 l 368 1014 l 497 911 l 475 894 l 357 982 l 239 894 l 217 911 z "},"ã":{"ha":728,"x_min":54,"x_max":643,"o":"m 288 -14 q 196 3 239 -14 q 122 51 153 21 q 72 121 90 81 q 54 207 54 161 q 76 290 54 253 q 137 355 97 328 q 231 397 176 382 q 351 413 286 413 q 478 402 414 413 q 593 372 542 392 l 593 454 q 576 556 593 510 q 528 635 560 603 q 453 686 497 668 q 357 704 410 704 q 244 681 304 704 q 124 615 185 658 l 107 638 q 357 732 246 732 q 466 713 417 732 q 549 657 515 693 q 602 569 583 621 q 621 454 621 518 l 621 56 q 643 28 621 28 l 643 0 q 624 3 628 0 q 601 23 610 8 q 593 56 593 38 l 593 122 q 463 22 543 57 q 288 -14 382 -14 m 288 14 q 458 49 381 14 q 572 142 535 83 q 593 199 593 171 l 593 342 q 351 385 482 385 q 241 372 290 385 q 156 336 192 360 q 101 280 121 313 q 82 207 82 247 q 98 131 82 167 q 142 69 114 96 q 207 28 169 43 q 288 14 244 14 m 442 921 q 388 929 411 921 q 346 947 365 938 q 308 965 326 957 q 268 974 289 974 q 232 965 246 974 q 210 944 218 956 q 200 921 203 932 q 197 907 197 910 l 169 907 q 172 925 169 910 q 185 957 175 940 q 216 987 196 974 q 271 1000 236 1000 q 318 992 297 1000 q 358 974 339 983 q 398 956 378 964 q 444 947 418 947 q 490 957 474 947 q 514 978 506 967 q 524 1001 522 990 q 526 1014 526 1011 l 554 1014 q 551 994 554 1010 q 536 963 547 979 q 502 933 525 946 q 442 921 479 921 z "},"ä":{"ha":728,"x_min":54,"x_max":643,"o":"m 288 -14 q 196 3 239 -14 q 122 51 153 21 q 72 121 90 81 q 54 207 54 161 q 76 290 54 253 q 137 355 97 328 q 231 397 176 382 q 351 413 286 413 q 478 402 414 413 q 593 372 542 392 l 593 454 q 576 556 593 510 q 528 635 560 603 q 453 686 497 668 q 357 704 410 704 q 244 681 304 704 q 124 615 185 658 l 107 638 q 357 732 246 732 q 466 713 417 732 q 549 657 515 693 q 602 569 583 621 q 621 454 621 518 l 621 56 q 643 28 621 28 l 643 0 q 624 3 628 0 q 601 23 610 8 q 593 56 593 38 l 593 122 q 463 22 543 57 q 288 -14 382 -14 m 288 14 q 458 49 381 14 q 572 142 535 83 q 593 199 593 171 l 593 342 q 351 385 482 385 q 241 372 290 385 q 156 336 192 360 q 101 280 121 313 q 82 207 82 247 q 98 131 82 167 q 142 69 114 96 q 207 28 169 43 q 288 14 244 14 m 263 907 l 263 1014 l 290 1014 l 290 907 l 263 907 m 424 907 l 424 1014 l 451 1014 l 451 907 l 424 907 z "},"å":{"ha":728,"x_min":54,"x_max":643,"o":"m 288 -14 q 196 3 239 -14 q 122 51 153 21 q 72 121 90 81 q 54 207 54 161 q 76 290 54 253 q 137 355 97 328 q 231 397 176 382 q 351 413 286 413 q 478 402 414 413 q 593 372 542 392 l 593 454 q 576 556 593 510 q 528 635 560 603 q 453 686 497 668 q 357 704 410 704 q 244 681 304 704 q 124 615 185 658 l 107 638 q 357 732 246 732 q 466 713 417 732 q 549 657 515 693 q 602 569 583 621 q 621 454 621 518 l 621 56 q 643 28 621 28 l 643 0 q 624 3 628 0 q 601 23 610 8 q 593 56 593 38 l 593 122 q 463 22 543 57 q 288 -14 382 -14 m 288 14 q 458 49 381 14 q 572 142 535 83 q 593 199 593 171 l 593 342 q 351 385 482 385 q 241 372 290 385 q 156 336 192 360 q 101 280 121 313 q 82 207 82 247 q 98 131 82 167 q 142 69 114 96 q 207 28 169 43 q 288 14 244 14 m 278 935 q 301 991 278 968 q 357 1014 324 1014 q 413 991 390 1014 q 436 935 436 968 q 413 878 436 901 q 357 856 390 856 q 301 878 324 856 q 278 935 278 901 m 357 992 q 317 976 333 992 q 300 935 300 961 q 317 894 300 911 q 357 878 333 878 q 396 894 378 878 q 414 935 414 910 q 397 976 414 961 q 357 992 381 992 z "},"æ":{"ha":1289,"x_min":54,"x_max":1240,"o":"m 288 -14 q 196 3 239 -14 q 122 51 153 21 q 72 121 90 81 q 54 207 54 161 q 76 290 54 253 q 137 355 97 328 q 231 397 176 382 q 351 413 286 413 q 454 405 401 413 q 553 385 507 397 q 585 522 557 456 q 506 655 567 606 q 357 704 446 704 q 244 681 304 704 q 124 615 185 658 l 107 638 q 357 732 246 732 q 514 687 450 732 q 604 560 578 642 q 725 685 649 638 q 893 732 801 732 q 1028 703 965 732 q 1138 624 1092 674 q 1213 506 1185 574 q 1240 360 1240 438 l 1240 344 l 581 344 q 613 215 586 275 q 683 110 640 154 q 783 40 726 65 q 901 14 839 14 q 983 25 943 14 q 1057 56 1022 36 q 1118 104 1092 76 q 1160 165 1144 132 l 1186 158 q 1142 90 1171 121 q 1076 35 1114 58 q 992 -1 1038 13 q 900 -14 947 -14 q 735 32 810 -14 q 613 154 660 78 q 553 78 590 110 q 472 26 517 46 q 380 -4 428 6 q 288 -14 332 -14 m 288 14 q 458 49 381 14 q 572 142 535 83 q 593 190 589 167 q 553 356 554 267 q 351 385 457 385 q 241 372 290 385 q 156 336 192 360 q 101 280 121 313 q 82 207 82 247 q 98 131 82 167 q 142 69 114 96 q 207 28 169 43 q 288 14 244 14 m 1211 372 q 1181 506 1207 444 q 1112 610 1154 567 q 1014 679 1069 654 q 894 704 958 704 q 775 679 831 704 q 677 610 719 654 q 610 504 635 565 q 581 372 585 443 l 1211 372 z "},"ç":{"ha":747,"x_min":64,"x_max":692,"o":"m 64 364 q 90 509 64 442 q 164 626 117 576 q 274 703 211 675 q 411 732 338 732 q 574 690 503 732 q 682 571 646 647 l 654 561 q 552 666 618 628 q 407 704 486 704 q 283 678 340 704 q 183 606 226 651 q 116 497 140 560 q 92 364 92 435 q 117 229 92 293 q 185 117 142 165 q 286 42 229 69 q 408 14 343 14 q 492 26 450 14 q 570 60 535 39 q 631 108 606 81 q 664 165 656 136 l 692 157 q 653 90 679 121 q 590 37 626 60 q 510 1 554 14 q 421 -14 467 -12 l 383 -79 q 414 -72 397 -74 q 442 -71 431 -71 q 536 -146 536 -71 q 506 -206 536 -187 q 424 -225 476 -225 q 353 -217 388 -225 q 293 -199 319 -210 l 307 -174 q 360 -191 328 -183 q 428 -199 392 -199 q 508 -146 508 -199 q 490 -105 508 -117 q 442 -93 471 -93 q 381 -101 413 -93 q 329 -115 349 -108 l 388 -12 q 262 24 321 -8 q 159 106 203 56 q 90 223 115 157 q 64 364 64 289 z "},"è":{"ha":800,"x_min":64,"x_max":751,"o":"m 411 -14 q 277 16 340 -14 q 167 98 214 46 q 92 219 119 150 q 64 365 64 288 q 90 508 64 442 q 163 625 117 575 q 272 703 210 675 q 404 732 333 732 q 540 703 476 732 q 649 624 603 674 q 724 506 696 574 q 751 360 751 438 l 751 344 l 92 344 q 124 215 97 275 q 194 110 151 154 q 294 40 238 65 q 413 14 350 14 q 494 25 454 14 q 568 56 533 36 q 629 104 603 76 q 671 165 656 132 l 697 158 q 653 90 682 121 q 587 35 625 58 q 503 -1 549 13 q 411 -14 458 -14 m 722 372 q 692 506 718 444 q 623 610 665 567 q 525 679 581 654 q 406 704 469 704 q 286 679 342 704 q 188 610 231 654 q 121 504 146 565 q 92 372 96 443 l 722 372 m 311 1014 l 357 1014 l 447 913 l 425 896 l 311 1014 z "},"é":{"ha":800,"x_min":64,"x_max":751,"o":"m 411 -14 q 277 16 340 -14 q 167 98 214 46 q 92 219 119 150 q 64 365 64 288 q 90 508 64 442 q 163 625 117 575 q 272 703 210 675 q 404 732 333 732 q 540 703 476 732 q 649 624 603 674 q 724 506 696 574 q 751 360 751 438 l 751 344 l 92 344 q 124 215 97 275 q 194 110 151 154 q 294 40 238 65 q 413 14 350 14 q 494 25 454 14 q 568 56 533 36 q 629 104 603 76 q 671 165 656 132 l 697 158 q 653 90 682 121 q 587 35 625 58 q 503 -1 549 13 q 411 -14 458 -14 m 722 372 q 692 506 718 444 q 623 610 665 567 q 525 679 581 654 q 406 704 469 704 q 286 679 342 704 q 188 610 231 654 q 121 504 146 565 q 92 372 96 443 l 722 372 m 386 896 l 364 913 l 453 1014 l 500 1014 l 386 896 z "},"ê":{"ha":800,"x_min":64,"x_max":751,"o":"m 411 -14 q 277 16 340 -14 q 167 98 214 46 q 92 219 119 150 q 64 365 64 288 q 90 508 64 442 q 163 625 117 575 q 272 703 210 675 q 404 732 333 732 q 540 703 476 732 q 649 624 603 674 q 724 506 696 574 q 751 360 751 438 l 751 344 l 92 344 q 124 215 97 275 q 194 110 151 154 q 294 40 238 65 q 413 14 350 14 q 494 25 454 14 q 568 56 533 36 q 629 104 603 76 q 671 165 656 132 l 697 158 q 653 90 682 121 q 587 35 625 58 q 503 -1 549 13 q 411 -14 458 -14 m 722 372 q 692 506 718 444 q 623 610 665 567 q 525 679 581 654 q 406 704 469 704 q 286 679 342 704 q 188 610 231 654 q 121 504 146 565 q 92 372 96 443 l 722 372 m 265 911 l 394 1014 l 417 1014 l 546 911 l 524 894 l 406 982 l 288 894 l 265 911 z "},"ë":{"ha":800,"x_min":64,"x_max":751,"o":"m 411 -14 q 277 16 340 -14 q 167 98 214 46 q 92 219 119 150 q 64 365 64 288 q 90 508 64 442 q 163 625 117 575 q 272 703 210 675 q 404 732 333 732 q 540 703 476 732 q 649 624 603 674 q 724 506 696 574 q 751 360 751 438 l 751 344 l 92 344 q 124 215 97 275 q 194 110 151 154 q 294 40 238 65 q 413 14 350 14 q 494 25 454 14 q 568 56 533 36 q 629 104 603 76 q 671 165 656 132 l 697 158 q 653 90 682 121 q 587 35 625 58 q 503 -1 549 13 q 411 -14 458 -14 m 722 372 q 692 506 718 444 q 623 610 665 567 q 525 679 581 654 q 406 704 469 704 q 286 679 342 704 q 188 610 231 654 q 121 504 146 565 q 92 372 96 443 l 722 372 m 311 907 l 311 1014 l 339 1014 l 339 907 l 311 907 m 472 907 l 472 1014 l 500 1014 l 500 907 l 472 907 z "},"ì":{"ha":261,"x_min":36,"x_max":172,"o":"m 117 0 l 117 721 l 144 721 l 144 0 l 117 0 m 36 1014 l 82 1014 l 172 913 l 150 896 l 36 1014 z "},"í":{"ha":261,"x_min":89,"x_max":225,"o":"m 117 0 l 117 721 l 144 721 l 144 0 l 117 0 m 111 896 l 89 913 l 178 1014 l 225 1014 l 111 896 z "},"î":{"ha":261,"x_min":-10,"x_max":271,"o":"m 117 0 l 117 721 l 144 721 l 144 0 l 117 0 m -10 911 l 119 1014 l 142 1014 l 271 911 l 249 894 l 131 982 l 13 894 l -10 911 z "},"ï":{"ha":261,"x_min":36,"x_max":225,"o":"m 117 0 l 117 721 l 144 721 l 144 0 l 117 0 m 36 907 l 36 1014 l 64 1014 l 64 907 l 36 907 m 197 907 l 197 1014 l 225 1014 l 225 907 l 197 907 z "},"ð":{"ha":824,"x_min":67,"x_max":753,"o":"m 654 971 l 525 886 q 644 755 600 821 q 713 621 689 689 q 745 483 738 553 q 753 342 753 414 q 726 205 753 269 q 652 92 699 140 q 543 15 606 43 q 410 -14 481 -14 q 276 13 339 -14 q 167 86 214 40 q 94 193 121 132 q 67 322 67 254 q 94 452 67 390 q 168 560 121 514 q 278 633 215 606 q 410 660 340 660 q 513 645 464 660 q 603 603 563 631 q 676 540 644 576 q 725 458 707 503 q 708 559 719 508 q 671 662 696 610 q 606 767 646 714 q 506 874 565 819 l 333 760 l 319 779 l 486 889 q 306 1014 411 953 l 346 1014 q 506 901 438 960 l 640 990 l 654 971 m 94 319 q 119 201 94 257 q 187 104 144 146 q 286 38 229 63 q 408 14 343 14 q 530 40 472 14 q 631 112 588 67 q 700 217 675 157 q 725 343 725 276 q 700 454 725 401 q 632 547 675 507 q 531 609 589 586 q 410 632 474 632 q 288 607 346 632 q 188 539 231 582 q 119 440 144 496 q 94 319 94 383 z "},"ñ":{"ha":785,"x_min":117,"x_max":676,"o":"m 676 0 l 649 0 l 649 401 q 605 632 649 560 q 464 704 561 704 q 360 685 411 704 q 267 633 310 667 q 192 554 224 600 q 144 456 160 508 l 144 0 l 117 0 l 117 721 l 144 721 l 144 535 q 201 615 167 578 q 278 677 236 651 q 367 717 319 703 q 463 732 414 732 q 625 652 574 732 q 676 401 676 572 l 676 0 m 474 921 q 420 929 443 921 q 378 947 397 938 q 340 965 358 957 q 300 974 321 974 q 264 965 278 974 q 242 944 250 956 q 232 921 235 932 q 229 907 229 910 l 201 907 q 204 925 201 910 q 217 957 207 940 q 248 987 228 974 q 303 1000 268 1000 q 350 992 329 1000 q 390 974 371 983 q 430 956 410 964 q 476 947 450 947 q 522 957 506 947 q 546 978 538 967 q 556 1001 554 990 q 558 1014 558 1011 l 586 1014 q 583 994 586 1010 q 568 963 579 979 q 534 933 557 946 q 474 921 511 921 z "},"ò":{"ha":814,"x_min":64,"x_max":750,"o":"m 407 -14 q 274 16 336 -14 q 165 97 211 46 q 91 215 118 147 q 64 358 64 283 q 91 502 64 435 q 165 621 118 569 q 275 702 213 672 q 407 732 338 732 q 539 702 476 732 q 648 621 601 672 q 722 502 694 569 q 750 358 750 435 q 723 215 750 283 q 649 97 696 147 q 540 16 603 46 q 407 -14 478 -14 m 92 356 q 117 224 92 286 q 184 115 142 161 q 283 41 226 68 q 406 14 340 14 q 527 42 469 14 q 628 117 585 69 q 697 226 672 164 q 722 360 722 289 q 697 492 722 429 q 629 601 672 554 q 528 676 586 649 q 407 704 471 704 q 285 676 343 704 q 185 601 228 649 q 117 490 142 553 q 92 356 92 426 m 313 1014 l 358 1014 l 449 913 l 426 896 l 313 1014 z "},"ó":{"ha":814,"x_min":64,"x_max":750,"o":"m 407 -14 q 274 16 336 -14 q 165 97 211 46 q 91 215 118 147 q 64 358 64 283 q 91 502 64 435 q 165 621 118 569 q 275 702 213 672 q 407 732 338 732 q 539 702 476 732 q 648 621 601 672 q 722 502 694 569 q 750 358 750 435 q 723 215 750 283 q 649 97 696 147 q 540 16 603 46 q 407 -14 478 -14 m 92 356 q 117 224 92 286 q 184 115 142 161 q 283 41 226 68 q 406 14 340 14 q 527 42 469 14 q 628 117 585 69 q 697 226 672 164 q 722 360 722 289 q 697 492 722 429 q 629 601 672 554 q 528 676 586 649 q 407 704 471 704 q 285 676 343 704 q 185 601 228 649 q 117 490 142 553 q 92 356 92 426 m 388 896 l 365 913 l 454 1014 l 501 1014 l 388 896 z "},"ô":{"ha":814,"x_min":64,"x_max":750,"o":"m 407 -14 q 274 16 336 -14 q 165 97 211 46 q 91 215 118 147 q 64 358 64 283 q 91 502 64 435 q 165 621 118 569 q 275 702 213 672 q 407 732 338 732 q 539 702 476 732 q 648 621 601 672 q 722 502 694 569 q 750 358 750 435 q 723 215 750 283 q 649 97 696 147 q 540 16 603 46 q 407 -14 478 -14 m 92 356 q 117 224 92 286 q 184 115 142 161 q 283 41 226 68 q 406 14 340 14 q 527 42 469 14 q 628 117 585 69 q 697 226 672 164 q 722 360 722 289 q 697 492 722 429 q 629 601 672 554 q 528 676 586 649 q 407 704 471 704 q 285 676 343 704 q 185 601 228 649 q 117 490 142 553 q 92 356 92 426 m 267 911 l 396 1014 l 418 1014 l 547 911 l 525 894 l 407 982 l 289 894 l 267 911 z "},"õ":{"ha":814,"x_min":64,"x_max":750,"o":"m 407 -14 q 274 16 336 -14 q 165 97 211 46 q 91 215 118 147 q 64 358 64 283 q 91 502 64 435 q 165 621 118 569 q 275 702 213 672 q 407 732 338 732 q 539 702 476 732 q 648 621 601 672 q 722 502 694 569 q 750 358 750 435 q 723 215 750 283 q 649 97 696 147 q 540 16 603 46 q 407 -14 478 -14 m 92 356 q 117 224 92 286 q 184 115 142 161 q 283 41 226 68 q 406 14 340 14 q 527 42 469 14 q 628 117 585 69 q 697 226 672 164 q 722 360 722 289 q 697 492 722 429 q 629 601 672 554 q 528 676 586 649 q 407 704 471 704 q 285 676 343 704 q 185 601 228 649 q 117 490 142 553 q 92 356 92 426 m 492 921 q 438 929 461 921 q 396 947 415 938 q 358 965 376 957 q 318 974 339 974 q 282 965 296 974 q 260 944 268 956 q 250 921 253 932 q 247 907 247 910 l 219 907 q 222 925 219 910 q 235 957 225 940 q 266 987 246 974 q 321 1000 286 1000 q 368 992 347 1000 q 408 974 389 983 q 448 956 428 964 q 494 947 468 947 q 540 957 524 947 q 564 978 556 967 q 574 1001 572 990 q 576 1014 576 1011 l 604 1014 q 601 994 604 1010 q 586 963 597 979 q 552 933 575 946 q 492 921 529 921 z "},"ö":{"ha":814,"x_min":64,"x_max":750,"o":"m 407 -14 q 274 16 336 -14 q 165 97 211 46 q 91 215 118 147 q 64 358 64 283 q 91 502 64 435 q 165 621 118 569 q 275 702 213 672 q 407 732 338 732 q 539 702 476 732 q 648 621 601 672 q 722 502 694 569 q 750 358 750 435 q 723 215 750 283 q 649 97 696 147 q 540 16 603 46 q 407 -14 478 -14 m 92 356 q 117 224 92 286 q 184 115 142 161 q 283 41 226 68 q 406 14 340 14 q 527 42 469 14 q 628 117 585 69 q 697 226 672 164 q 722 360 722 289 q 697 492 722 429 q 629 601 672 554 q 528 676 586 649 q 407 704 471 704 q 285 676 343 704 q 185 601 228 649 q 117 490 142 553 q 92 356 92 426 m 313 907 l 313 1014 l 340 1014 l 340 907 l 313 907 m 474 907 l 474 1014 l 501 1014 l 501 907 l 474 907 z "},"÷":{"ha":758,"x_min":100,"x_max":660,"o":"m 365 535 l 365 624 l 393 624 l 393 535 l 365 535 m 365 128 l 365 217 l 393 217 l 393 128 l 365 128 m 100 363 l 100 390 l 660 390 l 660 363 l 100 363 z "},"ø":{"ha":814,"x_min":64,"x_max":750,"o":"m 171 0 l 206 57 q 102 188 140 110 q 64 358 64 267 q 91 502 64 435 q 165 621 118 569 q 275 702 213 672 q 407 732 338 732 q 500 717 456 732 q 583 676 544 703 l 611 721 l 647 721 l 608 658 q 711 528 672 606 q 750 358 750 450 q 723 215 750 283 q 649 97 696 147 q 540 16 603 46 q 407 -14 478 -14 q 313 0 358 -14 q 229 40 268 14 l 206 0 l 171 0 m 92 356 q 126 200 92 272 q 219 81 161 128 l 569 653 q 492 690 533 676 q 407 704 451 704 q 285 676 343 704 q 185 601 228 649 q 117 490 142 553 q 92 356 92 426 m 406 14 q 527 42 469 14 q 628 117 585 69 q 697 226 672 164 q 722 360 722 289 q 688 514 722 443 q 594 633 653 585 l 244 64 q 406 14 318 14 z "},"ù":{"ha":800,"x_min":108,"x_max":704,"o":"m 340 -14 q 108 317 108 -14 l 108 721 l 136 721 l 136 317 q 340 14 136 14 q 442 33 392 14 q 533 84 492 51 q 606 163 575 117 q 654 263 638 208 l 654 721 l 682 721 l 682 56 q 704 28 682 28 l 704 0 q 685 3 689 0 q 663 23 671 8 q 654 56 654 38 l 654 183 q 522 39 607 92 q 340 -14 438 -14 m 297 1014 l 343 1014 l 433 913 l 411 896 l 297 1014 z "},"ú":{"ha":800,"x_min":108,"x_max":704,"o":"m 340 -14 q 108 317 108 -14 l 108 721 l 136 721 l 136 317 q 340 14 136 14 q 442 33 392 14 q 533 84 492 51 q 606 163 575 117 q 654 263 638 208 l 654 721 l 682 721 l 682 56 q 704 28 682 28 l 704 0 q 685 3 689 0 q 663 23 671 8 q 654 56 654 38 l 654 183 q 522 39 607 92 q 340 -14 438 -14 m 372 896 l 350 913 l 439 1014 l 486 1014 l 372 896 z "},"û":{"ha":800,"x_min":108,"x_max":704,"o":"m 340 -14 q 108 317 108 -14 l 108 721 l 136 721 l 136 317 q 340 14 136 14 q 442 33 392 14 q 533 84 492 51 q 606 163 575 117 q 654 263 638 208 l 654 721 l 682 721 l 682 56 q 704 28 682 28 l 704 0 q 685 3 689 0 q 663 23 671 8 q 654 56 654 38 l 654 183 q 522 39 607 92 q 340 -14 438 -14 m 251 911 l 381 1014 l 403 1014 l 532 911 l 510 894 l 392 982 l 274 894 l 251 911 z "},"ü":{"ha":800,"x_min":108,"x_max":704,"o":"m 340 -14 q 108 317 108 -14 l 108 721 l 136 721 l 136 317 q 340 14 136 14 q 442 33 392 14 q 533 84 492 51 q 606 163 575 117 q 654 263 638 208 l 654 721 l 682 721 l 682 56 q 704 28 682 28 l 704 0 q 685 3 689 0 q 663 23 671 8 q 654 56 654 38 l 654 183 q 522 39 607 92 q 340 -14 438 -14 m 297 907 l 297 1014 l 325 1014 l 325 907 l 297 907 m 458 907 l 458 1014 l 486 1014 l 486 907 l 458 907 z "},"ý":{"ha":744,"x_min":29,"x_max":710,"o":"m 178 -282 q 219 -280 201 -282 q 243 -268 236 -278 q 253 -252 247 -264 q 271 -212 258 -240 q 306 -133 283 -183 q 364 0 328 -82 l 29 721 l 60 721 l 378 35 l 679 721 l 710 721 l 281 -258 q 235 -303 264 -294 q 178 -310 207 -310 l 178 -282 m 358 896 l 336 913 l 425 1014 l 472 1014 l 358 896 z "},"þ":{"ha":838,"x_min":117,"x_max":774,"o":"m 774 358 q 744 217 771 285 q 672 99 718 150 q 563 17 625 47 q 426 -14 500 -14 q 342 -1 383 -14 q 265 33 301 11 q 197 85 228 56 q 144 150 165 115 l 144 -296 l 117 -296 l 117 986 l 144 986 l 144 553 q 272 681 200 631 q 439 732 344 732 q 581 699 518 732 q 685 612 643 665 q 751 492 728 558 q 774 358 774 425 m 746 358 q 724 488 746 425 q 660 598 701 550 q 563 675 619 646 q 439 704 507 704 q 342 687 388 704 q 260 640 297 669 q 194 574 224 611 q 144 494 165 536 l 144 235 q 173 150 144 190 q 244 80 201 110 q 335 32 286 50 q 426 14 385 14 q 555 44 496 14 q 656 122 614 74 q 722 233 699 171 q 746 358 746 294 z "},"ÿ":{"ha":744,"x_min":29,"x_max":710,"o":"m 178 -282 q 219 -280 201 -282 q 243 -268 236 -278 q 253 -252 247 -264 q 271 -212 258 -240 q 306 -133 283 -183 q 364 0 328 -82 l 29 721 l 60 721 l 378 35 l 679 721 l 710 721 l 281 -258 q 235 -303 264 -294 q 178 -310 207 -310 l 178 -282 m 283 907 l 283 1014 l 311 1014 l 311 907 l 283 907 m 444 907 l 444 1014 l 472 1014 l 472 907 l 444 907 z "},"Ā":{"ha":936,"x_min":25,"x_max":910,"o":"m 456 986 l 481 986 l 910 0 l 879 0 l 725 353 l 210 353 l 56 0 l 25 0 l 456 986 m 713 381 l 468 946 l 221 381 l 713 381 m 274 1214 l 274 1242 l 663 1242 l 663 1214 l 274 1214 z "},"ā":{"ha":728,"x_min":54,"x_max":643,"o":"m 288 -14 q 196 3 239 -14 q 122 51 153 21 q 72 121 90 81 q 54 207 54 161 q 76 290 54 253 q 137 355 97 328 q 231 397 176 382 q 351 413 286 413 q 478 402 414 413 q 593 372 542 392 l 593 454 q 576 556 593 510 q 528 635 560 603 q 453 686 497 668 q 357 704 410 704 q 244 681 304 704 q 124 615 185 658 l 107 638 q 357 732 246 732 q 466 713 417 732 q 549 657 515 693 q 602 569 583 621 q 621 454 621 518 l 621 56 q 643 28 621 28 l 643 0 q 624 3 628 0 q 601 23 610 8 q 593 56 593 38 l 593 122 q 463 22 543 57 q 288 -14 382 -14 m 288 14 q 458 49 381 14 q 572 142 535 83 q 593 199 593 171 l 593 342 q 351 385 482 385 q 241 372 290 385 q 156 336 192 360 q 101 280 121 313 q 82 207 82 247 q 98 131 82 167 q 142 69 114 96 q 207 28 169 43 q 288 14 244 14 m 163 953 l 163 981 l 551 981 l 551 953 l 163 953 z "},"Ă":{"ha":936,"x_min":25,"x_max":910,"o":"m 456 986 l 481 986 l 910 0 l 879 0 l 725 353 l 210 353 l 56 0 l 25 0 l 456 986 m 713 381 l 468 946 l 221 381 l 713 381 m 468 1192 q 519 1216 496 1192 q 546 1275 542 1240 l 571 1275 q 563 1235 571 1254 q 540 1201 554 1215 q 507 1177 525 1186 q 468 1168 489 1168 q 429 1177 447 1168 q 397 1201 411 1186 q 374 1235 382 1215 q 365 1275 365 1254 l 392 1275 q 415 1217 392 1243 q 468 1192 439 1192 z "},"ă":{"ha":728,"x_min":54,"x_max":643,"o":"m 288 -14 q 196 3 239 -14 q 122 51 153 21 q 72 121 90 81 q 54 207 54 161 q 76 290 54 253 q 137 355 97 328 q 231 397 176 382 q 351 413 286 413 q 478 402 414 413 q 593 372 542 392 l 593 454 q 576 556 593 510 q 528 635 560 603 q 453 686 497 668 q 357 704 410 704 q 244 681 304 704 q 124 615 185 658 l 107 638 q 357 732 246 732 q 466 713 417 732 q 549 657 515 693 q 602 569 583 621 q 621 454 621 518 l 621 56 q 643 28 621 28 l 643 0 q 624 3 628 0 q 601 23 610 8 q 593 56 593 38 l 593 122 q 463 22 543 57 q 288 -14 382 -14 m 288 14 q 458 49 381 14 q 572 142 535 83 q 593 199 593 171 l 593 342 q 351 385 482 385 q 241 372 290 385 q 156 336 192 360 q 101 280 121 313 q 82 207 82 247 q 98 131 82 167 q 142 69 114 96 q 207 28 169 43 q 288 14 244 14 m 357 931 q 408 955 385 931 q 435 1014 431 979 l 460 1014 q 451 974 460 993 q 428 940 443 954 q 396 916 414 925 q 357 907 378 907 q 318 916 336 907 q 285 940 300 925 q 263 974 271 954 q 254 1014 254 993 l 281 1014 q 304 956 281 982 q 357 931 328 931 z "},"Ą":{"ha":935,"x_min":24,"x_max":908,"o":"m 840 -221 q 787 -190 806 -212 q 768 -136 768 -168 q 792 -69 768 -101 q 875 7 817 -36 l 724 353 l 208 353 l 54 0 l 24 0 l 454 986 l 479 986 l 908 0 q 821 -72 846 -43 q 796 -132 796 -100 q 857 -197 796 -185 l 840 -221 m 711 381 l 467 946 l 219 381 l 711 381 z "},"ą":{"ha":728,"x_min":54,"x_max":643,"o":"m 575 -221 q 522 -190 540 -212 q 503 -136 503 -168 q 528 -68 503 -101 q 613 8 553 -35 q 593 56 593 25 l 593 122 q 463 22 543 57 q 288 -14 382 -14 q 196 3 239 -14 q 122 51 153 21 q 72 121 90 81 q 54 207 54 161 q 76 290 54 253 q 137 355 97 328 q 231 397 176 382 q 351 413 286 413 q 478 402 414 413 q 593 372 542 392 l 593 454 q 576 556 593 510 q 528 635 560 603 q 453 686 497 668 q 357 704 410 704 q 244 681 304 704 q 124 615 185 658 l 107 638 q 357 732 246 732 q 466 713 417 732 q 549 657 515 693 q 602 569 583 621 q 621 454 621 518 l 621 56 q 643 28 621 28 l 643 0 q 556 -72 581 -43 q 531 -132 531 -100 q 592 -197 531 -185 l 575 -221 m 288 14 q 458 49 381 14 q 572 142 535 83 q 593 199 593 171 l 593 342 q 351 385 482 385 q 241 372 290 385 q 156 336 192 360 q 101 280 121 313 q 82 207 82 247 q 98 131 82 167 q 142 69 114 96 q 207 28 169 43 q 288 14 244 14 z "},"Ć":{"ha":968,"x_min":67,"x_max":915,"o":"m 67 500 q 98 676 67 589 q 188 834 129 764 q 334 948 247 904 q 532 992 421 992 q 756 931 664 992 q 892 776 847 871 l 865 768 q 798 860 836 822 q 715 920 760 897 q 622 953 669 943 q 526 964 574 964 q 343 923 424 964 q 207 815 263 882 q 123 665 151 749 q 94 496 94 581 q 128 315 94 401 q 222 163 163 229 q 360 58 281 97 q 531 19 439 19 q 631 32 579 19 q 730 69 682 44 q 819 134 778 94 q 889 228 860 174 l 915 221 q 847 122 890 165 q 751 50 804 79 q 640 6 699 21 q 525 -8 581 -8 q 340 36 425 -8 q 195 152 256 81 q 101 315 135 224 q 67 500 67 406 m 510 1157 l 488 1174 l 576 1275 l 624 1275 l 510 1157 z "},"ć":{"ha":747,"x_min":64,"x_max":692,"o":"m 64 364 q 90 509 64 442 q 164 626 117 576 q 274 703 211 675 q 411 732 338 732 q 574 690 503 732 q 682 571 646 647 l 654 561 q 552 666 618 628 q 407 704 486 704 q 283 678 340 704 q 183 606 226 651 q 116 497 140 560 q 92 364 92 435 q 117 229 92 293 q 185 117 142 165 q 286 42 229 69 q 408 14 343 14 q 492 26 450 14 q 570 60 535 39 q 631 108 606 81 q 664 165 656 136 l 692 157 q 652 90 679 121 q 588 35 625 58 q 505 -1 550 13 q 413 -14 460 -14 q 278 16 342 -14 q 167 97 214 46 q 92 217 119 149 q 64 364 64 286 m 388 896 l 365 913 l 454 1014 l 501 1014 l 388 896 z "},"Ĉ":{"ha":968,"x_min":67,"x_max":915,"o":"m 67 500 q 98 676 67 589 q 188 834 129 764 q 334 948 247 904 q 532 992 421 992 q 756 931 664 992 q 892 776 847 871 l 865 768 q 798 860 836 822 q 715 920 760 897 q 622 953 669 943 q 526 964 574 964 q 343 923 424 964 q 207 815 263 882 q 123 665 151 749 q 94 496 94 581 q 128 315 94 401 q 222 163 163 229 q 360 58 281 97 q 531 19 439 19 q 631 32 579 19 q 730 69 682 44 q 819 134 778 94 q 889 228 860 174 l 915 221 q 847 122 890 165 q 751 50 804 79 q 640 6 699 21 q 525 -8 581 -8 q 340 36 425 -8 q 195 152 256 81 q 101 315 135 224 q 67 500 67 406 m 389 1172 l 518 1275 l 540 1275 l 669 1172 l 647 1156 l 529 1243 l 411 1156 l 389 1172 z "},"ĉ":{"ha":747,"x_min":64,"x_max":692,"o":"m 64 364 q 90 509 64 442 q 164 626 117 576 q 274 703 211 675 q 411 732 338 732 q 574 690 503 732 q 682 571 646 647 l 654 561 q 552 666 618 628 q 407 704 486 704 q 283 678 340 704 q 183 606 226 651 q 116 497 140 560 q 92 364 92 435 q 117 229 92 293 q 185 117 142 165 q 286 42 229 69 q 408 14 343 14 q 492 26 450 14 q 570 60 535 39 q 631 108 606 81 q 664 165 656 136 l 692 157 q 652 90 679 121 q 588 35 625 58 q 505 -1 550 13 q 413 -14 460 -14 q 278 16 342 -14 q 167 97 214 46 q 92 217 119 149 q 64 364 64 286 m 267 911 l 396 1014 l 418 1014 l 547 911 l 525 894 l 407 982 l 289 894 l 267 911 z "},"Ċ":{"ha":968,"x_min":67,"x_max":915,"o":"m 67 500 q 98 676 67 589 q 188 834 129 764 q 334 948 247 904 q 532 992 421 992 q 756 931 664 992 q 892 776 847 871 l 865 768 q 798 860 836 822 q 715 920 760 897 q 622 953 669 943 q 526 964 574 964 q 343 923 424 964 q 207 815 263 882 q 123 665 151 749 q 94 496 94 581 q 128 315 94 401 q 222 163 163 229 q 360 58 281 97 q 531 19 439 19 q 631 32 579 19 q 730 69 682 44 q 819 134 778 94 q 889 228 860 174 l 915 221 q 847 122 890 165 q 751 50 804 79 q 640 6 699 21 q 525 -8 581 -8 q 340 36 425 -8 q 195 152 256 81 q 101 315 135 224 q 67 500 67 406 m 515 1168 l 515 1275 l 543 1275 l 543 1168 l 515 1168 z "},"ċ":{"ha":747,"x_min":64,"x_max":692,"o":"m 64 364 q 90 509 64 442 q 164 626 117 576 q 274 703 211 675 q 411 732 338 732 q 574 690 503 732 q 682 571 646 647 l 654 561 q 552 666 618 628 q 407 704 486 704 q 283 678 340 704 q 183 606 226 651 q 116 497 140 560 q 92 364 92 435 q 117 229 92 293 q 185 117 142 165 q 286 42 229 69 q 408 14 343 14 q 492 26 450 14 q 570 60 535 39 q 631 108 606 81 q 664 165 656 136 l 692 157 q 652 90 679 121 q 588 35 625 58 q 505 -1 550 13 q 413 -14 460 -14 q 278 16 342 -14 q 167 97 214 46 q 92 217 119 149 q 64 364 64 286 m 393 907 l 393 1014 l 421 1014 l 421 907 l 393 907 z "},"Č":{"ha":968,"x_min":67,"x_max":915,"o":"m 67 500 q 98 676 67 589 q 188 834 129 764 q 334 948 247 904 q 532 992 421 992 q 756 931 664 992 q 892 776 847 871 l 865 768 q 798 860 836 822 q 715 920 760 897 q 622 953 669 943 q 526 964 574 964 q 343 923 424 964 q 207 815 263 882 q 123 665 151 749 q 94 496 94 581 q 128 315 94 401 q 222 163 163 229 q 360 58 281 97 q 531 19 439 19 q 631 32 579 19 q 730 69 682 44 q 819 134 778 94 q 889 228 860 174 l 915 221 q 847 122 890 165 q 751 50 804 79 q 640 6 699 21 q 525 -8 581 -8 q 340 36 425 -8 q 195 152 256 81 q 101 315 135 224 q 67 500 67 406 m 411 1275 l 529 1188 l 647 1275 l 669 1258 l 540 1156 l 518 1156 l 389 1258 l 411 1275 z "},"č":{"ha":747,"x_min":64,"x_max":692,"o":"m 64 364 q 90 509 64 442 q 164 626 117 576 q 274 703 211 675 q 411 732 338 732 q 574 690 503 732 q 682 571 646 647 l 654 561 q 552 666 618 628 q 407 704 486 704 q 283 678 340 704 q 183 606 226 651 q 116 497 140 560 q 92 364 92 435 q 117 229 92 293 q 185 117 142 165 q 286 42 229 69 q 408 14 343 14 q 492 26 450 14 q 570 60 535 39 q 631 108 606 81 q 664 165 656 136 l 692 157 q 652 90 679 121 q 588 35 625 58 q 505 -1 550 13 q 413 -14 460 -14 q 278 16 342 -14 q 167 97 214 46 q 92 217 119 149 q 64 364 64 286 m 289 1014 l 407 926 l 525 1014 l 547 997 l 418 894 l 396 894 l 267 997 l 289 1014 z "},"Ď":{"ha":988,"x_min":138,"x_max":917,"o":"m 138 0 l 138 986 l 454 986 q 658 947 571 986 q 802 842 744 908 q 888 685 860 775 q 917 494 917 596 q 884 291 917 382 q 792 135 851 200 q 646 35 732 71 q 454 0 560 0 l 138 0 m 889 494 q 860 681 889 596 q 776 827 832 765 q 640 924 721 889 q 454 958 558 958 l 165 958 l 165 28 l 454 28 q 642 63 561 28 q 778 161 724 99 q 861 309 833 224 q 889 494 889 394 m 372 1275 l 490 1188 l 608 1275 l 631 1258 l 501 1156 l 479 1156 l 350 1258 l 372 1275 z "},"ď":{"ha":839,"x_min":64,"x_max":917,"o":"m 411 -14 q 272 18 336 -14 q 162 103 208 50 q 90 222 115 156 q 64 358 64 289 q 89 501 64 433 q 159 619 114 568 q 265 701 204 671 q 399 732 326 732 q 492 717 449 732 q 574 678 536 703 q 641 622 611 654 q 693 553 671 589 l 693 1014 l 721 1014 l 721 56 q 743 28 721 28 l 743 0 q 725 3 731 0 q 701 24 710 10 q 693 56 693 39 l 693 150 q 638 84 669 114 q 570 32 607 54 q 493 -2 533 10 q 411 -14 453 -14 m 411 14 q 501 32 453 14 q 592 80 550 50 q 662 150 633 110 q 693 235 690 190 l 693 494 q 646 576 678 538 q 574 642 614 614 q 488 688 533 671 q 399 704 442 704 q 272 674 328 704 q 175 596 215 644 q 113 485 135 547 q 92 358 92 422 q 117 228 92 290 q 185 119 142 167 q 286 42 228 71 q 411 14 344 14 m 803 896 l 781 913 l 869 1014 l 917 1014 l 803 896 z "},"Đ":{"ha":997,"x_min":49,"x_max":926,"o":"m 147 0 l 147 482 l 49 482 l 49 510 l 147 510 l 147 986 l 464 986 q 667 947 581 986 q 812 842 754 908 q 898 685 869 775 q 926 494 926 596 q 894 291 926 382 q 801 135 861 200 q 656 35 742 71 q 464 0 569 0 l 147 0 m 899 494 q 870 681 899 596 q 786 827 842 765 q 649 924 731 889 q 464 958 568 958 l 175 958 l 175 510 l 442 510 l 442 482 l 175 482 l 175 28 l 464 28 q 652 63 571 28 q 788 161 733 99 q 871 309 843 224 q 899 494 899 394 z "},"đ":{"ha":839,"x_min":64,"x_max":826,"o":"m 411 -14 q 272 18 336 -14 q 162 103 208 50 q 90 222 115 156 q 64 358 64 289 q 89 501 64 433 q 159 619 114 568 q 265 701 204 671 q 399 732 326 732 q 492 717 449 732 q 574 678 536 703 q 641 622 611 654 q 693 553 671 589 l 693 879 l 521 879 l 521 907 l 693 907 l 693 1014 l 721 1014 l 721 907 l 826 907 l 826 879 l 721 879 l 721 56 q 743 28 721 28 l 743 0 q 725 3 731 0 q 701 24 710 10 q 693 56 693 39 l 693 150 q 638 84 669 114 q 570 32 607 54 q 493 -2 533 10 q 411 -14 453 -14 m 411 14 q 501 32 453 14 q 592 80 550 50 q 662 150 633 110 q 693 235 690 190 l 693 494 q 646 576 678 538 q 574 642 614 614 q 488 688 533 671 q 399 704 442 704 q 272 674 328 704 q 175 596 215 644 q 113 485 135 547 q 92 358 92 422 q 117 228 92 290 q 185 119 142 167 q 286 42 228 71 q 411 14 344 14 z "},"Ē":{"ha":857,"x_min":138,"x_max":785,"o":"m 785 28 l 785 0 l 138 0 l 138 986 l 772 986 l 772 958 l 165 958 l 165 518 l 697 518 l 697 490 l 165 490 l 165 28 l 785 28 m 283 1214 l 283 1242 l 672 1242 l 672 1214 l 283 1214 z "},"ē":{"ha":800,"x_min":64,"x_max":751,"o":"m 411 -14 q 277 16 340 -14 q 167 98 214 46 q 92 219 119 150 q 64 365 64 288 q 90 508 64 442 q 163 625 117 575 q 272 703 210 675 q 404 732 333 732 q 540 703 476 732 q 649 624 603 674 q 724 506 696 574 q 751 360 751 438 l 751 344 l 92 344 q 124 215 97 275 q 194 110 151 154 q 294 40 238 65 q 413 14 350 14 q 494 25 454 14 q 568 56 533 36 q 629 104 603 76 q 671 165 656 132 l 697 158 q 653 90 682 121 q 587 35 625 58 q 503 -1 549 13 q 411 -14 458 -14 m 722 372 q 692 506 718 444 q 623 610 665 567 q 525 679 581 654 q 406 704 469 704 q 286 679 342 704 q 188 610 231 654 q 121 504 146 565 q 92 372 96 443 l 722 372 m 211 953 l 211 981 l 600 981 l 600 953 l 211 953 z "},"Ĕ":{"ha":857,"x_min":138,"x_max":785,"o":"m 785 28 l 785 0 l 138 0 l 138 986 l 772 986 l 772 958 l 165 958 l 165 518 l 697 518 l 697 490 l 165 490 l 165 28 l 785 28 m 478 1192 q 528 1216 506 1192 q 556 1275 551 1240 l 581 1275 q 572 1235 581 1254 q 549 1201 564 1215 q 517 1177 535 1186 q 478 1168 499 1168 q 439 1177 457 1168 q 406 1201 421 1186 q 383 1235 392 1215 q 375 1275 375 1254 l 401 1275 q 425 1217 401 1243 q 478 1192 449 1192 z "},"ĕ":{"ha":800,"x_min":64,"x_max":751,"o":"m 411 -14 q 277 16 340 -14 q 167 98 214 46 q 92 219 119 150 q 64 365 64 288 q 90 508 64 442 q 163 625 117 575 q 272 703 210 675 q 404 732 333 732 q 540 703 476 732 q 649 624 603 674 q 724 506 696 574 q 751 360 751 438 l 751 344 l 92 344 q 124 215 97 275 q 194 110 151 154 q 294 40 238 65 q 413 14 350 14 q 494 25 454 14 q 568 56 533 36 q 629 104 603 76 q 671 165 656 132 l 697 158 q 653 90 682 121 q 587 35 625 58 q 503 -1 549 13 q 411 -14 458 -14 m 722 372 q 692 506 718 444 q 623 610 665 567 q 525 679 581 654 q 406 704 469 704 q 286 679 342 704 q 188 610 231 654 q 121 504 146 565 q 92 372 96 443 l 722 372 m 406 931 q 456 955 433 931 q 483 1014 479 979 l 508 1014 q 500 974 508 993 q 477 940 492 954 q 444 916 463 925 q 406 907 426 907 q 367 916 385 907 q 334 940 349 925 q 311 974 319 954 q 303 1014 303 993 l 329 1014 q 353 956 329 982 q 406 931 376 931 z "},"Ė":{"ha":857,"x_min":138,"x_max":785,"o":"m 785 28 l 785 0 l 138 0 l 138 986 l 772 986 l 772 958 l 165 958 l 165 518 l 697 518 l 697 490 l 165 490 l 165 28 l 785 28 m 464 1168 l 464 1275 l 492 1275 l 492 1168 l 464 1168 z "},"ė":{"ha":800,"x_min":64,"x_max":751,"o":"m 411 -14 q 277 16 340 -14 q 167 98 214 46 q 92 219 119 150 q 64 365 64 288 q 90 508 64 442 q 163 625 117 575 q 272 703 210 675 q 404 732 333 732 q 540 703 476 732 q 649 624 603 674 q 724 506 696 574 q 751 360 751 438 l 751 344 l 92 344 q 124 215 97 275 q 194 110 151 154 q 294 40 238 65 q 413 14 350 14 q 494 25 454 14 q 568 56 533 36 q 629 104 603 76 q 671 165 656 132 l 697 158 q 653 90 682 121 q 587 35 625 58 q 503 -1 549 13 q 411 -14 458 -14 m 722 372 q 692 506 718 444 q 623 610 665 567 q 525 679 581 654 q 406 704 469 704 q 286 679 342 704 q 188 610 231 654 q 121 504 146 565 q 92 372 96 443 l 722 372 m 392 907 l 392 1014 l 419 1014 l 419 907 l 392 907 z "},"Ę":{"ha":857,"x_min":138,"x_max":785,"o":"m 717 -221 q 663 -190 682 -212 q 644 -136 644 -168 q 667 -72 644 -103 q 742 0 689 -40 l 138 0 l 138 986 l 772 986 l 772 958 l 165 958 l 165 518 l 697 518 l 697 490 l 165 490 l 165 28 l 785 28 l 785 0 q 697 -72 722 -43 q 672 -132 672 -100 q 733 -197 672 -185 l 717 -221 l 717 -221 z "},"ę":{"ha":800,"x_min":64,"x_max":751,"o":"m 371 -233 q 317 -203 336 -225 q 299 -149 299 -181 q 321 -85 299 -117 q 394 -14 343 -54 q 265 22 325 -10 q 160 104 206 53 q 90 223 115 156 q 64 365 64 290 q 90 508 64 442 q 163 625 117 575 q 272 703 210 675 q 404 732 333 732 q 540 703 476 732 q 649 624 603 674 q 724 506 696 574 q 751 360 751 438 l 751 344 l 92 344 q 124 215 97 275 q 194 110 151 154 q 294 40 238 65 q 413 14 350 14 q 494 25 454 14 q 568 56 533 36 q 629 104 603 76 q 671 165 656 132 l 697 158 q 658 94 683 124 q 598 42 632 65 q 523 6 564 19 q 439 -12 482 -8 q 351 -84 376 -56 q 326 -144 326 -112 q 388 -210 326 -197 l 371 -233 m 722 372 q 692 506 718 444 q 623 610 665 567 q 525 679 581 654 q 406 704 469 704 q 286 679 342 704 q 188 610 231 654 q 121 504 146 565 q 92 372 96 443 l 722 372 z "},"Ě":{"ha":857,"x_min":138,"x_max":785,"o":"m 785 28 l 785 0 l 138 0 l 138 986 l 772 986 l 772 958 l 165 958 l 165 518 l 697 518 l 697 490 l 165 490 l 165 28 l 785 28 m 360 1275 l 478 1188 l 596 1275 l 618 1258 l 489 1156 l 467 1156 l 338 1258 l 360 1275 z "},"ě":{"ha":800,"x_min":64,"x_max":751,"o":"m 411 -14 q 277 16 340 -14 q 167 98 214 46 q 92 219 119 150 q 64 365 64 288 q 90 508 64 442 q 163 625 117 575 q 272 703 210 675 q 404 732 333 732 q 540 703 476 732 q 649 624 603 674 q 724 506 696 574 q 751 360 751 438 l 751 344 l 92 344 q 124 215 97 275 q 194 110 151 154 q 294 40 238 65 q 413 14 350 14 q 494 25 454 14 q 568 56 533 36 q 629 104 603 76 q 671 165 656 132 l 697 158 q 653 90 682 121 q 587 35 625 58 q 503 -1 549 13 q 411 -14 458 -14 m 722 372 q 692 506 718 444 q 623 610 665 567 q 525 679 581 654 q 406 704 469 704 q 286 679 342 704 q 188 610 231 654 q 121 504 146 565 q 92 372 96 443 l 722 372 m 288 1014 l 406 926 l 524 1014 l 546 997 l 417 894 l 394 894 l 265 997 l 288 1014 z "},"Ĝ":{"ha":1000,"x_min":67,"x_max":915,"o":"m 888 168 q 532 -7 733 -7 q 344 37 429 -7 q 197 151 258 81 q 101 312 135 222 q 67 493 67 401 q 100 679 67 589 q 192 840 133 769 q 334 951 251 910 q 515 993 417 993 q 651 977 592 993 q 757 933 711 961 q 835 865 803 904 q 892 778 868 825 l 865 769 q 719 919 808 874 q 515 965 631 965 q 340 924 418 965 q 208 817 263 883 q 124 665 153 750 q 94 493 94 581 q 128 315 94 400 q 222 164 163 229 q 361 60 282 99 q 532 21 440 21 q 717 65 629 21 q 888 207 804 110 l 888 442 l 656 442 l 656 469 l 915 469 l 915 0 l 888 0 l 888 168 m 374 1172 l 503 1275 l 525 1275 l 654 1172 l 632 1156 l 514 1243 l 396 1156 l 374 1172 z "},"ĝ":{"ha":838,"x_min":64,"x_max":721,"o":"m 411 -14 q 272 18 336 -14 q 162 103 208 50 q 90 222 115 156 q 64 358 64 289 q 88 498 64 431 q 157 617 113 565 q 263 701 201 669 q 399 732 325 732 q 490 718 447 732 q 569 680 532 704 q 636 623 606 656 q 693 553 667 590 l 693 721 l 721 721 l 721 -31 q 694 -154 721 -101 q 624 -242 668 -207 q 522 -293 579 -276 q 403 -310 464 -310 q 203 -262 275 -310 q 90 -137 131 -215 l 117 -129 q 238 -247 161 -211 q 403 -282 315 -282 q 515 -266 463 -282 q 608 -218 568 -250 q 670 -140 647 -186 q 693 -31 693 -93 l 693 150 q 638 84 669 114 q 570 32 607 54 q 493 -2 533 10 q 411 -14 453 -14 m 411 14 q 512 34 463 14 q 600 86 561 54 q 665 157 639 118 q 693 235 690 196 l 693 494 q 645 578 676 540 q 575 644 614 617 q 490 688 536 672 q 399 704 444 704 q 268 673 325 704 q 172 592 211 642 q 113 481 133 543 q 92 358 92 419 q 117 228 92 290 q 185 119 142 167 q 286 42 228 71 q 411 14 344 14 m 296 911 l 425 1014 l 447 1014 l 576 911 l 554 894 l 436 982 l 318 894 l 296 911 z "},"Ğ":{"ha":1000,"x_min":67,"x_max":915,"o":"m 888 168 q 532 -7 733 -7 q 344 37 429 -7 q 197 151 258 81 q 101 312 135 222 q 67 493 67 401 q 100 679 67 589 q 192 840 133 769 q 334 951 251 910 q 515 993 417 993 q 651 977 592 993 q 757 933 711 961 q 835 865 803 904 q 892 778 868 825 l 865 769 q 719 919 808 874 q 515 965 631 965 q 340 924 418 965 q 208 817 263 883 q 124 665 153 750 q 94 493 94 581 q 128 315 94 400 q 222 164 163 229 q 361 60 282 99 q 532 21 440 21 q 717 65 629 21 q 888 207 804 110 l 888 442 l 656 442 l 656 469 l 915 469 l 915 0 l 888 0 l 888 168 m 514 1192 q 565 1216 542 1192 q 592 1275 588 1240 l 617 1275 q 608 1235 617 1254 q 585 1201 600 1215 q 553 1177 571 1186 q 514 1168 535 1168 q 475 1177 493 1168 q 442 1201 457 1186 q 419 1235 428 1215 q 411 1275 411 1254 l 438 1275 q 461 1217 438 1243 q 514 1192 485 1192 z "},"ğ":{"ha":838,"x_min":64,"x_max":721,"o":"m 411 -14 q 272 18 336 -14 q 162 103 208 50 q 90 222 115 156 q 64 358 64 289 q 88 498 64 431 q 157 617 113 565 q 263 701 201 669 q 399 732 325 732 q 490 718 447 732 q 569 680 532 704 q 636 623 606 656 q 693 553 667 590 l 693 721 l 721 721 l 721 -31 q 694 -154 721 -101 q 624 -242 668 -207 q 522 -293 579 -276 q 403 -310 464 -310 q 203 -262 275 -310 q 90 -137 131 -215 l 117 -129 q 238 -247 161 -211 q 403 -282 315 -282 q 515 -266 463 -282 q 608 -218 568 -250 q 670 -140 647 -186 q 693 -31 693 -93 l 693 150 q 638 84 669 114 q 570 32 607 54 q 493 -2 533 10 q 411 -14 453 -14 m 411 14 q 512 34 463 14 q 600 86 561 54 q 665 157 639 118 q 693 235 690 196 l 693 494 q 645 578 676 540 q 575 644 614 617 q 490 688 536 672 q 399 704 444 704 q 268 673 325 704 q 172 592 211 642 q 113 481 133 543 q 92 358 92 419 q 117 228 92 290 q 185 119 142 167 q 286 42 228 71 q 411 14 344 14 m 436 931 q 487 955 464 931 q 514 1014 510 979 l 539 1014 q 531 974 539 993 q 508 940 522 954 q 475 916 493 925 q 436 907 457 907 q 397 916 415 907 q 365 940 379 925 q 342 974 350 954 q 333 1014 333 993 l 360 1014 q 383 956 360 982 q 436 931 407 931 z "},"Ġ":{"ha":1000,"x_min":67,"x_max":915,"o":"m 888 168 q 532 -7 733 -7 q 344 37 429 -7 q 197 151 258 81 q 101 312 135 222 q 67 493 67 401 q 100 679 67 589 q 192 840 133 769 q 334 951 251 910 q 515 993 417 993 q 651 977 592 993 q 757 933 711 961 q 835 865 803 904 q 892 778 868 825 l 865 769 q 719 919 808 874 q 515 965 631 965 q 340 924 418 965 q 208 817 263 883 q 124 665 153 750 q 94 493 94 581 q 128 315 94 400 q 222 164 163 229 q 361 60 282 99 q 532 21 440 21 q 717 65 629 21 q 888 207 804 110 l 888 442 l 656 442 l 656 469 l 915 469 l 915 0 l 888 0 l 888 168 m 500 1168 l 500 1275 l 528 1275 l 528 1168 l 500 1168 z "},"ġ":{"ha":838,"x_min":64,"x_max":721,"o":"m 411 -14 q 272 18 336 -14 q 162 103 208 50 q 90 222 115 156 q 64 358 64 289 q 88 498 64 431 q 157 617 113 565 q 263 701 201 669 q 399 732 325 732 q 490 718 447 732 q 569 680 532 704 q 636 623 606 656 q 693 553 667 590 l 693 721 l 721 721 l 721 -31 q 694 -154 721 -101 q 624 -242 668 -207 q 522 -293 579 -276 q 403 -310 464 -310 q 203 -262 275 -310 q 90 -137 131 -215 l 117 -129 q 238 -247 161 -211 q 403 -282 315 -282 q 515 -266 463 -282 q 608 -218 568 -250 q 670 -140 647 -186 q 693 -31 693 -93 l 693 150 q 638 84 669 114 q 570 32 607 54 q 493 -2 533 10 q 411 -14 453 -14 m 411 14 q 512 34 463 14 q 600 86 561 54 q 665 157 639 118 q 693 235 690 196 l 693 494 q 645 578 676 540 q 575 644 614 617 q 490 688 536 672 q 399 704 444 704 q 268 673 325 704 q 172 592 211 642 q 113 481 133 543 q 92 358 92 419 q 117 228 92 290 q 185 119 142 167 q 286 42 228 71 q 411 14 344 14 m 422 907 l 422 1014 l 450 1014 l 450 907 l 422 907 z "},"Ģ":{"ha":1000,"x_min":67,"x_max":915,"o":"m 888 168 q 532 -7 733 -7 q 344 37 429 -7 q 197 151 258 81 q 101 312 135 222 q 67 493 67 401 q 100 679 67 589 q 192 840 133 769 q 334 951 251 910 q 515 993 417 993 q 651 977 592 993 q 757 933 711 961 q 835 865 803 904 q 892 778 868 825 l 865 769 q 719 919 808 874 q 515 965 631 965 q 340 924 418 965 q 208 817 263 883 q 124 665 153 750 q 94 493 94 581 q 128 315 94 400 q 222 164 163 229 q 361 60 282 99 q 532 21 440 21 q 717 65 629 21 q 888 207 804 110 l 888 442 l 656 442 l 656 469 l 915 469 l 915 0 l 888 0 l 888 168 m 507 -232 l 521 -151 l 508 -151 l 508 -69 l 544 -69 l 544 -151 l 526 -232 l 507 -232 z "},"ģ":{"ha":838,"x_min":64,"x_max":721,"o":"m 411 -14 q 272 18 336 -14 q 162 103 208 50 q 90 222 115 156 q 64 358 64 289 q 88 498 64 431 q 157 617 113 565 q 263 701 201 669 q 399 732 325 732 q 490 718 447 732 q 569 680 532 704 q 636 623 606 656 q 693 553 667 590 l 693 721 l 721 721 l 721 -31 q 694 -154 721 -101 q 624 -242 668 -207 q 522 -293 579 -276 q 403 -310 464 -310 q 203 -262 275 -310 q 90 -137 131 -215 l 117 -129 q 238 -247 161 -211 q 403 -282 315 -282 q 515 -266 463 -282 q 608 -218 568 -250 q 670 -140 647 -186 q 693 -31 693 -93 l 693 150 q 638 84 669 114 q 570 32 607 54 q 493 -2 533 10 q 411 -14 453 -14 m 411 14 q 512 34 463 14 q 600 86 561 54 q 665 157 639 118 q 693 235 690 196 l 693 494 q 645 578 676 540 q 575 644 614 617 q 490 688 536 672 q 399 704 444 704 q 268 673 325 704 q 172 592 211 642 q 113 481 133 543 q 92 358 92 419 q 117 228 92 290 q 185 119 142 167 q 286 42 228 71 q 411 14 344 14 m 421 1014 l 407 933 l 419 933 l 419 851 l 383 851 l 383 933 l 401 1014 l 421 1014 z "},"Ĥ":{"ha":1015,"x_min":138,"x_max":878,"o":"m 878 986 l 878 0 l 850 0 l 850 490 l 165 490 l 165 0 l 138 0 l 138 986 l 165 986 l 165 518 l 850 518 l 850 986 l 878 986 m 369 1172 l 499 1275 l 521 1275 l 650 1172 l 628 1156 l 510 1243 l 392 1156 l 369 1172 z "},"ĥ":{"ha":785,"x_min":117,"x_max":676,"o":"m 676 0 l 649 0 l 649 401 q 449 704 649 704 q 350 685 399 704 q 260 632 301 665 q 189 553 219 599 q 144 456 158 508 l 144 0 l 117 0 l 117 1014 l 144 1014 l 144 535 q 199 616 167 579 q 272 678 232 653 q 356 718 311 704 q 447 732 401 732 q 618 649 560 732 q 676 401 676 565 l 676 0 m 279 910 l 408 1013 l 431 1013 l 560 910 l 538 893 l 419 981 l 301 893 l 279 910 z "},"Ħ":{"ha":1029,"x_min":75,"x_max":954,"o":"m 885 986 l 885 797 l 954 797 l 954 769 l 885 769 l 885 0 l 857 0 l 857 490 l 172 490 l 172 0 l 144 0 l 144 769 l 75 769 l 75 797 l 144 797 l 144 986 l 172 986 l 172 797 l 857 797 l 857 986 l 885 986 m 857 518 l 857 769 l 172 769 l 172 518 l 857 518 z "},"ħ":{"ha":785,"x_min":14,"x_max":676,"o":"m 676 0 l 649 0 l 649 401 q 449 704 649 704 q 350 685 399 704 q 260 632 301 665 q 189 553 219 599 q 144 456 158 508 l 144 0 l 117 0 l 117 879 l 14 879 l 14 907 l 117 907 l 117 1014 l 144 1014 l 144 907 l 319 907 l 319 879 l 144 879 l 144 535 q 199 616 167 579 q 272 678 232 653 q 356 718 311 704 q 447 732 401 732 q 618 649 560 732 q 676 401 676 565 l 676 0 z "},"Ĩ":{"ha":303,"x_min":-36,"x_max":349,"o":"m 138 0 l 138 986 l 165 986 l 165 0 l 138 0 m 236 1182 q 183 1190 206 1182 q 140 1208 160 1199 q 102 1226 121 1218 q 63 1235 83 1235 q 26 1226 40 1235 q 5 1205 13 1217 q -6 1182 -3 1193 q -8 1168 -8 1171 l -36 1168 q -33 1186 -36 1171 q -20 1218 -31 1201 q 10 1248 -10 1235 q 65 1261 31 1261 q 113 1253 92 1261 q 153 1235 133 1244 q 192 1217 172 1225 q 239 1208 213 1208 q 284 1218 268 1208 q 308 1240 300 1228 q 319 1262 317 1251 q 321 1275 321 1272 l 349 1275 q 345 1256 349 1271 q 331 1224 342 1240 q 297 1194 319 1207 q 236 1182 274 1182 z "},"ĩ":{"ha":261,"x_min":-57,"x_max":328,"o":"m 117 0 l 117 721 l 144 721 l 144 0 l 117 0 m 215 921 q 162 929 185 921 q 119 947 139 938 q 81 965 100 957 q 42 974 63 974 q 6 965 19 974 q -16 944 -8 956 q -26 921 -24 932 q -29 907 -29 910 l -57 907 q -54 925 -57 910 q -41 957 -51 940 q -10 987 -31 974 q 44 1000 10 1000 q 92 992 71 1000 q 132 974 113 983 q 172 956 151 964 q 218 947 192 947 q 263 957 247 947 q 288 978 279 967 q 298 1001 296 990 q 300 1014 300 1011 l 328 1014 q 324 994 328 1010 q 310 963 321 979 q 276 933 299 946 q 215 921 253 921 z "},"Ī":{"ha":303,"x_min":-43,"x_max":346,"o":"m 138 0 l 138 986 l 165 986 l 165 0 l 138 0 m -43 1214 l -43 1242 l 346 1242 l 346 1214 l -43 1214 z "},"ī":{"ha":261,"x_min":-64,"x_max":325,"o":"m 117 0 l 117 721 l 144 721 l 144 0 l 117 0 m -64 953 l -64 981 l 325 981 l 325 953 l -64 953 z "},"Ĭ":{"ha":303,"x_min":49,"x_max":254,"o":"m 138 0 l 138 986 l 165 986 l 165 0 l 138 0 m 151 1192 q 202 1216 179 1192 q 229 1275 225 1240 l 254 1275 q 246 1235 254 1254 q 223 1201 238 1215 q 190 1177 208 1186 q 151 1168 172 1168 q 113 1177 131 1168 q 80 1201 94 1186 q 57 1235 65 1215 q 49 1275 49 1254 l 75 1275 q 99 1217 75 1243 q 151 1192 122 1192 z "},"ĭ":{"ha":261,"x_min":28,"x_max":233,"o":"m 117 0 l 117 721 l 144 721 l 144 0 l 117 0 m 131 931 q 181 955 158 931 q 208 1014 204 979 l 233 1014 q 225 974 233 993 q 202 940 217 954 q 169 916 188 925 q 131 907 151 907 q 92 916 110 907 q 59 940 74 925 q 36 974 44 954 q 28 1014 28 993 l 54 1014 q 78 956 54 982 q 131 931 101 931 z "},"Į":{"ha":303,"x_min":25,"x_max":165,"o":"m 97 -221 q 44 -190 63 -212 q 25 -136 25 -168 q 51 -67 25 -100 q 138 11 76 -33 l 138 986 l 165 986 l 165 0 q 78 -72 103 -43 q 53 -132 53 -100 q 114 -197 53 -185 l 97 -221 l 97 -221 z "},"į":{"ha":263,"x_min":6,"x_max":146,"o":"m 78 -221 q 24 -190 43 -212 q 6 -136 6 -168 q 31 -67 6 -100 q 118 11 57 -33 l 118 721 l 146 721 l 146 0 q 58 -72 83 -43 q 33 -132 33 -100 q 94 -197 33 -185 l 78 -221 m 118 907 l 118 1014 l 146 1014 l 146 907 l 118 907 z "},"İ":{"ha":303,"x_min":138,"x_max":165,"o":"m 138 0 l 138 986 l 165 986 l 165 0 l 138 0 m 138 1168 l 138 1275 l 165 1275 l 165 1168 l 138 1168 z "},"ı":{"ha":261,"x_min":117,"x_max":144,"o":"m 117 0 l 117 721 l 144 721 l 144 0 l 117 0 z "},"Ĳ":{"ha":960,"x_min":138,"x_max":835,"o":"m 138 0 l 138 986 l 165 986 l 165 0 l 138 0 m 344 68 q 543 13 425 13 q 684 45 632 13 q 763 138 736 78 q 799 286 790 199 q 807 485 807 374 l 807 986 l 835 986 l 835 485 q 826 280 835 372 q 786 122 817 188 q 698 21 756 57 q 543 -15 640 -15 q 329 46 418 -15 l 344 68 z "},"ĳ":{"ha":533,"x_min":93,"x_max":417,"o":"m 117 0 l 117 721 l 144 721 l 144 0 l 117 0 m 117 907 l 117 1014 l 144 1014 l 144 907 l 117 907 m 232 -236 q 156 -226 192 -236 q 93 -189 121 -217 l 115 -172 q 171 -201 140 -194 q 231 -208 201 -208 q 288 -196 260 -208 q 338 -162 315 -183 q 375 -112 361 -142 q 389 -50 389 -83 l 389 721 l 417 721 l 417 -50 q 400 -124 417 -90 q 357 -183 383 -158 q 297 -222 331 -208 q 232 -236 264 -236 m 389 907 l 389 1014 l 417 1014 l 417 907 l 389 907 z "},"Ĵ":{"ha":657,"x_min":26,"x_max":658,"o":"m 42 68 q 240 13 122 13 q 381 45 329 13 q 460 138 433 78 q 496 286 488 199 q 504 485 504 374 l 504 986 l 532 986 l 532 485 q 523 280 532 372 q 483 122 514 188 q 395 21 453 57 q 240 -15 338 -15 q 26 46 115 -15 l 42 68 m 378 1172 l 507 1275 l 529 1275 l 658 1172 l 636 1156 l 518 1243 l 400 1156 l 378 1172 z "},"ĵ":{"ha":261,"x_min":-179,"x_max":271,"o":"m -40 -236 q -116 -226 -81 -236 q -179 -189 -151 -217 l -157 -172 q -101 -201 -132 -194 q -42 -208 -71 -208 q 15 -196 -12 -208 q 66 -162 43 -183 q 103 -112 89 -142 q 117 -50 117 -83 l 117 721 l 144 721 l 144 -50 q 128 -124 144 -90 q 85 -183 111 -158 q 25 -222 58 -208 q -40 -236 -8 -236 m -10 911 l 119 1014 l 142 1014 l 271 911 l 249 894 l 131 982 l 13 894 l -10 911 z "},"Ķ":{"ha":863,"x_min":138,"x_max":853,"o":"m 138 0 l 138 986 l 165 986 l 165 346 l 793 986 l 833 986 l 413 556 l 853 0 l 817 0 l 392 536 l 165 307 l 165 0 l 138 0 m 413 -232 l 426 -151 l 414 -151 l 414 -69 l 450 -69 l 450 -151 l 432 -232 l 413 -232 z "},"ķ":{"ha":706,"x_min":117,"x_max":681,"o":"m 647 0 l 340 413 l 144 235 l 144 0 l 117 0 l 117 1014 l 144 1014 l 144 272 l 636 718 l 674 718 l 361 432 l 681 0 l 647 0 m 344 -232 l 358 -151 l 346 -151 l 346 -69 l 382 -69 l 382 -151 l 364 -232 l 344 -232 z "},"ĸ":{"ha":706,"x_min":117,"x_max":681,"o":"m 647 0 l 340 413 l 144 235 l 144 0 l 117 0 l 117 721 l 144 721 l 144 272 l 636 718 l 674 718 l 361 432 l 681 0 l 647 0 z "},"Ĺ":{"ha":804,"x_min":138,"x_max":785,"o":"m 138 0 l 138 986 l 165 986 l 165 28 l 785 28 l 785 0 l 138 0 m 440 1157 l 418 1174 l 507 1275 l 554 1275 l 440 1157 z "},"ĺ":{"ha":331,"x_min":83,"x_max":331,"o":"m 125 1014 l 153 1014 l 153 107 q 178 43 153 67 q 244 19 203 19 q 281 23 260 19 q 321 32 303 26 l 331 10 q 283 -2 311 3 q 235 -7 254 -7 q 156 24 186 -7 q 125 107 125 56 l 125 1014 m 106 1082 l 83 1099 l 172 1200 l 219 1200 l 106 1082 z "},"Ļ":{"ha":804,"x_min":138,"x_max":785,"o":"m 138 0 l 138 986 l 165 986 l 165 28 l 785 28 l 785 0 l 138 0 m 436 -232 l 450 -151 l 438 -151 l 438 -69 l 474 -69 l 474 -151 l 456 -232 l 436 -232 z "},"ļ":{"ha":331,"x_min":125,"x_max":331,"o":"m 125 1014 l 153 1014 l 153 107 q 178 43 153 67 q 244 19 203 19 q 281 23 260 19 q 321 32 303 26 l 331 10 q 283 -2 311 3 q 235 -7 254 -7 q 156 24 186 -7 q 125 107 125 56 l 125 1014 m 201 -232 l 215 -151 l 203 -151 l 203 -69 l 239 -69 l 239 -151 l 221 -232 l 201 -232 z "},"Ľ":{"ha":804,"x_min":138,"x_max":785,"o":"m 138 0 l 138 986 l 165 986 l 165 28 l 785 28 l 785 0 l 138 0 m 494 896 l 472 913 l 561 1014 l 608 1014 l 494 896 z "},"ľ":{"ha":331,"x_min":125,"x_max":358,"o":"m 125 1014 l 153 1014 l 153 107 q 178 43 153 67 q 244 19 203 19 q 281 23 260 19 q 321 32 303 26 l 331 10 q 283 -2 311 3 q 235 -7 254 -7 q 156 24 186 -7 q 125 107 125 56 l 125 1014 m 244 896 l 222 913 l 311 1014 l 358 1014 l 244 896 z "},"Ŀ":{"ha":804,"x_min":138,"x_max":785,"o":"m 138 0 l 138 986 l 165 986 l 165 28 l 785 28 l 785 0 l 138 0 m 508 500 l 508 615 l 536 615 l 536 500 l 508 500 z "},"ŀ":{"ha":354,"x_min":125,"x_max":331,"o":"m 125 1014 l 153 1014 l 153 107 q 178 43 153 67 q 244 19 203 19 q 281 23 260 19 q 321 32 303 26 l 331 10 q 283 -2 311 3 q 235 -7 254 -7 q 156 24 186 -7 q 125 107 125 56 l 125 1014 m 300 347 l 300 463 l 328 463 l 328 347 l 300 347 z "},"Ł":{"ha":814,"x_min":40,"x_max":794,"o":"m 147 0 l 147 394 l 60 307 l 40 328 l 147 435 l 147 986 l 175 986 l 175 463 l 436 724 l 456 703 l 175 422 l 175 28 l 794 28 l 794 0 l 147 0 z "},"ł":{"ha":351,"x_min":22,"x_max":350,"o":"m 144 524 l 43 422 l 22 442 l 144 564 l 144 1014 l 172 1014 l 172 592 l 300 719 l 321 700 l 172 551 l 172 107 q 197 43 172 67 q 264 19 222 19 q 301 23 279 19 q 340 32 322 26 l 350 10 q 302 -2 331 3 q 254 -7 274 -7 q 175 24 206 -7 q 144 107 144 56 l 144 524 z "},"Ń":{"ha":1078,"x_min":138,"x_max":940,"o":"m 165 932 l 165 0 l 138 0 l 138 986 l 158 986 l 913 40 l 913 986 l 940 986 l 940 0 l 908 0 l 165 932 m 526 1157 l 504 1174 l 593 1275 l 640 1275 l 526 1157 z "},"ń":{"ha":785,"x_min":117,"x_max":676,"o":"m 676 0 l 649 0 l 649 401 q 605 632 649 560 q 464 704 561 704 q 360 685 411 704 q 267 633 310 667 q 192 554 224 600 q 144 456 160 508 l 144 0 l 117 0 l 117 721 l 144 721 l 144 535 q 201 615 167 578 q 278 677 236 651 q 367 717 319 703 q 463 732 414 732 q 625 652 574 732 q 676 401 676 572 l 676 0 m 369 896 l 347 913 l 436 1014 l 483 1014 l 369 896 z "},"Ņ":{"ha":1078,"x_min":138,"x_max":940,"o":"m 165 932 l 165 0 l 138 0 l 138 986 l 158 986 l 913 40 l 913 986 l 940 986 l 940 0 l 908 0 l 165 932 m 524 -232 l 538 -151 l 525 -151 l 525 -69 l 561 -69 l 561 -151 l 543 -232 l 524 -232 z "},"ņ":{"ha":785,"x_min":117,"x_max":676,"o":"m 676 0 l 649 0 l 649 401 q 605 632 649 560 q 464 704 561 704 q 360 685 411 704 q 267 633 310 667 q 192 554 224 600 q 144 456 160 508 l 144 0 l 117 0 l 117 721 l 144 721 l 144 535 q 201 615 167 578 q 278 677 236 651 q 367 717 319 703 q 463 732 414 732 q 625 652 574 732 q 676 401 676 572 l 676 0 m 365 -232 l 379 -151 l 367 -151 l 367 -69 l 403 -69 l 403 -151 l 385 -232 l 365 -232 z "},"Ň":{"ha":1078,"x_min":138,"x_max":940,"o":"m 165 932 l 165 0 l 138 0 l 138 986 l 158 986 l 913 40 l 913 986 l 940 986 l 940 0 l 908 0 l 165 932 m 428 1275 l 546 1188 l 664 1275 l 686 1258 l 557 1156 l 535 1156 l 406 1258 l 428 1275 z "},"ň":{"ha":785,"x_min":117,"x_max":676,"o":"m 676 0 l 649 0 l 649 401 q 605 632 649 560 q 464 704 561 704 q 360 685 411 704 q 267 633 310 667 q 192 554 224 600 q 144 456 160 508 l 144 0 l 117 0 l 117 721 l 144 721 l 144 535 q 201 615 167 578 q 278 677 236 651 q 367 717 319 703 q 463 732 414 732 q 625 652 574 732 q 676 401 676 572 l 676 0 m 271 1014 l 389 926 l 507 1014 l 529 997 l 400 894 l 378 894 l 249 997 l 271 1014 z "},"ŉ":{"ha":785,"x_min":14,"x_max":676,"o":"m 676 0 l 649 0 l 649 401 q 605 632 649 560 q 464 704 561 704 q 360 685 411 704 q 267 633 310 667 q 192 554 224 600 q 144 456 160 508 l 144 0 l 117 0 l 117 721 l 144 721 l 144 535 q 201 615 167 578 q 278 677 236 651 q 367 717 319 703 q 463 732 414 732 q 625 652 574 732 q 676 401 676 572 l 676 0 m 36 896 l 14 913 l 71 978 l 75 1014 l 150 1014 l 36 896 z "},"Ŋ":{"ha":1078,"x_min":138,"x_max":940,"o":"m 165 932 l 165 0 l 138 0 l 138 986 l 158 986 l 913 40 l 913 985 l 940 985 l 940 -50 q 924 -124 940 -90 q 881 -183 907 -158 q 821 -222 854 -208 q 756 -236 788 -236 q 680 -226 715 -236 q 617 -189 644 -217 l 639 -172 q 694 -201 664 -194 q 754 -208 725 -208 q 811 -196 783 -208 q 862 -162 839 -183 q 899 -112 885 -142 q 913 -50 913 -83 l 913 -6 l 165 932 z "},"ŋ":{"ha":785,"x_min":117,"x_max":676,"o":"m 492 -236 q 416 -226 451 -236 q 353 -189 381 -217 l 375 -172 q 431 -201 400 -194 q 490 -208 461 -208 q 547 -196 519 -208 q 598 -162 575 -183 q 635 -112 621 -142 q 649 -50 649 -83 l 649 401 q 605 632 649 560 q 464 704 561 704 q 360 685 411 704 q 267 633 310 667 q 192 554 224 600 q 144 456 160 508 l 144 0 l 117 0 l 117 721 l 144 721 l 144 535 q 201 615 167 578 q 278 677 236 651 q 367 717 319 703 q 463 732 414 732 q 625 652 574 732 q 676 401 676 572 l 676 -50 q 660 -124 676 -90 q 617 -183 643 -158 q 557 -222 590 -208 q 492 -236 524 -236 z "},"Ō":{"ha":1051,"x_min":67,"x_max":985,"o":"m 526 -7 q 340 36 424 -7 q 194 149 256 79 q 100 308 133 218 q 67 493 67 399 q 102 682 67 592 q 199 842 138 772 q 345 952 261 911 q 526 993 429 993 q 713 949 628 993 q 858 835 797 906 q 951 674 918 764 q 985 493 985 585 q 949 303 985 393 q 852 144 914 213 q 707 34 790 75 q 526 -7 624 -7 m 94 493 q 127 316 94 401 q 217 165 160 231 q 353 60 274 99 q 526 21 432 21 q 702 62 622 21 q 838 169 782 103 q 926 321 894 236 q 957 493 957 406 q 924 670 957 585 q 833 822 892 756 q 697 926 775 888 q 526 965 618 965 q 351 924 431 965 q 214 817 271 883 q 126 665 157 750 q 94 493 94 581 m 332 1214 l 332 1242 l 721 1242 l 721 1214 l 332 1214 z "},"ō":{"ha":814,"x_min":64,"x_max":750,"o":"m 407 -14 q 274 16 336 -14 q 165 97 211 46 q 91 215 118 147 q 64 358 64 283 q 91 502 64 435 q 165 621 118 569 q 275 702 213 672 q 407 732 338 732 q 539 702 476 732 q 648 621 601 672 q 722 502 694 569 q 750 358 750 435 q 723 215 750 283 q 649 97 696 147 q 540 16 603 46 q 407 -14 478 -14 m 92 356 q 117 224 92 286 q 184 115 142 161 q 283 41 226 68 q 406 14 340 14 q 527 42 469 14 q 628 117 585 69 q 697 226 672 164 q 722 360 722 289 q 697 492 722 429 q 629 601 672 554 q 528 676 586 649 q 407 704 471 704 q 285 676 343 704 q 185 601 228 649 q 117 490 142 553 q 92 356 92 426 m 213 953 l 213 981 l 601 981 l 601 953 l 213 953 z "},"Ŏ":{"ha":1051,"x_min":67,"x_max":985,"o":"m 526 -7 q 340 36 424 -7 q 194 149 256 79 q 100 308 133 218 q 67 493 67 399 q 102 682 67 592 q 199 842 138 772 q 345 952 261 911 q 526 993 429 993 q 713 949 628 993 q 858 835 797 906 q 951 674 918 764 q 985 493 985 585 q 949 303 985 393 q 852 144 914 213 q 707 34 790 75 q 526 -7 624 -7 m 94 493 q 127 316 94 401 q 217 165 160 231 q 353 60 274 99 q 526 21 432 21 q 702 62 622 21 q 838 169 782 103 q 926 321 894 236 q 957 493 957 406 q 924 670 957 585 q 833 822 892 756 q 697 926 775 888 q 526 965 618 965 q 351 924 431 965 q 214 817 271 883 q 126 665 157 750 q 94 493 94 581 m 526 1192 q 577 1216 554 1192 q 604 1275 600 1240 l 629 1275 q 621 1235 629 1254 q 598 1201 613 1215 q 565 1177 583 1186 q 526 1168 547 1168 q 488 1177 506 1168 q 455 1201 469 1186 q 432 1235 440 1215 q 424 1275 424 1254 l 450 1275 q 474 1217 450 1243 q 526 1192 497 1192 z "},"ŏ":{"ha":814,"x_min":64,"x_max":750,"o":"m 407 -14 q 274 16 336 -14 q 165 97 211 46 q 91 215 118 147 q 64 358 64 283 q 91 502 64 435 q 165 621 118 569 q 275 702 213 672 q 407 732 338 732 q 539 702 476 732 q 648 621 601 672 q 722 502 694 569 q 750 358 750 435 q 723 215 750 283 q 649 97 696 147 q 540 16 603 46 q 407 -14 478 -14 m 92 356 q 117 224 92 286 q 184 115 142 161 q 283 41 226 68 q 406 14 340 14 q 527 42 469 14 q 628 117 585 69 q 697 226 672 164 q 722 360 722 289 q 697 492 722 429 q 629 601 672 554 q 528 676 586 649 q 407 704 471 704 q 285 676 343 704 q 185 601 228 649 q 117 490 142 553 q 92 356 92 426 m 407 931 q 458 955 435 931 q 485 1014 481 979 l 510 1014 q 501 974 510 993 q 478 940 493 954 q 446 916 464 925 q 407 907 428 907 q 368 916 386 907 q 335 940 350 925 q 313 974 321 954 q 304 1014 304 993 l 331 1014 q 354 956 331 982 q 407 931 378 931 z "},"Ő":{"ha":1051,"x_min":67,"x_max":985,"o":"m 526 -7 q 340 36 424 -7 q 194 149 256 79 q 100 308 133 218 q 67 493 67 399 q 102 682 67 592 q 199 842 138 772 q 345 952 261 911 q 526 993 429 993 q 713 949 628 993 q 858 835 797 906 q 951 674 918 764 q 985 493 985 585 q 949 303 985 393 q 852 144 914 213 q 707 34 790 75 q 526 -7 624 -7 m 94 493 q 127 316 94 401 q 217 165 160 231 q 353 60 274 99 q 526 21 432 21 q 702 62 622 21 q 838 169 782 103 q 926 321 894 236 q 957 493 957 406 q 924 670 957 585 q 833 822 892 756 q 697 926 775 888 q 526 965 618 965 q 351 924 431 965 q 214 817 271 883 q 126 665 157 750 q 94 493 94 581 m 438 1157 l 415 1174 l 504 1275 l 551 1275 l 438 1157 m 576 1157 l 554 1174 l 643 1275 l 690 1275 l 576 1157 z "},"ő":{"ha":814,"x_min":64,"x_max":750,"o":"m 407 -14 q 274 16 336 -14 q 165 97 211 46 q 91 215 118 147 q 64 358 64 283 q 91 502 64 435 q 165 621 118 569 q 275 702 213 672 q 407 732 338 732 q 539 702 476 732 q 648 621 601 672 q 722 502 694 569 q 750 358 750 435 q 723 215 750 283 q 649 97 696 147 q 540 16 603 46 q 407 -14 478 -14 m 92 356 q 117 224 92 286 q 184 115 142 161 q 283 41 226 68 q 406 14 340 14 q 527 42 469 14 q 628 117 585 69 q 697 226 672 164 q 722 360 722 289 q 697 492 722 429 q 629 601 672 554 q 528 676 586 649 q 407 704 471 704 q 285 676 343 704 q 185 601 228 649 q 117 490 142 553 q 92 356 92 426 m 318 896 l 296 913 l 385 1014 l 432 1014 l 318 896 m 457 896 l 435 913 l 524 1014 l 571 1014 l 457 896 z "},"Œ":{"ha":1676,"x_min":67,"x_max":1604,"o":"m 1604 28 l 1604 0 l 957 0 l 957 325 q 892 194 933 256 q 794 89 850 133 q 672 19 739 44 q 529 -7 604 -7 q 342 35 426 -7 q 196 148 257 78 q 101 308 135 218 q 67 493 67 399 q 102 682 67 592 q 199 842 138 772 q 345 952 261 911 q 526 993 429 993 q 674 967 606 993 q 797 894 742 940 q 893 788 853 849 q 957 660 933 728 l 957 986 l 1592 986 l 1592 958 l 985 958 l 985 518 l 1517 518 l 1517 490 l 985 490 l 985 28 l 1604 28 m 526 21 q 702 62 622 21 q 838 169 782 103 q 926 322 894 236 q 957 494 957 407 q 924 671 957 586 q 833 822 892 756 q 697 926 775 888 q 526 965 618 965 q 351 924 431 965 q 214 817 271 883 q 126 665 157 750 q 94 493 94 581 q 127 316 94 401 q 217 165 160 231 q 353 60 274 99 q 526 21 432 21 z "},"œ":{"ha":1458,"x_min":64,"x_max":1410,"o":"m 404 -14 q 272 15 333 -14 q 163 94 210 44 q 90 212 117 144 q 64 357 64 279 q 91 503 64 435 q 165 622 118 571 q 274 703 211 674 q 410 732 338 732 q 519 713 467 732 q 614 658 571 693 q 688 572 657 622 q 733 461 718 522 q 778 574 747 524 q 851 659 808 624 q 949 713 894 694 q 1064 732 1003 732 q 1196 706 1136 732 q 1300 632 1256 681 q 1372 515 1344 583 q 1408 360 1400 446 l 1410 344 l 750 344 q 784 215 756 275 q 857 110 813 154 q 960 40 901 65 q 1085 14 1019 14 q 1169 25 1128 14 q 1244 56 1210 36 q 1303 104 1278 76 q 1343 165 1329 132 l 1369 158 q 1324 89 1354 121 q 1256 34 1294 57 q 1173 -1 1218 11 q 1082 -14 1128 -14 q 969 6 1024 -14 q 867 63 914 26 q 787 149 821 99 q 736 257 753 199 q 688 146 719 196 q 612 60 656 96 q 515 6 568 25 q 404 -14 463 -14 m 406 14 q 528 41 471 14 q 629 115 586 68 q 697 224 672 161 q 722 358 722 288 q 697 492 722 429 q 630 603 672 556 q 530 677 588 650 q 408 704 472 704 q 285 676 343 704 q 185 601 228 649 q 117 490 142 553 q 92 354 92 426 q 116 222 92 283 q 183 113 140 160 q 283 40 226 67 q 406 14 340 14 m 1381 372 q 1350 506 1376 444 q 1281 610 1324 567 q 1183 679 1239 654 q 1064 704 1128 704 q 944 679 1000 704 q 847 610 889 654 q 779 504 804 565 q 750 372 754 443 l 1381 372 z "},"Ŕ":{"ha":892,"x_min":138,"x_max":817,"o":"m 138 0 l 138 986 l 539 986 q 650 960 599 986 q 738 892 701 935 q 796 797 775 850 q 817 688 817 743 q 799 578 817 631 q 747 484 781 525 q 667 417 714 443 q 565 388 621 392 l 815 0 l 782 0 l 532 388 l 165 388 l 165 0 l 138 0 m 165 415 l 549 415 q 649 439 604 415 q 724 501 693 463 q 772 588 756 539 q 789 688 789 636 q 769 789 789 740 q 716 875 750 838 q 636 935 682 913 q 539 958 590 958 l 165 958 l 165 415 m 419 1161 l 397 1178 l 486 1279 l 533 1279 l 419 1161 z "},"ŕ":{"ha":449,"x_min":117,"x_max":425,"o":"m 425 693 q 248 626 322 689 q 144 456 174 564 l 144 0 l 117 0 l 117 721 l 144 721 l 144 535 q 245 660 182 611 q 379 718 308 710 q 405 720 393 719 q 425 721 417 721 l 425 693 m 225 896 l 203 913 l 292 1014 l 339 1014 l 225 896 z "},"Ŗ":{"ha":892,"x_min":138,"x_max":817,"o":"m 138 0 l 138 986 l 539 986 q 650 960 599 986 q 738 892 701 935 q 796 797 775 850 q 817 688 817 743 q 799 578 817 631 q 747 484 781 525 q 667 417 714 443 q 565 388 621 392 l 815 0 l 782 0 l 532 388 l 165 388 l 165 0 l 138 0 m 165 415 l 549 415 q 649 439 604 415 q 724 501 693 463 q 772 588 756 539 q 789 688 789 636 q 769 789 789 740 q 716 875 750 838 q 636 935 682 913 q 539 958 590 958 l 165 958 l 165 415 m 415 -232 l 429 -151 l 417 -151 l 417 -69 l 453 -69 l 453 -151 l 435 -232 l 415 -232 z "},"ŗ":{"ha":449,"x_min":107,"x_max":425,"o":"m 425 693 q 248 626 322 689 q 144 456 174 564 l 144 0 l 117 0 l 117 721 l 144 721 l 144 535 q 245 660 182 611 q 379 718 308 710 q 405 720 393 719 q 425 721 417 721 l 425 693 m 107 -232 l 121 -151 l 108 -151 l 108 -69 l 144 -69 l 144 -151 l 126 -232 l 107 -232 z "},"Ř":{"ha":892,"x_min":138,"x_max":817,"o":"m 138 0 l 138 986 l 539 986 q 650 960 599 986 q 738 892 701 935 q 796 797 775 850 q 817 688 817 743 q 799 578 817 631 q 747 484 781 525 q 667 417 714 443 q 565 388 621 392 l 815 0 l 782 0 l 532 388 l 165 388 l 165 0 l 138 0 m 165 415 l 549 415 q 649 439 604 415 q 724 501 693 463 q 772 588 756 539 q 789 688 789 636 q 769 789 789 740 q 716 875 750 838 q 636 935 682 913 q 539 958 590 958 l 165 958 l 165 415 m 321 1279 l 439 1192 l 557 1279 l 579 1263 l 450 1160 l 428 1160 l 299 1263 l 321 1279 z "},"ř":{"ha":449,"x_min":104,"x_max":425,"o":"m 425 693 q 248 626 322 689 q 144 456 174 564 l 144 0 l 117 0 l 117 721 l 144 721 l 144 535 q 245 660 182 611 q 379 718 308 710 q 405 720 393 719 q 425 721 417 721 l 425 693 m 126 1014 l 244 926 l 363 1014 l 385 997 l 256 894 l 233 894 l 104 997 l 126 1014 z "},"Ś":{"ha":836,"x_min":54,"x_max":785,"o":"m 707 856 q 585 943 649 919 q 435 967 522 967 q 290 950 350 967 q 190 902 229 933 q 133 828 151 871 q 115 731 115 785 q 133 642 115 678 q 189 583 151 607 q 285 541 226 558 q 426 507 344 524 q 575 471 508 490 q 688 422 642 451 q 760 350 735 393 q 785 242 785 307 q 692 57 785 121 q 438 -7 600 -7 q 226 30 318 -7 q 54 146 133 67 l 75 164 q 238 51 150 86 q 439 17 326 17 q 672 72 586 17 q 757 238 757 126 q 738 331 757 293 q 678 397 718 369 q 575 444 638 425 q 428 481 513 464 q 283 513 346 496 q 176 558 219 531 q 110 626 132 585 q 88 728 88 667 q 112 841 88 792 q 181 924 136 890 q 290 976 226 958 q 432 993 353 993 q 597 966 526 993 q 725 875 667 939 l 707 856 m 408 1188 l 386 1204 l 475 1306 l 522 1306 l 408 1188 z "},"ś":{"ha":654,"x_min":51,"x_max":594,"o":"m 326 -14 q 51 103 158 -14 l 72 121 q 188 40 128 67 q 326 14 249 14 q 500 60 433 14 q 567 189 567 106 q 550 253 567 228 q 501 298 533 279 q 422 330 469 317 q 315 357 375 343 q 214 383 257 371 q 142 413 171 394 q 99 458 114 431 q 85 528 85 485 q 106 620 85 582 q 161 683 126 658 q 242 720 196 708 q 339 732 288 732 q 488 702 426 732 q 574 628 550 672 l 549 617 q 463 682 522 660 q 333 704 403 704 q 249 694 289 704 q 178 664 208 685 q 130 610 147 643 q 113 532 113 578 q 124 473 113 496 q 161 435 136 450 q 225 408 186 419 q 317 385 264 397 q 433 356 381 369 q 520 321 485 342 q 575 270 556 300 q 594 193 594 240 q 575 108 594 146 q 521 42 556 69 q 436 1 486 15 q 326 -14 386 -14 m 314 896 l 292 913 l 381 1014 l 428 1014 l 314 896 z "},"Ŝ":{"ha":836,"x_min":54,"x_max":785,"o":"m 707 856 q 585 943 649 919 q 435 967 522 967 q 290 950 350 967 q 190 902 229 933 q 133 828 151 871 q 115 731 115 785 q 133 642 115 678 q 189 583 151 607 q 285 541 226 558 q 426 507 344 524 q 575 471 508 490 q 688 422 642 451 q 760 350 735 393 q 785 242 785 307 q 692 57 785 121 q 438 -7 600 -7 q 226 30 318 -7 q 54 146 133 67 l 75 164 q 238 51 150 86 q 439 17 326 17 q 672 72 586 17 q 757 238 757 126 q 738 331 757 293 q 678 397 718 369 q 575 444 638 425 q 428 481 513 464 q 283 513 346 496 q 176 558 219 531 q 110 626 132 585 q 88 728 88 667 q 112 841 88 792 q 181 924 136 890 q 290 976 226 958 q 432 993 353 993 q 597 966 526 993 q 725 875 667 939 l 707 856 m 288 1203 l 417 1306 l 439 1306 l 568 1203 l 546 1186 l 428 1274 l 310 1186 l 288 1203 z "},"ŝ":{"ha":654,"x_min":51,"x_max":594,"o":"m 326 -14 q 51 103 158 -14 l 72 121 q 188 40 128 67 q 326 14 249 14 q 500 60 433 14 q 567 189 567 106 q 550 253 567 228 q 501 298 533 279 q 422 330 469 317 q 315 357 375 343 q 214 383 257 371 q 142 413 171 394 q 99 458 114 431 q 85 528 85 485 q 106 620 85 582 q 161 683 126 658 q 242 720 196 708 q 339 732 288 732 q 488 702 426 732 q 574 628 550 672 l 549 617 q 463 682 522 660 q 333 704 403 704 q 249 694 289 704 q 178 664 208 685 q 130 610 147 643 q 113 532 113 578 q 124 473 113 496 q 161 435 136 450 q 225 408 186 419 q 317 385 264 397 q 433 356 381 369 q 520 321 485 342 q 575 270 556 300 q 594 193 594 240 q 575 108 594 146 q 521 42 556 69 q 436 1 486 15 q 326 -14 386 -14 m 193 911 l 322 1014 l 344 1014 l 474 911 l 451 894 l 333 982 l 215 894 l 193 911 z "},"Ş":{"ha":839,"x_min":56,"x_max":786,"o":"m 336 -174 q 389 -191 357 -183 q 457 -199 421 -199 q 538 -146 538 -199 q 519 -105 538 -117 q 471 -93 500 -93 q 410 -101 442 -93 q 358 -115 378 -108 l 421 -7 q 220 33 308 -4 q 56 146 132 71 l 76 164 q 240 51 151 86 q 440 17 328 17 q 673 72 588 17 q 758 238 758 126 q 739 331 758 293 q 679 397 719 369 q 576 444 639 425 q 429 481 514 464 q 284 513 347 496 q 177 558 221 531 q 111 626 133 585 q 89 728 89 667 q 113 841 89 792 q 183 924 138 890 q 291 976 228 958 q 433 993 354 993 q 598 966 528 993 q 726 875 668 939 l 708 856 q 587 943 650 919 q 436 967 524 967 q 291 950 351 967 q 192 902 231 933 q 135 828 153 871 q 117 731 117 785 q 135 642 117 678 q 190 583 153 607 q 287 541 228 558 q 428 507 346 524 q 576 471 510 490 q 690 422 643 451 q 761 350 736 393 q 786 242 786 307 q 698 60 786 124 q 454 -7 610 -4 l 413 -79 q 443 -72 426 -74 q 471 -71 460 -71 q 565 -146 565 -71 q 535 -206 565 -187 q 453 -225 506 -225 q 383 -217 417 -225 q 322 -199 349 -210 l 336 -174 z "},"ş":{"ha":656,"x_min":51,"x_max":594,"o":"m 221 -176 q 274 -194 242 -186 q 342 -201 306 -201 q 422 -149 422 -201 q 403 -108 422 -119 q 356 -96 385 -96 q 294 -103 326 -96 q 243 -118 263 -111 l 303 -12 q 51 103 150 -6 l 72 121 q 188 40 128 67 q 326 14 249 14 q 500 60 433 14 q 567 189 567 106 q 550 253 567 228 q 501 298 533 279 q 422 330 469 317 q 315 357 375 343 q 214 383 257 371 q 142 413 171 394 q 99 458 114 431 q 85 528 85 485 q 106 620 85 582 q 161 683 126 658 q 242 720 196 708 q 339 732 288 732 q 488 702 426 732 q 574 628 550 672 l 549 617 q 463 682 522 660 q 333 704 403 704 q 249 694 289 704 q 178 664 208 685 q 130 610 147 643 q 113 532 113 578 q 124 473 113 496 q 161 435 136 450 q 225 408 186 419 q 317 385 264 397 q 433 356 381 369 q 520 321 485 342 q 575 270 556 300 q 594 193 594 240 q 576 110 594 147 q 524 45 557 72 q 442 3 490 18 q 336 -14 394 -12 l 297 -82 q 328 -75 311 -76 q 356 -74 344 -74 q 450 -149 450 -74 q 420 -209 450 -190 q 338 -228 390 -228 q 267 -220 301 -228 q 207 -201 233 -212 l 221 -176 z "},"Š":{"ha":836,"x_min":54,"x_max":785,"o":"m 707 856 q 585 943 649 919 q 435 967 522 967 q 290 950 350 967 q 190 902 229 933 q 133 828 151 871 q 115 731 115 785 q 133 642 115 678 q 189 583 151 607 q 285 541 226 558 q 426 507 344 524 q 575 471 508 490 q 688 422 642 451 q 760 350 735 393 q 785 242 785 307 q 692 57 785 121 q 438 -7 600 -7 q 226 30 318 -7 q 54 146 133 67 l 75 164 q 238 51 150 86 q 439 17 326 17 q 672 72 586 17 q 757 238 757 126 q 738 331 757 293 q 678 397 718 369 q 575 444 638 425 q 428 481 513 464 q 283 513 346 496 q 176 558 219 531 q 110 626 132 585 q 88 728 88 667 q 112 841 88 792 q 181 924 136 890 q 290 976 226 958 q 432 993 353 993 q 597 966 526 993 q 725 875 667 939 l 707 856 m 310 1306 l 428 1218 l 546 1306 l 568 1289 l 439 1186 l 417 1186 l 288 1289 l 310 1306 z "},"š":{"ha":654,"x_min":51,"x_max":594,"o":"m 326 -14 q 51 103 158 -14 l 72 121 q 188 40 128 67 q 326 14 249 14 q 500 60 433 14 q 567 189 567 106 q 550 253 567 228 q 501 298 533 279 q 422 330 469 317 q 315 357 375 343 q 214 383 257 371 q 142 413 171 394 q 99 458 114 431 q 85 528 85 485 q 106 620 85 582 q 161 683 126 658 q 242 720 196 708 q 339 732 288 732 q 488 702 426 732 q 574 628 550 672 l 549 617 q 463 682 522 660 q 333 704 403 704 q 249 694 289 704 q 178 664 208 685 q 130 610 147 643 q 113 532 113 578 q 124 473 113 496 q 161 435 136 450 q 225 408 186 419 q 317 385 264 397 q 433 356 381 369 q 520 321 485 342 q 575 270 556 300 q 594 193 594 240 q 575 108 594 146 q 521 42 556 69 q 436 1 486 15 q 326 -14 386 -14 m 215 1014 l 333 926 l 451 1014 l 474 997 l 344 894 l 322 894 l 193 997 l 215 1014 z "},"Ţ":{"ha":832,"x_min":24,"x_max":807,"o":"m 307 -174 q 360 -191 328 -183 q 428 -199 392 -199 q 508 -146 508 -199 q 490 -105 508 -117 q 442 -93 471 -93 q 381 -101 413 -93 q 329 -115 349 -108 l 401 10 l 401 958 l 24 958 l 24 986 l 807 986 l 807 958 l 429 958 l 429 0 l 383 -79 q 414 -72 397 -74 q 442 -71 431 -71 q 536 -146 536 -71 q 506 -206 536 -187 q 424 -225 476 -225 q 353 -217 388 -225 q 293 -199 319 -210 l 307 -174 z "},"ţ":{"ha":410,"x_min":36,"x_max":397,"o":"m 160 -174 q 213 -191 181 -183 q 281 -199 244 -199 q 361 -146 361 -199 q 342 -105 361 -117 q 294 -93 324 -93 q 233 -101 265 -93 q 182 -115 201 -108 l 244 -6 q 171 31 201 1 q 140 104 140 60 l 140 693 l 36 693 l 36 721 l 140 721 l 140 972 l 168 972 l 168 721 l 342 721 l 342 693 l 168 693 l 168 104 q 200 42 171 64 q 265 21 229 21 q 310 26 289 21 q 347 37 331 31 q 372 49 363 43 q 382 56 381 54 l 397 33 q 388 27 397 33 q 363 14 379 21 q 326 1 347 7 q 278 -7 304 -6 l 236 -79 q 267 -72 250 -74 q 294 -71 283 -71 q 389 -146 389 -71 q 359 -206 389 -187 q 276 -225 329 -225 q 206 -217 240 -225 q 146 -199 172 -210 l 160 -174 z "},"Ť":{"ha":833,"x_min":25,"x_max":808,"o":"m 808 958 l 431 958 l 431 0 l 403 0 l 403 958 l 25 958 l 25 986 l 808 986 l 808 958 m 299 1275 l 417 1188 l 535 1275 l 557 1258 l 428 1156 l 406 1156 l 276 1258 l 299 1275 z "},"ť":{"ha":410,"x_min":36,"x_max":414,"o":"m 397 33 q 387 26 397 33 q 359 13 376 19 q 318 -1 342 6 q 265 -7 294 -7 q 178 24 215 -7 q 140 104 140 54 l 140 693 l 36 693 l 36 721 l 140 721 l 140 972 l 168 972 l 168 721 l 342 721 l 342 693 l 168 693 l 168 104 q 200 42 171 64 q 265 21 229 21 q 310 26 289 21 q 347 37 331 31 q 372 49 363 43 q 382 56 381 54 l 397 33 m 300 896 l 278 913 l 367 1014 l 414 1014 l 300 896 z "},"Ŧ":{"ha":889,"x_min":53,"x_max":836,"o":"m 836 958 l 458 958 l 458 589 l 794 589 l 794 561 l 458 561 l 458 0 l 431 0 l 431 561 l 94 561 l 94 589 l 431 589 l 431 958 l 53 958 l 53 986 l 836 986 l 836 958 z "},"ŧ":{"ha":413,"x_min":38,"x_max":399,"o":"m 399 33 q 388 26 399 33 q 360 13 378 19 q 319 -1 343 6 q 267 -7 296 -7 q 179 24 217 -7 q 142 104 142 54 l 142 471 l 38 471 l 38 499 l 142 499 l 142 693 l 38 693 l 38 721 l 142 721 l 142 972 l 169 972 l 169 721 l 343 721 l 343 693 l 169 693 l 169 499 l 343 499 l 343 471 l 169 471 l 169 104 q 201 42 172 64 q 267 21 231 21 q 311 26 290 21 q 348 37 332 31 q 373 49 364 43 q 383 56 382 54 l 399 33 z "},"Ũ":{"ha":1050,"x_min":122,"x_max":929,"o":"m 525 21 q 709 63 636 21 q 824 171 782 104 q 884 322 867 238 q 901 493 901 407 l 901 986 l 929 986 l 929 493 q 909 304 929 394 q 842 145 889 214 q 717 35 794 76 q 526 -7 640 -7 q 332 36 410 -7 q 208 150 254 79 q 142 310 161 221 q 122 493 122 400 l 122 986 l 150 986 l 150 493 q 167 319 150 404 q 228 168 185 235 q 343 61 271 101 q 525 21 415 21 m 611 1182 q 558 1190 581 1182 q 515 1208 535 1199 q 477 1226 496 1218 q 438 1235 458 1235 q 401 1226 415 1235 q 380 1205 388 1217 q 369 1182 372 1193 q 367 1168 367 1171 l 339 1168 q 342 1186 339 1171 q 355 1218 344 1201 q 385 1248 365 1235 q 440 1261 406 1261 q 488 1253 467 1261 q 528 1235 508 1244 q 567 1217 547 1225 q 614 1208 588 1208 q 659 1218 643 1208 q 683 1240 675 1228 q 694 1262 692 1251 q 696 1275 696 1272 l 724 1275 q 720 1256 724 1271 q 706 1224 717 1240 q 672 1194 694 1207 q 611 1182 649 1182 z "},"ũ":{"ha":800,"x_min":108,"x_max":704,"o":"m 340 -14 q 108 317 108 -14 l 108 721 l 136 721 l 136 317 q 340 14 136 14 q 442 33 392 14 q 533 84 492 51 q 606 163 575 117 q 654 263 638 208 l 654 721 l 682 721 l 682 56 q 704 28 682 28 l 704 0 q 685 3 689 0 q 663 23 671 8 q 654 56 654 38 l 654 183 q 522 39 607 92 q 340 -14 438 -14 m 476 921 q 423 929 446 921 q 381 947 400 938 q 342 965 361 957 q 303 974 324 974 q 267 965 281 974 q 245 944 253 956 q 235 921 238 932 q 232 907 232 910 l 204 907 q 207 925 204 910 q 220 957 210 940 q 251 987 231 974 q 306 1000 271 1000 q 353 992 332 1000 q 393 974 374 983 q 433 956 413 964 q 479 947 453 947 q 524 957 508 947 q 549 978 540 967 q 559 1001 557 990 q 561 1014 561 1011 l 589 1014 q 585 994 589 1010 q 571 963 582 979 q 537 933 560 946 q 476 921 514 921 z "},"Ū":{"ha":1050,"x_min":122,"x_max":929,"o":"m 525 21 q 709 63 636 21 q 824 171 782 104 q 884 322 867 238 q 901 493 901 407 l 901 986 l 929 986 l 929 493 q 909 304 929 394 q 842 145 889 214 q 717 35 794 76 q 526 -7 640 -7 q 332 36 410 -7 q 208 150 254 79 q 142 310 161 221 q 122 493 122 400 l 122 986 l 150 986 l 150 493 q 167 319 150 404 q 228 168 185 235 q 343 61 271 101 q 525 21 415 21 m 332 1214 l 332 1242 l 721 1242 l 721 1214 l 332 1214 z "},"ū":{"ha":800,"x_min":108,"x_max":704,"o":"m 340 -14 q 108 317 108 -14 l 108 721 l 136 721 l 136 317 q 340 14 136 14 q 442 33 392 14 q 533 84 492 51 q 606 163 575 117 q 654 263 638 208 l 654 721 l 682 721 l 682 56 q 704 28 682 28 l 704 0 q 685 3 689 0 q 663 23 671 8 q 654 56 654 38 l 654 183 q 522 39 607 92 q 340 -14 438 -14 m 197 953 l 197 981 l 586 981 l 586 953 l 197 953 z "},"Ŭ":{"ha":1050,"x_min":122,"x_max":929,"o":"m 525 21 q 709 63 636 21 q 824 171 782 104 q 884 322 867 238 q 901 493 901 407 l 901 986 l 929 986 l 929 493 q 909 304 929 394 q 842 145 889 214 q 717 35 794 76 q 526 -7 640 -7 q 332 36 410 -7 q 208 150 254 79 q 142 310 161 221 q 122 493 122 400 l 122 986 l 150 986 l 150 493 q 167 319 150 404 q 228 168 185 235 q 343 61 271 101 q 525 21 415 21 m 526 1192 q 577 1216 554 1192 q 604 1275 600 1240 l 629 1275 q 621 1235 629 1254 q 598 1201 613 1215 q 565 1177 583 1186 q 526 1168 547 1168 q 488 1177 506 1168 q 455 1201 469 1186 q 432 1235 440 1215 q 424 1275 424 1254 l 450 1275 q 474 1217 450 1243 q 526 1192 497 1192 z "},"ŭ":{"ha":800,"x_min":108,"x_max":704,"o":"m 340 -14 q 108 317 108 -14 l 108 721 l 136 721 l 136 317 q 340 14 136 14 q 442 33 392 14 q 533 84 492 51 q 606 163 575 117 q 654 263 638 208 l 654 721 l 682 721 l 682 56 q 704 28 682 28 l 704 0 q 685 3 689 0 q 663 23 671 8 q 654 56 654 38 l 654 183 q 522 39 607 92 q 340 -14 438 -14 m 392 931 q 442 955 419 931 q 469 1014 465 979 l 494 1014 q 486 974 494 993 q 463 940 478 954 q 431 916 449 925 q 392 907 413 907 q 353 916 371 907 q 320 940 335 925 q 297 974 306 954 q 289 1014 289 993 l 315 1014 q 339 956 315 982 q 392 931 363 931 z "},"Ů":{"ha":1050,"x_min":122,"x_max":929,"o":"m 525 21 q 709 63 636 21 q 824 171 782 104 q 884 322 867 238 q 901 493 901 407 l 901 986 l 929 986 l 929 493 q 909 304 929 394 q 842 145 889 214 q 717 35 794 76 q 526 -7 640 -7 q 332 36 410 -7 q 208 150 254 79 q 142 310 161 221 q 122 493 122 400 l 122 986 l 150 986 l 150 493 q 167 319 150 404 q 228 168 185 235 q 343 61 271 101 q 525 21 415 21 m 447 1196 q 470 1252 447 1229 q 526 1275 493 1275 q 583 1252 560 1275 q 606 1196 606 1229 q 583 1140 606 1163 q 526 1117 560 1117 q 470 1140 493 1117 q 447 1196 447 1163 m 526 1253 q 486 1238 503 1253 q 469 1196 469 1222 q 486 1156 469 1172 q 526 1139 503 1139 q 565 1155 547 1139 q 583 1196 583 1171 q 567 1238 583 1222 q 526 1253 550 1253 z "},"ů":{"ha":800,"x_min":108,"x_max":704,"o":"m 340 -14 q 108 317 108 -14 l 108 721 l 136 721 l 136 317 q 340 14 136 14 q 442 33 392 14 q 533 84 492 51 q 606 163 575 117 q 654 263 638 208 l 654 721 l 682 721 l 682 56 q 704 28 682 28 l 704 0 q 685 3 689 0 q 663 23 671 8 q 654 56 654 38 l 654 183 q 522 39 607 92 q 340 -14 438 -14 m 313 935 q 335 991 313 968 q 392 1014 358 1014 q 448 991 425 1014 q 471 935 471 968 q 448 878 471 901 q 392 856 425 856 q 335 878 358 856 q 313 935 313 901 m 392 992 q 351 976 368 992 q 335 935 335 961 q 351 894 335 911 q 392 878 368 878 q 431 894 413 878 q 449 935 449 910 q 432 976 449 961 q 392 992 415 992 z "},"Ű":{"ha":1050,"x_min":122,"x_max":929,"o":"m 525 21 q 709 63 636 21 q 824 171 782 104 q 884 322 867 238 q 901 493 901 407 l 901 986 l 929 986 l 929 493 q 909 304 929 394 q 842 145 889 214 q 717 35 794 76 q 526 -7 640 -7 q 332 36 410 -7 q 208 150 254 79 q 142 310 161 221 q 122 493 122 400 l 122 986 l 150 986 l 150 493 q 167 319 150 404 q 228 168 185 235 q 343 61 271 101 q 525 21 415 21 m 438 1157 l 415 1174 l 504 1275 l 551 1275 l 438 1157 m 576 1157 l 554 1174 l 643 1275 l 690 1275 l 576 1157 z "},"ű":{"ha":800,"x_min":108,"x_max":704,"o":"m 340 -14 q 108 317 108 -14 l 108 721 l 136 721 l 136 317 q 340 14 136 14 q 442 33 392 14 q 533 84 492 51 q 606 163 575 117 q 654 263 638 208 l 654 721 l 682 721 l 682 56 q 704 28 682 28 l 704 0 q 685 3 689 0 q 663 23 671 8 q 654 56 654 38 l 654 183 q 522 39 607 92 q 340 -14 438 -14 m 303 896 l 281 913 l 369 1014 l 417 1014 l 303 896 m 442 896 l 419 913 l 508 1014 l 556 1014 l 442 896 z "},"Ų":{"ha":1051,"x_min":122,"x_max":929,"o":"m 492 -226 q 438 -196 457 -218 q 419 -142 419 -174 q 442 -78 419 -110 q 515 -7 464 -47 q 326 39 401 -6 q 205 153 250 83 q 141 313 160 224 q 122 493 122 401 l 122 986 l 150 986 l 150 493 q 167 319 150 404 q 228 168 185 235 q 343 61 271 101 q 525 21 415 21 q 709 63 636 21 q 824 171 782 104 q 884 322 867 238 q 901 493 901 407 l 901 986 l 929 986 l 929 493 q 910 311 929 399 q 848 156 892 224 q 734 44 804 88 q 560 -6 664 0 q 472 -77 497 -49 q 447 -137 447 -106 q 508 -203 447 -190 l 492 -226 l 492 -226 z "},"ų":{"ha":800,"x_min":108,"x_max":704,"o":"m 636 -221 q 583 -190 601 -212 q 564 -136 564 -168 q 589 -68 564 -101 q 674 8 614 -35 q 654 56 654 25 l 654 183 q 522 39 607 92 q 340 -14 438 -14 q 108 317 108 -14 l 108 721 l 136 721 l 136 317 q 340 14 136 14 q 442 33 392 14 q 533 84 492 51 q 606 163 575 117 q 654 263 638 208 l 654 721 l 682 721 l 682 56 q 704 28 682 28 l 704 0 q 617 -72 642 -43 q 592 -132 592 -100 q 653 -197 592 -185 l 636 -221 l 636 -221 z "},"Ŵ":{"ha":1442,"x_min":26,"x_max":1415,"o":"m 529 978 l 560 978 l 719 608 l 881 978 l 911 978 l 735 575 l 971 35 l 1385 986 l 1415 986 l 986 0 l 956 0 l 721 540 l 486 0 l 456 0 l 26 986 l 57 986 l 471 35 l 706 575 l 529 978 m 579 1172 l 708 1275 l 731 1275 l 860 1172 l 838 1156 l 719 1243 l 601 1156 l 579 1172 z "},"ŵ":{"ha":1103,"x_min":35,"x_max":1068,"o":"m 1038 721 l 1068 721 l 753 0 l 728 0 l 551 404 l 375 0 l 350 0 l 35 721 l 65 721 l 363 40 l 536 439 l 415 719 l 444 719 l 551 475 l 658 719 l 688 719 l 567 439 l 740 40 l 1038 721 m 411 911 l 540 1014 l 563 1014 l 692 911 l 669 894 l 551 982 l 433 894 l 411 911 z "},"Ŷ":{"ha":890,"x_min":32,"x_max":858,"o":"m 64 986 l 444 414 l 826 986 l 858 986 l 458 382 l 458 0 l 431 0 l 431 385 l 32 986 l 64 986 m 304 1172 l 433 1275 l 456 1275 l 585 1172 l 563 1156 l 444 1243 l 326 1156 l 304 1172 z "},"ŷ":{"ha":744,"x_min":29,"x_max":710,"o":"m 178 -282 q 219 -280 201 -282 q 243 -268 236 -278 q 253 -252 247 -264 q 271 -212 258 -240 q 306 -133 283 -183 q 364 0 328 -82 l 29 721 l 60 721 l 378 35 l 679 721 l 710 721 l 281 -258 q 235 -303 264 -294 q 178 -310 207 -310 l 178 -282 m 238 911 l 367 1014 l 389 1014 l 518 911 l 496 894 l 378 982 l 260 894 l 238 911 z "},"Ÿ":{"ha":890,"x_min":32,"x_max":858,"o":"m 64 986 l 444 414 l 826 986 l 858 986 l 458 382 l 458 0 l 431 0 l 431 385 l 32 986 l 64 986 m 350 1168 l 350 1275 l 378 1275 l 378 1168 l 350 1168 m 511 1168 l 511 1275 l 539 1275 l 539 1168 l 511 1168 z "},"Ź":{"ha":867,"x_min":39,"x_max":826,"o":"m 39 28 l 792 958 l 46 958 l 46 986 l 826 986 l 826 958 l 74 28 l 821 28 l 821 0 l 39 0 l 39 28 m 439 1157 l 417 1174 l 506 1275 l 553 1275 l 439 1157 z "},"ź":{"ha":678,"x_min":46,"x_max":631,"o":"m 46 28 l 596 693 l 53 693 l 53 721 l 631 721 l 631 693 l 82 28 l 625 28 l 625 0 l 46 0 l 46 28 m 340 896 l 318 913 l 407 1014 l 454 1014 l 340 896 z "},"Ż":{"ha":867,"x_min":39,"x_max":826,"o":"m 39 28 l 792 958 l 46 958 l 46 986 l 826 986 l 826 958 l 74 28 l 821 28 l 821 0 l 39 0 l 39 28 m 444 1168 l 444 1275 l 472 1275 l 472 1168 l 444 1168 z "},"ż":{"ha":678,"x_min":46,"x_max":631,"o":"m 46 28 l 596 693 l 53 693 l 53 721 l 631 721 l 631 693 l 82 28 l 625 28 l 625 0 l 46 0 l 46 28 m 346 907 l 346 1014 l 374 1014 l 374 907 l 346 907 z "},"Ž":{"ha":867,"x_min":39,"x_max":826,"o":"m 39 28 l 792 958 l 46 958 l 46 986 l 826 986 l 826 958 l 74 28 l 821 28 l 821 0 l 39 0 l 39 28 m 340 1275 l 458 1188 l 576 1275 l 599 1258 l 469 1156 l 447 1156 l 318 1258 l 340 1275 z "},"ž":{"ha":678,"x_min":46,"x_max":631,"o":"m 46 28 l 596 693 l 53 693 l 53 721 l 631 721 l 631 693 l 82 28 l 625 28 l 625 0 l 46 0 l 46 28 m 242 1014 l 360 926 l 478 1014 l 500 997 l 371 894 l 349 894 l 219 997 l 242 1014 z "},"Ə":{"ha":1026,"x_min":46,"x_max":960,"o":"m 508 -14 q 326 26 410 -14 q 179 133 242 65 q 81 293 117 201 q 46 489 46 385 l 46 503 l 929 503 q 886 686 922 601 q 792 833 850 771 q 657 929 733 894 q 496 964 581 964 q 387 949 440 964 q 286 905 333 933 q 203 837 239 876 q 147 749 167 797 l 119 761 q 177 853 139 811 q 266 927 215 896 q 376 976 317 958 q 499 993 436 993 q 677 952 593 993 q 824 842 761 911 q 923 679 886 772 q 960 481 960 586 q 924 288 960 378 q 828 131 889 197 q 684 25 767 64 q 508 -14 601 -14 m 506 17 q 667 51 592 17 q 799 147 743 86 q 890 290 856 207 q 929 472 925 374 l 78 472 q 119 289 85 372 q 211 145 154 206 q 343 51 268 85 q 506 17 418 17 z "},"ƒ":{"ha":706,"x_min":42,"x_max":660,"o":"m 181 -236 q 105 -226 140 -236 q 42 -189 69 -217 l 64 -172 q 119 -201 89 -194 q 179 -208 150 -208 q 236 -196 208 -208 q 287 -162 264 -183 q 324 -112 310 -142 q 338 -50 338 -83 l 338 608 l 233 608 l 233 636 l 338 636 l 338 750 q 388 955 338 882 q 528 1028 438 1028 q 604 1015 568 1028 q 660 981 640 1001 l 638 964 q 591 991 621 981 q 529 1001 561 1001 q 408 937 450 1001 q 365 750 365 872 l 365 636 l 581 636 l 581 608 l 365 608 l 365 -50 q 349 -124 365 -90 q 306 -183 332 -158 q 246 -222 279 -208 q 181 -236 213 -236 z "},"Ǆ":{"ha":1854,"x_min":138,"x_max":1814,"o":"m 138 0 l 138 986 l 454 986 q 658 947 571 986 q 802 842 744 908 q 888 685 860 775 q 917 494 917 596 q 884 291 917 382 q 792 135 851 200 q 646 35 732 71 q 454 0 560 0 l 138 0 m 889 494 q 860 681 889 596 q 776 827 832 765 q 640 924 721 889 q 454 958 558 958 l 165 958 l 165 28 l 454 28 q 642 63 561 28 q 778 161 724 99 q 861 309 833 224 q 889 494 889 394 m 1026 28 l 1779 958 l 1033 958 l 1033 986 l 1814 986 l 1814 958 l 1061 28 l 1808 28 l 1808 0 l 1026 0 l 1026 28 m 1328 1275 l 1446 1188 l 1564 1275 l 1586 1258 l 1457 1156 l 1435 1156 l 1306 1258 l 1328 1275 z "},"ǅ":{"ha":1665,"x_min":138,"x_max":1618,"o":"m 138 0 l 138 986 l 454 986 q 658 947 571 986 q 802 842 744 908 q 888 685 860 775 q 917 494 917 596 q 884 291 917 382 q 792 135 851 200 q 646 35 732 71 q 454 0 560 0 l 138 0 m 889 494 q 860 681 889 596 q 776 827 832 765 q 640 924 721 889 q 454 958 558 958 l 165 958 l 165 28 l 454 28 q 642 63 561 28 q 778 161 724 99 q 861 309 833 224 q 889 494 889 394 m 1033 28 l 1583 693 l 1040 693 l 1040 721 l 1618 721 l 1618 693 l 1069 28 l 1613 28 l 1613 0 l 1033 0 l 1033 28 m 1229 1014 l 1347 926 l 1465 1014 l 1488 997 l 1358 894 l 1336 894 l 1207 997 l 1229 1014 z "},"ǆ":{"ha":1517,"x_min":64,"x_max":1469,"o":"m 411 -14 q 272 18 336 -14 q 162 103 208 50 q 90 222 115 156 q 64 358 64 289 q 89 501 64 433 q 159 619 114 568 q 265 701 204 671 q 399 732 326 732 q 492 717 449 732 q 574 678 536 703 q 641 622 611 654 q 693 553 671 589 l 693 1014 l 721 1014 l 721 56 q 743 28 721 28 l 743 0 q 725 3 731 0 q 701 24 710 10 q 693 56 693 39 l 693 150 q 638 84 669 114 q 570 32 607 54 q 493 -2 533 10 q 411 -14 453 -14 m 411 14 q 501 32 453 14 q 592 80 550 50 q 662 150 633 110 q 693 235 690 190 l 693 494 q 646 576 678 538 q 574 642 614 614 q 488 688 533 671 q 399 704 442 704 q 272 674 328 704 q 175 596 215 644 q 113 485 135 547 q 92 358 92 422 q 117 228 92 290 q 185 119 142 167 q 286 42 228 71 q 411 14 344 14 m 885 28 l 1435 693 l 892 693 l 892 721 l 1469 721 l 1469 693 l 921 28 l 1464 28 l 1464 0 l 885 0 l 885 28 m 1081 1014 l 1199 926 l 1317 1014 l 1339 997 l 1210 894 l 1188 894 l 1058 997 l 1081 1014 z "},"Ǉ":{"ha":1461,"x_min":138,"x_max":1336,"o":"m 138 0 l 138 986 l 165 986 l 165 28 l 785 28 l 785 0 l 138 0 m 846 68 q 1044 13 926 13 q 1185 45 1133 13 q 1265 138 1238 78 q 1300 286 1292 199 q 1308 485 1308 374 l 1308 986 l 1336 986 l 1336 485 q 1327 280 1336 372 q 1288 122 1318 188 q 1199 21 1257 57 q 1044 -15 1142 -15 q 831 46 919 -15 l 846 68 z "},"ǈ":{"ha":1076,"x_min":138,"x_max":960,"o":"m 138 0 l 138 986 l 165 986 l 165 28 l 785 28 l 785 0 l 138 0 m 775 -236 q 699 -226 735 -236 q 636 -189 664 -217 l 658 -172 q 714 -201 683 -194 q 774 -208 744 -208 q 831 -196 803 -208 q 881 -162 858 -183 q 918 -112 904 -142 q 932 -50 932 -83 l 932 721 l 960 721 l 960 -50 q 943 -124 960 -90 q 900 -183 926 -158 q 840 -222 874 -208 q 775 -236 807 -236 m 932 907 l 932 1014 l 960 1014 l 960 907 l 932 907 z "},"ǉ":{"ha":603,"x_min":125,"x_max":486,"o":"m 125 1014 l 153 1014 l 153 107 q 178 43 153 67 q 244 19 203 19 q 281 23 260 19 q 321 32 303 26 l 331 10 q 283 -2 311 3 q 235 -7 254 -7 q 156 24 186 -7 q 125 107 125 56 l 125 1014 m 301 -236 q 226 -226 261 -236 q 163 -189 190 -217 l 185 -172 q 240 -201 210 -194 q 300 -208 271 -208 q 357 -196 329 -208 q 408 -162 385 -183 q 444 -112 431 -142 q 458 -50 458 -83 l 458 721 l 486 721 l 486 -50 q 469 -124 486 -90 q 426 -183 453 -158 q 367 -222 400 -208 q 301 -236 333 -236 m 458 907 l 458 1014 l 486 1014 l 486 907 l 458 907 z "},"Ǌ":{"ha":1735,"x_min":138,"x_max":1610,"o":"m 165 932 l 165 0 l 138 0 l 138 986 l 158 986 l 913 40 l 913 986 l 940 986 l 940 0 l 908 0 l 165 932 m 1119 68 q 1318 13 1200 13 q 1459 45 1407 13 q 1538 138 1511 78 q 1574 286 1565 199 q 1582 485 1582 374 l 1582 986 l 1610 986 l 1610 485 q 1601 280 1610 372 q 1561 122 1592 188 q 1473 21 1531 57 q 1318 -15 1415 -15 q 1104 46 1193 -15 l 1119 68 z "},"ǋ":{"ha":1350,"x_min":138,"x_max":1233,"o":"m 165 932 l 165 0 l 138 0 l 138 986 l 158 986 l 913 40 l 913 986 l 940 986 l 940 0 l 908 0 l 165 932 m 1049 -236 q 973 -226 1008 -236 q 910 -189 938 -217 l 932 -172 q 988 -201 957 -194 q 1047 -208 1018 -208 q 1104 -196 1076 -208 q 1155 -162 1132 -183 q 1192 -112 1178 -142 q 1206 -50 1206 -83 l 1206 721 l 1233 721 l 1233 -50 q 1217 -124 1233 -90 q 1174 -183 1200 -158 q 1114 -222 1147 -208 q 1049 -236 1081 -236 m 1206 907 l 1206 1014 l 1233 1014 l 1233 907 l 1206 907 z "},"ǌ":{"ha":1057,"x_min":117,"x_max":940,"o":"m 676 0 l 649 0 l 649 401 q 605 632 649 560 q 464 704 561 704 q 360 685 411 704 q 267 633 310 667 q 192 554 224 600 q 144 456 160 508 l 144 0 l 117 0 l 117 721 l 144 721 l 144 535 q 201 615 167 578 q 278 677 236 651 q 367 717 319 703 q 463 732 414 732 q 625 652 574 732 q 676 401 676 572 l 676 0 m 756 -236 q 680 -226 715 -236 q 617 -189 644 -217 l 639 -172 q 694 -201 664 -194 q 754 -208 725 -208 q 811 -196 783 -208 q 862 -162 839 -183 q 899 -112 885 -142 q 913 -50 913 -83 l 913 721 l 940 721 l 940 -50 q 924 -124 940 -90 q 881 -183 907 -158 q 821 -222 854 -208 q 756 -236 788 -236 m 913 907 l 913 1014 l 940 1014 l 940 907 l 913 907 z "},"Ǫ":{"ha":1051,"x_min":67,"x_max":985,"o":"m 485 -226 q 431 -196 450 -218 q 413 -142 413 -174 q 435 -78 413 -110 q 508 -6 457 -46 q 328 42 410 -1 q 189 156 247 86 q 99 313 131 225 q 67 493 67 400 q 102 682 67 592 q 199 842 138 772 q 345 952 261 911 q 526 993 429 993 q 713 949 628 993 q 858 835 797 906 q 951 674 918 764 q 985 493 985 585 q 951 309 985 397 q 860 153 918 221 q 722 42 801 85 q 551 -6 643 0 q 465 -77 489 -49 q 440 -137 440 -106 q 501 -203 440 -190 l 485 -226 m 94 493 q 127 316 94 401 q 217 165 160 231 q 353 60 274 99 q 526 21 432 21 q 702 62 622 21 q 838 169 782 103 q 926 321 894 236 q 957 493 957 406 q 924 670 957 585 q 833 822 892 756 q 697 926 775 888 q 526 965 618 965 q 351 924 431 965 q 214 817 271 883 q 126 665 157 750 q 94 493 94 581 z "},"ǫ":{"ha":814,"x_min":64,"x_max":750,"o":"m 369 -233 q 316 -203 335 -225 q 297 -149 297 -181 q 319 -85 297 -117 q 393 -14 342 -54 q 264 20 324 -11 q 160 101 204 51 q 90 218 115 151 q 64 358 64 285 q 91 502 64 435 q 165 621 118 569 q 275 702 213 672 q 407 732 338 732 q 539 702 476 732 q 648 621 601 672 q 722 502 694 569 q 750 358 750 435 q 726 223 750 288 q 659 108 701 158 q 560 26 617 58 q 438 -12 503 -7 q 350 -84 375 -56 q 325 -144 325 -112 q 386 -210 325 -197 l 369 -233 m 92 356 q 117 224 92 286 q 184 115 142 161 q 283 41 226 68 q 406 14 340 14 q 527 42 469 14 q 628 117 585 69 q 697 226 672 164 q 722 360 722 289 q 697 492 722 429 q 629 601 672 554 q 528 676 586 649 q 407 704 471 704 q 285 676 343 704 q 185 601 228 649 q 117 490 142 553 q 92 356 92 426 z "},"Ǳ":{"ha":1829,"x_min":138,"x_max":1789,"o":"m 138 0 l 138 986 l 454 986 q 658 947 571 986 q 802 842 744 908 q 888 685 860 775 q 917 494 917 596 q 884 291 917 382 q 792 135 851 200 q 646 35 732 71 q 454 0 560 0 l 138 0 m 889 494 q 860 681 889 596 q 776 827 832 765 q 640 924 721 889 q 454 958 558 958 l 165 958 l 165 28 l 454 28 q 642 63 561 28 q 778 161 724 99 q 861 309 833 224 q 889 494 889 394 m 1001 28 l 1754 958 l 1008 958 l 1008 986 l 1789 986 l 1789 958 l 1036 28 l 1783 28 l 1783 0 l 1001 0 l 1001 28 z "},"ǲ":{"ha":1665,"x_min":138,"x_max":1618,"o":"m 138 0 l 138 986 l 454 986 q 658 947 571 986 q 802 842 744 908 q 888 685 860 775 q 917 494 917 596 q 884 291 917 382 q 792 135 851 200 q 646 35 732 71 q 454 0 560 0 l 138 0 m 889 494 q 860 681 889 596 q 776 827 832 765 q 640 924 721 889 q 454 958 558 958 l 165 958 l 165 28 l 454 28 q 642 63 561 28 q 778 161 724 99 q 861 309 833 224 q 889 494 889 394 m 1033 28 l 1583 693 l 1040 693 l 1040 721 l 1618 721 l 1618 693 l 1069 28 l 1613 28 l 1613 0 l 1033 0 l 1033 28 z "},"ǳ":{"ha":1517,"x_min":64,"x_max":1469,"o":"m 411 -14 q 272 18 336 -14 q 162 103 208 50 q 90 222 115 156 q 64 358 64 289 q 89 501 64 433 q 159 619 114 568 q 265 701 204 671 q 399 732 326 732 q 492 717 449 732 q 574 678 536 703 q 641 622 611 654 q 693 553 671 589 l 693 1014 l 721 1014 l 721 56 q 743 28 721 28 l 743 0 q 725 3 731 0 q 701 24 710 10 q 693 56 693 39 l 693 150 q 638 84 669 114 q 570 32 607 54 q 493 -2 533 10 q 411 -14 453 -14 m 411 14 q 501 32 453 14 q 592 80 550 50 q 662 150 633 110 q 693 235 690 190 l 693 494 q 646 576 678 538 q 574 642 614 614 q 488 688 533 671 q 399 704 442 704 q 272 674 328 704 q 175 596 215 644 q 113 485 135 547 q 92 358 92 422 q 117 228 92 290 q 185 119 142 167 q 286 42 228 71 q 411 14 344 14 m 885 28 l 1435 693 l 892 693 l 892 721 l 1469 721 l 1469 693 l 921 28 l 1464 28 l 1464 0 l 885 0 l 885 28 z "},"Ǵ":{"ha":1000,"x_min":67,"x_max":915,"o":"m 888 168 q 532 -7 733 -7 q 344 37 429 -7 q 197 151 258 81 q 101 312 135 222 q 67 493 67 401 q 100 679 67 589 q 192 840 133 769 q 334 951 251 910 q 515 993 417 993 q 651 977 592 993 q 757 933 711 961 q 835 865 803 904 q 892 778 868 825 l 865 769 q 719 919 808 874 q 515 965 631 965 q 340 924 418 965 q 208 817 263 883 q 124 665 153 750 q 94 493 94 581 q 128 315 94 400 q 222 164 163 229 q 361 60 282 99 q 532 21 440 21 q 717 65 629 21 q 888 207 804 110 l 888 442 l 656 442 l 656 469 l 915 469 l 915 0 l 888 0 l 888 168 m 493 1157 l 471 1174 l 560 1275 l 607 1275 l 493 1157 z "},"ǵ":{"ha":838,"x_min":64,"x_max":721,"o":"m 411 -14 q 272 18 336 -14 q 162 103 208 50 q 90 222 115 156 q 64 358 64 289 q 88 498 64 431 q 157 617 113 565 q 263 701 201 669 q 399 732 325 732 q 490 718 447 732 q 569 680 532 704 q 636 623 606 656 q 693 553 667 590 l 693 721 l 721 721 l 721 -31 q 694 -154 721 -101 q 624 -242 668 -207 q 522 -293 579 -276 q 403 -310 464 -310 q 203 -262 275 -310 q 90 -137 131 -215 l 117 -129 q 238 -247 161 -211 q 403 -282 315 -282 q 515 -266 463 -282 q 608 -218 568 -250 q 670 -140 647 -186 q 693 -31 693 -93 l 693 150 q 638 84 669 114 q 570 32 607 54 q 493 -2 533 10 q 411 -14 453 -14 m 411 14 q 512 34 463 14 q 600 86 561 54 q 665 157 639 118 q 693 235 690 196 l 693 494 q 645 578 676 540 q 575 644 614 617 q 490 688 536 672 q 399 704 444 704 q 268 673 325 704 q 172 592 211 642 q 113 481 133 543 q 92 358 92 419 q 117 228 92 290 q 185 119 142 167 q 286 42 228 71 q 411 14 344 14 m 389 896 l 367 913 l 456 1014 l 503 1014 l 389 896 z "},"Ǻ":{"ha":936,"x_min":25,"x_max":910,"o":"m 389 1043 q 412 1099 389 1076 q 468 1122 435 1122 q 524 1099 501 1122 q 547 1043 547 1076 q 531 994 547 1015 q 489 967 514 974 l 910 0 l 879 0 l 725 353 l 210 353 l 56 0 l 25 0 l 447 967 q 405 994 421 974 q 389 1043 389 1015 m 713 381 l 468 946 l 221 381 l 713 381 m 468 1100 q 428 1085 444 1100 q 411 1043 411 1069 q 426 1003 411 1019 q 463 986 440 988 l 472 986 q 508 1003 492 988 q 525 1043 525 1019 q 508 1085 525 1069 q 468 1100 492 1100 m 449 1157 l 426 1174 l 515 1275 l 563 1275 l 449 1157 z "},"ǻ":{"ha":728,"x_min":54,"x_max":643,"o":"m 288 -14 q 196 3 239 -14 q 122 51 153 21 q 72 121 90 81 q 54 207 54 161 q 76 290 54 253 q 137 355 97 328 q 231 397 176 382 q 351 413 286 413 q 478 402 414 413 q 593 372 542 392 l 593 454 q 576 556 593 510 q 528 635 560 603 q 453 686 497 668 q 357 704 410 704 q 244 681 304 704 q 124 615 185 658 l 107 638 q 357 732 246 732 q 466 713 417 732 q 549 657 515 693 q 602 569 583 621 q 621 454 621 518 l 621 56 q 643 28 621 28 l 643 0 q 624 3 628 0 q 601 23 610 8 q 593 56 593 38 l 593 122 q 463 22 543 57 q 288 -14 382 -14 m 288 14 q 458 49 381 14 q 572 142 535 83 q 593 199 593 171 l 593 342 q 351 385 482 385 q 241 372 290 385 q 156 336 192 360 q 101 280 121 313 q 82 207 82 247 q 98 131 82 167 q 142 69 114 96 q 207 28 169 43 q 288 14 244 14 m 278 935 q 301 991 278 968 q 357 1014 324 1014 q 413 991 390 1014 q 436 935 436 968 q 413 878 436 901 q 357 856 390 856 q 301 878 324 856 q 278 935 278 901 m 357 992 q 317 976 333 992 q 300 935 300 961 q 317 894 300 911 q 357 878 333 878 q 396 894 378 878 q 414 935 414 910 q 397 976 414 961 q 357 992 381 992 m 338 1083 l 315 1100 l 404 1201 l 451 1201 l 338 1083 z "},"Ǽ":{"ha":1336,"x_min":-40,"x_max":1264,"o":"m 610 986 l 1251 986 l 1251 958 l 644 958 l 644 518 l 1176 518 l 1176 490 l 644 490 l 644 28 l 1264 28 l 1264 0 l 617 0 l 617 353 l 226 353 l -6 0 l -40 0 l 610 986 m 617 381 l 617 942 l 243 381 l 617 381 m 625 1157 l 603 1174 l 692 1275 l 739 1275 l 625 1157 z "},"ǽ":{"ha":1289,"x_min":54,"x_max":1240,"o":"m 288 -14 q 196 3 239 -14 q 122 51 153 21 q 72 121 90 81 q 54 207 54 161 q 76 290 54 253 q 137 355 97 328 q 231 397 176 382 q 351 413 286 413 q 454 405 401 413 q 553 385 507 397 q 585 522 557 456 q 506 655 567 606 q 357 704 446 704 q 244 681 304 704 q 124 615 185 658 l 107 638 q 357 732 246 732 q 514 687 450 732 q 604 560 578 642 q 725 685 649 638 q 893 732 801 732 q 1028 703 965 732 q 1138 624 1092 674 q 1213 506 1185 574 q 1240 360 1240 438 l 1240 344 l 581 344 q 613 215 586 275 q 683 110 640 154 q 783 40 726 65 q 901 14 839 14 q 983 25 943 14 q 1057 56 1022 36 q 1118 104 1092 76 q 1160 165 1144 132 l 1186 158 q 1142 90 1171 121 q 1076 35 1114 58 q 992 -1 1038 13 q 900 -14 947 -14 q 735 32 810 -14 q 613 154 660 78 q 553 78 590 110 q 472 26 517 46 q 380 -4 428 6 q 288 -14 332 -14 m 288 14 q 458 49 381 14 q 572 142 535 83 q 593 190 589 167 q 553 356 554 267 q 351 385 457 385 q 241 372 290 385 q 156 336 192 360 q 101 280 121 313 q 82 207 82 247 q 98 131 82 167 q 142 69 114 96 q 207 28 169 43 q 288 14 244 14 m 1211 372 q 1181 506 1207 444 q 1112 610 1154 567 q 1014 679 1069 654 q 894 704 958 704 q 775 679 831 704 q 677 610 719 654 q 610 504 635 565 q 581 372 585 443 l 1211 372 m 586 896 l 564 913 l 653 1014 l 700 1014 l 586 896 z "},"Ǿ":{"ha":1051,"x_min":67,"x_max":985,"o":"m 860 986 l 800 892 q 877 810 843 856 q 935 713 911 764 q 972 605 960 661 q 985 493 985 549 q 949 303 985 393 q 852 144 914 213 q 707 34 790 75 q 526 -7 624 -7 q 391 16 454 -6 q 275 75 328 38 l 226 0 l 192 0 l 251 93 q 115 270 164 164 q 67 493 67 376 q 102 682 67 592 q 199 842 138 772 q 345 952 261 911 q 526 993 429 993 q 660 972 597 993 q 775 911 722 950 l 824 986 l 860 986 m 957 493 q 910 702 957 603 q 785 868 864 801 l 289 99 q 399 42 339 63 q 526 21 458 21 q 702 62 622 21 q 838 169 782 103 q 926 321 894 236 q 957 493 957 406 m 94 493 q 140 283 94 382 q 265 117 186 183 l 760 888 q 651 944 710 924 q 526 965 593 965 q 351 924 431 965 q 214 817 271 883 q 126 665 157 750 q 94 493 94 581 m 507 1157 l 485 1174 l 574 1275 l 621 1275 l 507 1157 z "},"ǿ":{"ha":814,"x_min":64,"x_max":750,"o":"m 388 896 l 365 913 l 454 1014 l 501 1014 l 388 896 m 171 0 l 206 57 q 102 188 140 110 q 64 358 64 267 q 91 502 64 435 q 165 621 118 569 q 275 702 213 672 q 407 732 338 732 q 500 717 456 732 q 583 676 544 703 l 611 721 l 647 721 l 608 658 q 711 528 672 606 q 750 358 750 450 q 723 215 750 283 q 649 97 696 147 q 540 16 603 46 q 407 -14 478 -14 q 313 0 358 -14 q 229 40 268 14 l 206 0 l 171 0 m 92 356 q 126 200 92 272 q 219 81 161 128 l 569 653 q 492 690 533 676 q 407 704 451 704 q 285 676 343 704 q 185 601 228 649 q 117 490 142 553 q 92 356 92 426 m 406 14 q 527 42 469 14 q 628 117 585 69 q 697 226 672 164 q 722 360 722 289 q 688 514 722 443 q 594 633 653 585 l 244 64 q 406 14 318 14 z "},"Ȁ":{"ha":936,"x_min":25,"x_max":910,"o":"m 456 986 l 481 986 l 910 0 l 879 0 l 725 353 l 210 353 l 56 0 l 25 0 l 456 986 m 713 381 l 468 946 l 221 381 l 713 381 m 418 1275 l 465 1275 l 554 1174 l 532 1157 l 418 1275 m 279 1275 l 326 1275 l 415 1174 l 393 1157 l 279 1275 z "},"ȁ":{"ha":728,"x_min":54,"x_max":643,"o":"m 288 -14 q 196 3 239 -14 q 122 51 153 21 q 72 121 90 81 q 54 207 54 161 q 76 290 54 253 q 137 355 97 328 q 231 397 176 382 q 351 413 286 413 q 478 402 414 413 q 593 372 542 392 l 593 454 q 576 556 593 510 q 528 635 560 603 q 453 686 497 668 q 357 704 410 704 q 244 681 304 704 q 124 615 185 658 l 107 638 q 357 732 246 732 q 466 713 417 732 q 549 657 515 693 q 602 569 583 621 q 621 454 621 518 l 621 56 q 643 28 621 28 l 643 0 q 624 3 628 0 q 601 23 610 8 q 593 56 593 38 l 593 122 q 463 22 543 57 q 288 -14 382 -14 m 288 14 q 458 49 381 14 q 572 142 535 83 q 593 199 593 171 l 593 342 q 351 385 482 385 q 241 372 290 385 q 156 336 192 360 q 101 280 121 313 q 82 207 82 247 q 98 131 82 167 q 142 69 114 96 q 207 28 169 43 q 288 14 244 14 m 314 1014 l 361 1014 l 450 913 l 428 896 l 314 1014 m 175 1014 l 222 1014 l 311 913 l 289 896 l 175 1014 z "},"Ȃ":{"ha":936,"x_min":25,"x_max":910,"o":"m 456 986 l 481 986 l 910 0 l 879 0 l 725 353 l 210 353 l 56 0 l 25 0 l 456 986 m 713 381 l 468 946 l 221 381 l 713 381 m 468 1251 q 415 1226 439 1251 q 392 1168 392 1200 l 365 1168 q 374 1208 365 1189 q 397 1242 382 1228 q 429 1266 411 1257 q 468 1275 447 1275 q 507 1266 489 1275 q 540 1242 525 1257 q 563 1208 554 1228 q 571 1168 571 1189 l 546 1168 q 519 1227 542 1203 q 468 1251 496 1251 z "},"ȃ":{"ha":728,"x_min":54,"x_max":643,"o":"m 288 -14 q 196 3 239 -14 q 122 51 153 21 q 72 121 90 81 q 54 207 54 161 q 76 290 54 253 q 137 355 97 328 q 231 397 176 382 q 351 413 286 413 q 478 402 414 413 q 593 372 542 392 l 593 454 q 576 556 593 510 q 528 635 560 603 q 453 686 497 668 q 357 704 410 704 q 244 681 304 704 q 124 615 185 658 l 107 638 q 357 732 246 732 q 466 713 417 732 q 549 657 515 693 q 602 569 583 621 q 621 454 621 518 l 621 56 q 643 28 621 28 l 643 0 q 624 3 628 0 q 601 23 610 8 q 593 56 593 38 l 593 122 q 463 22 543 57 q 288 -14 382 -14 m 288 14 q 458 49 381 14 q 572 142 535 83 q 593 199 593 171 l 593 342 q 351 385 482 385 q 241 372 290 385 q 156 336 192 360 q 101 280 121 313 q 82 207 82 247 q 98 131 82 167 q 142 69 114 96 q 207 28 169 43 q 288 14 244 14 m 354 990 q 301 965 325 990 q 278 907 278 939 l 251 907 q 260 947 251 928 q 283 981 268 967 q 315 1005 297 996 q 354 1014 333 1014 q 393 1005 375 1014 q 426 981 411 996 q 449 947 440 967 q 457 907 457 928 l 432 907 q 405 966 428 942 q 354 990 382 990 z "},"Ȅ":{"ha":857,"x_min":138,"x_max":785,"o":"m 785 28 l 785 0 l 138 0 l 138 986 l 772 986 l 772 958 l 165 958 l 165 518 l 697 518 l 697 490 l 165 490 l 165 28 l 785 28 m 422 1275 l 469 1275 l 558 1174 l 536 1157 l 422 1275 m 283 1275 l 331 1275 l 419 1174 l 397 1157 l 283 1275 z "},"ȅ":{"ha":800,"x_min":64,"x_max":751,"o":"m 411 -14 q 277 16 340 -14 q 167 98 214 46 q 92 219 119 150 q 64 365 64 288 q 90 508 64 442 q 163 625 117 575 q 272 703 210 675 q 404 732 333 732 q 540 703 476 732 q 649 624 603 674 q 724 506 696 574 q 751 360 751 438 l 751 344 l 92 344 q 124 215 97 275 q 194 110 151 154 q 294 40 238 65 q 413 14 350 14 q 494 25 454 14 q 568 56 533 36 q 629 104 603 76 q 671 165 656 132 l 697 158 q 653 90 682 121 q 587 35 625 58 q 503 -1 549 13 q 411 -14 458 -14 m 722 372 q 692 506 718 444 q 623 610 665 567 q 525 679 581 654 q 406 704 469 704 q 286 679 342 704 q 188 610 231 654 q 121 504 146 565 q 92 372 96 443 l 722 372 m 361 1014 l 408 1014 l 497 913 l 475 896 l 361 1014 m 222 1014 l 269 1014 l 358 913 l 336 896 l 222 1014 z "},"Ȇ":{"ha":857,"x_min":138,"x_max":785,"o":"m 785 28 l 785 0 l 138 0 l 138 986 l 772 986 l 772 958 l 165 958 l 165 518 l 697 518 l 697 490 l 165 490 l 165 28 l 785 28 m 457 1251 q 404 1226 428 1251 q 381 1168 381 1200 l 354 1168 q 363 1208 354 1189 q 385 1242 371 1228 q 418 1266 400 1257 q 457 1275 436 1275 q 496 1266 478 1275 q 528 1242 514 1257 q 551 1208 543 1228 q 560 1168 560 1189 l 535 1168 q 508 1227 531 1203 q 457 1251 485 1251 z "},"ȇ":{"ha":800,"x_min":64,"x_max":751,"o":"m 411 -14 q 277 16 340 -14 q 167 98 214 46 q 92 219 119 150 q 64 365 64 288 q 90 508 64 442 q 163 625 117 575 q 272 703 210 675 q 404 732 333 732 q 540 703 476 732 q 649 624 603 674 q 724 506 696 574 q 751 360 751 438 l 751 344 l 92 344 q 124 215 97 275 q 194 110 151 154 q 294 40 238 65 q 413 14 350 14 q 494 25 454 14 q 568 56 533 36 q 629 104 603 76 q 671 165 656 132 l 697 158 q 653 90 682 121 q 587 35 625 58 q 503 -1 549 13 q 411 -14 458 -14 m 722 372 q 692 506 718 444 q 623 610 665 567 q 525 679 581 654 q 406 704 469 704 q 286 679 342 704 q 188 610 231 654 q 121 504 146 565 q 92 372 96 443 l 722 372 m 403 990 q 350 965 374 990 q 326 907 326 939 l 300 907 q 308 947 300 928 q 331 981 317 967 q 364 1005 346 996 q 403 1014 382 1014 q 442 1005 424 1014 q 474 981 460 996 q 497 947 489 967 q 506 907 506 928 l 481 907 q 453 966 476 942 q 403 990 431 990 z "},"Ȉ":{"ha":303,"x_min":-26,"x_max":249,"o":"m 138 0 l 138 986 l 165 986 l 165 0 l 138 0 m 113 1275 l 160 1275 l 249 1174 l 226 1157 l 113 1275 m -26 1275 l 21 1275 l 110 1174 l 88 1157 l -26 1275 z "},"ȉ":{"ha":261,"x_min":-49,"x_max":226,"o":"m 117 0 l 117 721 l 144 721 l 144 0 l 117 0 m 90 1014 l 138 1014 l 226 913 l 204 896 l 90 1014 m -49 1014 l -1 1014 l 88 913 l 65 896 l -49 1014 z "},"Ȋ":{"ha":303,"x_min":49,"x_max":254,"o":"m 138 0 l 138 986 l 165 986 l 165 0 l 138 0 m 151 1251 q 99 1226 122 1251 q 75 1168 75 1200 l 49 1168 q 57 1208 49 1189 q 80 1242 65 1228 q 113 1266 94 1257 q 151 1275 131 1275 q 190 1266 172 1275 q 223 1242 208 1257 q 246 1208 238 1228 q 254 1168 254 1189 l 229 1168 q 202 1227 225 1203 q 151 1251 179 1251 z "},"ȋ":{"ha":261,"x_min":26,"x_max":232,"o":"m 117 0 l 117 721 l 144 721 l 144 0 l 117 0 m 129 990 q 76 965 100 990 q 53 907 53 939 l 26 907 q 35 947 26 928 q 58 981 43 967 q 90 1005 72 996 q 129 1014 108 1014 q 168 1005 150 1014 q 201 981 186 996 q 224 947 215 967 q 232 907 232 928 l 207 907 q 180 966 203 942 q 129 990 157 990 z "},"Ȍ":{"ha":1051,"x_min":67,"x_max":985,"o":"m 526 -7 q 340 36 424 -7 q 194 149 256 79 q 100 308 133 218 q 67 493 67 399 q 102 682 67 592 q 199 842 138 772 q 345 952 261 911 q 526 993 429 993 q 713 949 628 993 q 858 835 797 906 q 951 674 918 764 q 985 493 985 585 q 949 303 985 393 q 852 144 914 213 q 707 34 790 75 q 526 -7 624 -7 m 94 493 q 127 316 94 401 q 217 165 160 231 q 353 60 274 99 q 526 21 432 21 q 702 62 622 21 q 838 169 782 103 q 926 321 894 236 q 957 493 957 406 q 924 670 957 585 q 833 822 892 756 q 697 926 775 888 q 526 965 618 965 q 351 924 431 965 q 214 817 271 883 q 126 665 157 750 q 94 493 94 581 m 489 1275 l 536 1275 l 625 1174 l 603 1157 l 489 1275 m 350 1275 l 397 1275 l 486 1174 l 464 1157 l 350 1275 z "},"ȍ":{"ha":814,"x_min":64,"x_max":750,"o":"m 407 -14 q 274 16 336 -14 q 165 97 211 46 q 91 215 118 147 q 64 358 64 283 q 91 502 64 435 q 165 621 118 569 q 275 702 213 672 q 407 732 338 732 q 539 702 476 732 q 648 621 601 672 q 722 502 694 569 q 750 358 750 435 q 723 215 750 283 q 649 97 696 147 q 540 16 603 46 q 407 -14 478 -14 m 92 356 q 117 224 92 286 q 184 115 142 161 q 283 41 226 68 q 406 14 340 14 q 527 42 469 14 q 628 117 585 69 q 697 226 672 164 q 722 360 722 289 q 697 492 722 429 q 629 601 672 554 q 528 676 586 649 q 407 704 471 704 q 285 676 343 704 q 185 601 228 649 q 117 490 142 553 q 92 356 92 426 m 374 1014 l 421 1014 l 510 913 l 488 896 l 374 1014 m 235 1014 l 282 1014 l 371 913 l 349 896 l 235 1014 z "},"Ȏ":{"ha":1051,"x_min":67,"x_max":985,"o":"m 526 -7 q 340 36 424 -7 q 194 149 256 79 q 100 308 133 218 q 67 493 67 399 q 102 682 67 592 q 199 842 138 772 q 345 952 261 911 q 526 993 429 993 q 713 949 628 993 q 858 835 797 906 q 951 674 918 764 q 985 493 985 585 q 949 303 985 393 q 852 144 914 213 q 707 34 790 75 q 526 -7 624 -7 m 94 493 q 127 316 94 401 q 217 165 160 231 q 353 60 274 99 q 526 21 432 21 q 702 62 622 21 q 838 169 782 103 q 926 321 894 236 q 957 493 957 406 q 924 670 957 585 q 833 822 892 756 q 697 926 775 888 q 526 965 618 965 q 351 924 431 965 q 214 817 271 883 q 126 665 157 750 q 94 493 94 581 m 522 1251 q 469 1226 493 1251 q 446 1168 446 1200 l 419 1168 q 428 1208 419 1189 q 451 1242 436 1228 q 483 1266 465 1257 q 522 1275 501 1275 q 561 1266 543 1275 q 594 1242 579 1257 q 617 1208 608 1228 q 625 1168 625 1189 l 600 1168 q 573 1227 596 1203 q 522 1251 550 1251 z "},"ȏ":{"ha":814,"x_min":64,"x_max":750,"o":"m 407 -14 q 274 16 336 -14 q 165 97 211 46 q 91 215 118 147 q 64 358 64 283 q 91 502 64 435 q 165 621 118 569 q 275 702 213 672 q 407 732 338 732 q 539 702 476 732 q 648 621 601 672 q 722 502 694 569 q 750 358 750 435 q 723 215 750 283 q 649 97 696 147 q 540 16 603 46 q 407 -14 478 -14 m 92 356 q 117 224 92 286 q 184 115 142 161 q 283 41 226 68 q 406 14 340 14 q 527 42 469 14 q 628 117 585 69 q 697 226 672 164 q 722 360 722 289 q 697 492 722 429 q 629 601 672 554 q 528 676 586 649 q 407 704 471 704 q 285 676 343 704 q 185 601 228 649 q 117 490 142 553 q 92 356 92 426 m 401 990 q 349 965 372 990 q 325 907 325 939 l 299 907 q 307 947 299 928 q 330 981 315 967 q 363 1005 344 996 q 401 1014 381 1014 q 440 1005 422 1014 q 473 981 458 996 q 496 947 488 967 q 504 907 504 928 l 479 907 q 452 966 475 942 q 401 990 429 990 z "},"Ȑ":{"ha":892,"x_min":138,"x_max":817,"o":"m 138 0 l 138 986 l 539 986 q 650 960 599 986 q 738 892 701 935 q 796 797 775 850 q 817 688 817 743 q 799 578 817 631 q 747 484 781 525 q 667 417 714 443 q 565 388 621 392 l 815 0 l 782 0 l 532 388 l 165 388 l 165 0 l 138 0 m 165 415 l 549 415 q 649 439 604 415 q 724 501 693 463 q 772 588 756 539 q 789 688 789 636 q 769 789 789 740 q 716 875 750 838 q 636 935 682 913 q 539 958 590 958 l 165 958 l 165 415 m 414 1275 l 461 1275 l 550 1174 l 528 1157 l 414 1275 m 275 1275 l 322 1275 l 411 1174 l 389 1157 l 275 1275 z "},"ȑ":{"ha":449,"x_min":82,"x_max":425,"o":"m 425 693 q 248 626 322 689 q 144 456 174 564 l 144 0 l 117 0 l 117 721 l 144 721 l 144 535 q 245 660 182 611 q 379 718 308 710 q 405 720 393 719 q 425 721 417 721 l 425 693 m 221 1014 l 268 1014 l 357 913 l 335 896 l 221 1014 m 82 1014 l 129 1014 l 218 913 l 196 896 l 82 1014 z "},"Ȓ":{"ha":892,"x_min":138,"x_max":817,"o":"m 138 0 l 138 986 l 539 986 q 650 960 599 986 q 738 892 701 935 q 796 797 775 850 q 817 688 817 743 q 799 578 817 631 q 747 484 781 525 q 667 417 714 443 q 565 388 621 392 l 815 0 l 782 0 l 532 388 l 165 388 l 165 0 l 138 0 m 165 415 l 549 415 q 649 439 604 415 q 724 501 693 463 q 772 588 756 539 q 789 688 789 636 q 769 789 789 740 q 716 875 750 838 q 636 935 682 913 q 539 958 590 958 l 165 958 l 165 415 m 444 1251 q 392 1226 415 1251 q 368 1168 368 1200 l 342 1168 q 350 1208 342 1189 q 373 1242 358 1228 q 406 1266 388 1257 q 444 1275 424 1275 q 483 1266 465 1275 q 516 1242 501 1257 q 539 1208 531 1228 q 547 1168 547 1189 l 522 1168 q 495 1227 518 1203 q 444 1251 472 1251 z "},"ȓ":{"ha":449,"x_min":117,"x_max":425,"o":"m 425 693 q 248 626 322 689 q 144 456 174 564 l 144 0 l 117 0 l 117 721 l 144 721 l 144 535 q 245 660 182 611 q 379 718 308 710 q 405 720 393 719 q 425 721 417 721 l 425 693 m 257 990 q 204 965 228 990 q 181 907 181 939 l 154 907 q 163 947 154 928 q 185 981 171 967 q 218 1005 200 996 q 257 1014 236 1014 q 296 1005 278 1014 q 328 981 314 996 q 351 947 343 967 q 360 907 360 928 l 335 907 q 308 966 331 942 q 257 990 285 990 z "},"Ȕ":{"ha":1050,"x_min":122,"x_max":929,"o":"m 525 21 q 709 63 636 21 q 824 171 782 104 q 884 322 867 238 q 901 493 901 407 l 901 986 l 929 986 l 929 493 q 909 304 929 394 q 842 145 889 214 q 717 35 794 76 q 526 -7 640 -7 q 332 36 410 -7 q 208 150 254 79 q 142 310 161 221 q 122 493 122 400 l 122 986 l 150 986 l 150 493 q 167 319 150 404 q 228 168 185 235 q 343 61 271 101 q 525 21 415 21 m 500 1275 l 547 1275 l 636 1174 l 614 1157 l 500 1275 m 361 1275 l 408 1275 l 497 1174 l 475 1157 l 361 1275 z "},"ȕ":{"ha":800,"x_min":108,"x_max":704,"o":"m 340 -14 q 108 317 108 -14 l 108 721 l 136 721 l 136 317 q 340 14 136 14 q 442 33 392 14 q 533 84 492 51 q 606 163 575 117 q 654 263 638 208 l 654 721 l 682 721 l 682 56 q 704 28 682 28 l 704 0 q 685 3 689 0 q 663 23 671 8 q 654 56 654 38 l 654 183 q 522 39 607 92 q 340 -14 438 -14 m 349 1014 l 396 1014 l 485 913 l 463 896 l 349 1014 m 210 1014 l 257 1014 l 346 913 l 324 896 l 210 1014 z "},"Ȗ":{"ha":1050,"x_min":122,"x_max":929,"o":"m 525 21 q 709 63 636 21 q 824 171 782 104 q 884 322 867 238 q 901 493 901 407 l 901 986 l 929 986 l 929 493 q 909 304 929 394 q 842 145 889 214 q 717 35 794 76 q 526 -7 640 -7 q 332 36 410 -7 q 208 150 254 79 q 142 310 161 221 q 122 493 122 400 l 122 986 l 150 986 l 150 493 q 167 319 150 404 q 228 168 185 235 q 343 61 271 101 q 525 21 415 21 m 525 1251 q 472 1226 496 1251 q 449 1168 449 1200 l 422 1168 q 431 1208 422 1189 q 453 1242 439 1228 q 486 1266 468 1257 q 525 1275 504 1275 q 564 1266 546 1275 q 597 1242 582 1257 q 619 1208 611 1228 q 628 1168 628 1189 l 603 1168 q 576 1227 599 1203 q 525 1251 553 1251 z "},"ȗ":{"ha":800,"x_min":108,"x_max":704,"o":"m 340 -14 q 108 317 108 -14 l 108 721 l 136 721 l 136 317 q 340 14 136 14 q 442 33 392 14 q 533 84 492 51 q 606 163 575 117 q 654 263 638 208 l 654 721 l 682 721 l 682 56 q 704 28 682 28 l 704 0 q 685 3 689 0 q 663 23 671 8 q 654 56 654 38 l 654 183 q 522 39 607 92 q 340 -14 438 -14 m 389 990 q 336 965 360 990 q 313 907 313 939 l 286 907 q 294 947 286 928 q 317 981 303 967 q 350 1005 332 996 q 389 1014 368 1014 q 428 1005 410 1014 q 460 981 446 996 q 483 947 475 967 q 492 907 492 928 l 467 907 q 440 966 463 942 q 389 990 417 990 z "},"Ș":{"ha":836,"x_min":54,"x_max":785,"o":"m 707 856 q 585 943 649 919 q 435 967 522 967 q 290 950 350 967 q 190 902 229 933 q 133 828 151 871 q 115 731 115 785 q 133 642 115 678 q 189 583 151 607 q 285 541 226 558 q 426 507 344 524 q 575 471 508 490 q 688 422 642 451 q 760 350 735 393 q 785 242 785 307 q 692 57 785 121 q 438 -7 600 -7 q 226 30 318 -7 q 54 146 133 67 l 75 164 q 238 51 150 86 q 439 17 326 17 q 672 72 586 17 q 757 238 757 126 q 738 331 757 293 q 678 397 718 369 q 575 444 638 425 q 428 481 513 464 q 283 513 346 496 q 176 558 219 531 q 110 626 132 585 q 88 728 88 667 q 112 841 88 792 q 181 924 136 890 q 290 976 226 958 q 432 993 353 993 q 597 966 526 993 q 725 875 667 939 l 707 856 m 415 -232 l 429 -151 l 417 -151 l 417 -69 l 453 -69 l 453 -151 l 435 -232 l 415 -232 z "},"ș":{"ha":654,"x_min":51,"x_max":594,"o":"m 326 -14 q 51 103 158 -14 l 72 121 q 188 40 128 67 q 326 14 249 14 q 500 60 433 14 q 567 189 567 106 q 550 253 567 228 q 501 298 533 279 q 422 330 469 317 q 315 357 375 343 q 214 383 257 371 q 142 413 171 394 q 99 458 114 431 q 85 528 85 485 q 106 620 85 582 q 161 683 126 658 q 242 720 196 708 q 339 732 288 732 q 488 702 426 732 q 574 628 550 672 l 549 617 q 463 682 522 660 q 333 704 403 704 q 249 694 289 704 q 178 664 208 685 q 130 610 147 643 q 113 532 113 578 q 124 473 113 496 q 161 435 136 450 q 225 408 186 419 q 317 385 264 397 q 433 356 381 369 q 520 321 485 342 q 575 270 556 300 q 594 193 594 240 q 575 108 594 146 q 521 42 556 69 q 436 1 486 15 q 326 -14 386 -14 m 303 -232 l 317 -151 l 304 -151 l 304 -69 l 340 -69 l 340 -151 l 322 -232 l 303 -232 z "},"Ț":{"ha":833,"x_min":25,"x_max":808,"o":"m 808 958 l 431 958 l 431 0 l 403 0 l 403 958 l 25 958 l 25 986 l 808 986 l 808 958 m 393 -232 l 407 -151 l 394 -151 l 394 -69 l 431 -69 l 431 -151 l 413 -232 l 393 -232 z "},"ț":{"ha":410,"x_min":36,"x_max":397,"o":"m 397 33 q 387 26 397 33 q 359 13 376 19 q 318 -1 342 6 q 265 -7 294 -7 q 178 24 215 -7 q 140 104 140 54 l 140 693 l 36 693 l 36 721 l 140 721 l 140 972 l 168 972 l 168 721 l 342 721 l 342 693 l 168 693 l 168 104 q 200 42 171 64 q 265 21 229 21 q 310 26 289 21 q 347 37 331 31 q 372 49 363 43 q 382 56 381 54 l 397 33 m 242 -232 l 256 -151 l 243 -151 l 243 -69 l 279 -69 l 279 -151 l 261 -232 l 242 -232 z "},"ȷ":{"ha":261,"x_min":-179,"x_max":144,"o":"m -40 -236 q -116 -226 -81 -236 q -179 -189 -151 -217 l -157 -172 q -101 -201 -132 -194 q -42 -208 -71 -208 q 15 -196 -12 -208 q 66 -162 43 -183 q 103 -112 89 -142 q 117 -50 117 -83 l 117 721 l 144 721 l 144 -50 q 128 -124 144 -90 q 85 -183 111 -158 q 25 -222 58 -208 q -40 -236 -8 -236 z "},"ə":{"ha":800,"x_min":49,"x_max":736,"o":"m 396 -14 q 260 15 324 -14 q 151 94 197 44 q 76 213 104 144 q 49 358 49 281 l 49 374 l 708 374 q 676 503 703 443 q 606 608 649 564 q 506 678 563 653 q 388 704 450 704 q 306 693 346 704 q 232 662 267 682 q 171 614 197 642 q 129 553 144 586 l 103 560 q 146 628 117 597 q 213 683 175 660 q 297 719 251 706 q 389 732 342 732 q 523 702 460 732 q 633 620 586 672 q 708 499 681 568 q 736 353 736 431 q 710 210 736 276 q 637 93 683 143 q 528 15 590 43 q 396 -14 467 -14 m 394 14 q 514 39 458 14 q 612 108 569 64 q 679 214 654 153 q 708 346 704 275 l 78 346 q 108 213 82 274 q 177 108 135 151 q 275 39 219 64 q 394 14 331 14 z "},"ʼ":{"ha":761,"x_min":326,"x_max":463,"o":"m 349 896 l 326 913 l 383 978 l 388 1014 l 463 1014 l 349 896 z "},"ˆ":{"ha":419,"x_min":69,"x_max":350,"o":"m 69 911 l 199 1014 l 221 1014 l 350 911 l 328 894 l 210 982 l 92 894 l 69 911 z "},"ˇ":{"ha":419,"x_min":69,"x_max":350,"o":"m 92 1014 l 210 926 l 328 1014 l 350 997 l 221 894 l 199 894 l 69 997 l 92 1014 z "},"ˉ":{"ha":528,"x_min":69,"x_max":458,"o":"m 69 953 l 69 981 l 458 981 l 458 953 l 69 953 z "},"˘":{"ha":344,"x_min":69,"x_max":275,"o":"m 172 931 q 223 955 200 931 q 250 1014 246 979 l 275 1014 q 267 974 275 993 q 244 940 258 954 q 211 916 229 925 q 172 907 193 907 q 133 916 151 907 q 101 940 115 925 q 78 974 86 954 q 69 1014 69 993 l 96 1014 q 119 956 96 982 q 172 931 143 931 z "},"˙":{"ha":167,"x_min":69,"x_max":97,"o":"m 69 907 l 69 1014 l 97 1014 l 97 907 l 69 907 z "},"˚":{"ha":331,"x_min":86,"x_max":244,"o":"m 86 935 q 109 991 86 968 q 165 1014 132 1014 q 222 991 199 1014 q 244 935 244 968 q 222 878 244 901 q 165 856 199 856 q 109 878 132 856 q 86 935 86 901 m 165 992 q 125 976 142 992 q 108 935 108 961 q 125 894 108 911 q 165 878 142 878 q 204 894 186 878 q 222 935 222 910 q 206 976 222 961 q 165 992 189 992 z "},"˛":{"ha":282,"x_min":67,"x_max":207,"o":"m 139 -221 q 85 -190 104 -212 q 67 -136 67 -168 q 95 -65 67 -100 q 190 19 124 -29 l 207 0 q 119 -72 144 -43 q 94 -132 94 -100 q 156 -197 94 -185 l 139 -221 l 139 -221 z "},"˜":{"ha":532,"x_min":74,"x_max":458,"o":"m 346 921 q 292 929 315 921 q 250 947 269 938 q 212 965 231 957 q 172 974 193 974 q 136 965 150 974 q 115 944 122 956 q 104 921 107 932 q 101 907 101 910 l 74 907 q 76 925 74 910 q 90 957 79 940 q 120 987 100 974 q 175 1000 140 1000 q 222 992 201 1000 q 263 974 243 983 q 302 956 282 964 q 349 947 322 947 q 394 957 378 947 q 418 978 410 967 q 428 1001 426 990 q 431 1014 431 1011 l 458 1014 q 455 994 458 1010 q 440 963 451 979 q 406 933 429 946 q 346 921 383 921 z "},"˝":{"ha":414,"x_min":69,"x_max":344,"o":"m 92 896 l 69 913 l 158 1014 l 206 1014 l 92 896 m 231 896 l 208 913 l 297 1014 l 344 1014 l 231 896 z "},"̏":{"ha":414,"x_min":69,"x_max":344,"o":"m 208 1014 l 256 1014 l 344 913 l 322 896 l 208 1014 m 69 1014 l 117 1014 l 206 913 l 183 896 l 69 1014 z "},"̑":{"ha":344,"x_min":69,"x_max":275,"o":"m 172 990 q 119 965 143 990 q 96 907 96 939 l 69 907 q 78 947 69 928 q 101 981 86 967 q 133 1005 115 996 q 172 1014 151 1014 q 211 1005 193 1014 q 244 981 229 996 q 267 947 258 967 q 275 907 275 928 l 250 907 q 223 966 246 942 q 172 990 200 990 z "},"Δ":{"ha":899,"x_min":33,"x_max":865,"o":"m 865 28 l 865 0 l 35 0 l 33 28 l 438 986 l 463 986 l 865 28 m 835 28 l 450 946 l 64 28 l 835 28 z "},"Ω":{"ha":1069,"x_min":68,"x_max":1001,"o":"m 68 29 l 372 29 q 247 110 303 60 q 153 222 192 160 q 95 358 115 285 q 75 507 75 431 q 110 691 75 603 q 206 846 144 779 q 351 953 267 913 q 535 993 435 993 q 719 953 635 993 q 864 846 803 913 q 960 691 925 779 q 994 507 994 603 q 974 358 994 431 q 916 222 954 285 q 822 110 878 160 q 697 29 767 60 l 1001 29 l 1001 0 l 600 0 l 600 29 q 758 96 689 47 q 872 211 826 144 q 942 355 918 278 q 965 507 965 432 q 935 674 965 592 q 850 819 906 756 q 715 923 794 883 q 535 963 635 963 q 355 923 435 963 q 219 819 275 883 q 134 674 164 756 q 104 507 104 592 q 128 355 104 432 q 197 211 151 278 q 311 96 243 144 q 469 29 379 47 l 469 0 l 68 0 l 68 29 z "},"μ":{"ha":808,"x_min":117,"x_max":713,"o":"m 117 721 l 144 721 l 144 317 q 349 14 144 14 q 450 33 400 14 q 542 84 500 51 q 615 163 583 117 q 663 263 646 208 l 663 721 l 690 721 l 690 56 q 713 28 690 28 l 713 0 q 693 3 697 0 q 671 23 679 8 q 663 56 663 38 l 663 183 q 531 39 615 92 q 349 -14 446 -14 q 144 131 197 -14 l 144 -294 l 117 -294 l 117 721 z "},"π":{"ha":751,"x_min":35,"x_max":721,"o":"m 174 693 l 174 0 l 146 0 l 146 693 l 35 693 l 35 721 l 696 721 l 696 693 l 543 693 l 543 107 q 568 43 543 67 q 635 19 593 19 q 672 23 650 19 q 711 32 693 26 l 721 10 q 673 -2 701 3 q 625 -7 644 -7 q 546 24 576 -7 q 515 107 515 56 l 515 693 l 174 693 z "},"Ḍ":{"ha":988,"x_min":138,"x_max":917,"o":"m 138 0 l 138 986 l 454 986 q 658 947 571 986 q 802 842 744 908 q 888 685 860 775 q 917 494 917 596 q 884 291 917 382 q 792 135 851 200 q 646 35 732 71 q 454 0 560 0 l 138 0 m 889 494 q 860 681 889 596 q 776 827 832 765 q 640 924 721 889 q 454 958 558 958 l 165 958 l 165 28 l 454 28 q 642 63 561 28 q 778 161 724 99 q 861 309 833 224 q 889 494 889 394 m 456 -176 l 456 -69 l 483 -69 l 483 -176 l 456 -176 z "},"ḍ":{"ha":839,"x_min":64,"x_max":743,"o":"m 411 -14 q 272 18 336 -14 q 162 103 208 50 q 90 222 115 156 q 64 358 64 289 q 89 501 64 433 q 159 619 114 568 q 265 701 204 671 q 399 732 326 732 q 492 717 449 732 q 574 678 536 703 q 641 622 611 654 q 693 553 671 589 l 693 1014 l 721 1014 l 721 56 q 743 28 721 28 l 743 0 q 725 3 731 0 q 701 24 710 10 q 693 56 693 39 l 693 150 q 638 84 669 114 q 570 32 607 54 q 493 -2 533 10 q 411 -14 453 -14 m 411 14 q 501 32 453 14 q 592 80 550 50 q 662 150 633 110 q 693 235 690 190 l 693 494 q 646 576 678 538 q 574 642 614 614 q 488 688 533 671 q 399 704 442 704 q 272 674 328 704 q 175 596 215 644 q 113 485 135 547 q 92 358 92 422 q 117 228 92 290 q 185 119 142 167 q 286 42 228 71 q 411 14 344 14 m 393 -176 l 393 -69 l 421 -69 l 421 -176 l 393 -176 z "},"Ḥ":{"ha":1015,"x_min":138,"x_max":878,"o":"m 878 986 l 878 0 l 850 0 l 850 490 l 165 490 l 165 0 l 138 0 l 138 986 l 165 986 l 165 518 l 850 518 l 850 986 l 878 986 m 503 -176 l 503 -69 l 531 -69 l 531 -176 l 503 -176 z "},"ḥ":{"ha":785,"x_min":117,"x_max":676,"o":"m 676 0 l 649 0 l 649 401 q 449 704 649 704 q 350 685 399 704 q 260 632 301 665 q 189 553 219 599 q 144 456 158 508 l 144 0 l 117 0 l 117 1014 l 144 1014 l 144 535 q 199 616 167 579 q 272 678 232 653 q 356 718 311 704 q 447 732 401 732 q 618 649 560 732 q 676 401 676 565 l 676 0 m 386 -176 l 386 -69 l 414 -69 l 414 -176 l 386 -176 z "},"Ṅ":{"ha":1078,"x_min":138,"x_max":940,"o":"m 165 932 l 165 0 l 138 0 l 138 986 l 158 986 l 913 40 l 913 986 l 940 986 l 940 0 l 908 0 l 165 932 m 532 1168 l 532 1275 l 560 1275 l 560 1168 l 532 1168 z "},"ṅ":{"ha":785,"x_min":117,"x_max":676,"o":"m 676 0 l 649 0 l 649 401 q 605 632 649 560 q 464 704 561 704 q 360 685 411 704 q 267 633 310 667 q 192 554 224 600 q 144 456 160 508 l 144 0 l 117 0 l 117 721 l 144 721 l 144 535 q 201 615 167 578 q 278 677 236 651 q 367 717 319 703 q 463 732 414 732 q 625 652 574 732 q 676 401 676 572 l 676 0 m 375 907 l 375 1014 l 403 1014 l 403 907 l 375 907 z "},"Ṛ":{"ha":892,"x_min":138,"x_max":817,"o":"m 138 0 l 138 986 l 539 986 q 650 960 599 986 q 738 892 701 935 q 796 797 775 850 q 817 688 817 743 q 799 578 817 631 q 747 484 781 525 q 667 417 714 443 q 565 388 621 392 l 815 0 l 782 0 l 532 388 l 165 388 l 165 0 l 138 0 m 165 415 l 549 415 q 649 439 604 415 q 724 501 693 463 q 772 588 756 539 q 789 688 789 636 q 769 789 789 740 q 716 875 750 838 q 636 935 682 913 q 539 958 590 958 l 165 958 l 165 415 m 436 -176 l 436 -69 l 464 -69 l 464 -176 l 436 -176 z "},"ṛ":{"ha":449,"x_min":117,"x_max":425,"o":"m 425 693 q 248 626 322 689 q 144 456 174 564 l 144 0 l 117 0 l 117 721 l 144 721 l 144 535 q 245 660 182 611 q 379 718 308 710 q 405 720 393 719 q 425 721 417 721 l 425 693 m 117 -176 l 117 -69 l 144 -69 l 144 -176 l 117 -176 z "},"Ṣ":{"ha":836,"x_min":54,"x_max":785,"o":"m 707 856 q 585 943 649 919 q 435 967 522 967 q 290 950 350 967 q 190 902 229 933 q 133 828 151 871 q 115 731 115 785 q 133 642 115 678 q 189 583 151 607 q 285 541 226 558 q 426 507 344 524 q 575 471 508 490 q 688 422 642 451 q 760 350 735 393 q 785 242 785 307 q 692 57 785 121 q 438 -7 600 -7 q 226 30 318 -7 q 54 146 133 67 l 75 164 q 238 51 150 86 q 439 17 326 17 q 672 72 586 17 q 757 238 757 126 q 738 331 757 293 q 678 397 718 369 q 575 444 638 425 q 428 481 513 464 q 283 513 346 496 q 176 558 219 531 q 110 626 132 585 q 88 728 88 667 q 112 841 88 792 q 181 924 136 890 q 290 976 226 958 q 432 993 353 993 q 597 966 526 993 q 725 875 667 939 l 707 856 m 422 -176 l 422 -69 l 450 -69 l 450 -176 l 422 -176 z "},"ṣ":{"ha":654,"x_min":51,"x_max":594,"o":"m 326 -14 q 51 103 158 -14 l 72 121 q 188 40 128 67 q 326 14 249 14 q 500 60 433 14 q 567 189 567 106 q 550 253 567 228 q 501 298 533 279 q 422 330 469 317 q 315 357 375 343 q 214 383 257 371 q 142 413 171 394 q 99 458 114 431 q 85 528 85 485 q 106 620 85 582 q 161 683 126 658 q 242 720 196 708 q 339 732 288 732 q 488 702 426 732 q 574 628 550 672 l 549 617 q 463 682 522 660 q 333 704 403 704 q 249 694 289 704 q 178 664 208 685 q 130 610 147 643 q 113 532 113 578 q 124 473 113 496 q 161 435 136 450 q 225 408 186 419 q 317 385 264 397 q 433 356 381 369 q 520 321 485 342 q 575 270 556 300 q 594 193 594 240 q 575 108 594 146 q 521 42 556 69 q 436 1 486 15 q 326 -14 386 -14 m 313 -176 l 313 -69 l 340 -69 l 340 -176 l 313 -176 z "},"Ṭ":{"ha":833,"x_min":25,"x_max":808,"o":"m 808 958 l 431 958 l 431 0 l 403 0 l 403 958 l 25 958 l 25 986 l 808 986 l 808 958 m 403 -176 l 403 -69 l 431 -69 l 431 -176 l 403 -176 z "},"ṭ":{"ha":410,"x_min":36,"x_max":397,"o":"m 397 33 q 387 26 397 33 q 359 13 376 19 q 318 -1 342 6 q 265 -7 294 -7 q 178 24 215 -7 q 140 104 140 54 l 140 693 l 36 693 l 36 721 l 140 721 l 140 972 l 168 972 l 168 721 l 342 721 l 342 693 l 168 693 l 168 104 q 200 42 171 64 q 265 21 229 21 q 310 26 289 21 q 347 37 331 31 q 372 49 363 43 q 382 56 381 54 l 397 33 m 242 -176 l 242 -69 l 269 -69 l 269 -176 l 242 -176 z "},"Ẁ":{"ha":1442,"x_min":26,"x_max":1415,"o":"m 529 978 l 560 978 l 719 608 l 881 978 l 911 978 l 735 575 l 971 35 l 1385 986 l 1415 986 l 986 0 l 956 0 l 721 540 l 486 0 l 456 0 l 26 986 l 57 986 l 471 35 l 706 575 l 529 978 m 625 1275 l 671 1275 l 761 1174 l 739 1157 l 625 1275 z "},"ẁ":{"ha":1103,"x_min":35,"x_max":1068,"o":"m 1038 721 l 1068 721 l 753 0 l 728 0 l 551 404 l 375 0 l 350 0 l 35 721 l 65 721 l 363 40 l 536 439 l 415 719 l 444 719 l 551 475 l 658 719 l 688 719 l 567 439 l 740 40 l 1038 721 m 457 1014 l 503 1014 l 593 913 l 571 896 l 457 1014 z "},"Ẃ":{"ha":1442,"x_min":26,"x_max":1415,"o":"m 529 978 l 560 978 l 719 608 l 881 978 l 911 978 l 735 575 l 971 35 l 1385 986 l 1415 986 l 986 0 l 956 0 l 721 540 l 486 0 l 456 0 l 26 986 l 57 986 l 471 35 l 706 575 l 529 978 m 700 1157 l 678 1174 l 767 1275 l 814 1275 l 700 1157 z "},"ẃ":{"ha":1103,"x_min":35,"x_max":1068,"o":"m 1038 721 l 1068 721 l 753 0 l 728 0 l 551 404 l 375 0 l 350 0 l 35 721 l 65 721 l 363 40 l 536 439 l 415 719 l 444 719 l 551 475 l 658 719 l 688 719 l 567 439 l 740 40 l 1038 721 m 532 896 l 510 913 l 599 1014 l 646 1014 l 532 896 z "},"Ẅ":{"ha":1442,"x_min":26,"x_max":1415,"o":"m 529 978 l 560 978 l 719 608 l 881 978 l 911 978 l 735 575 l 971 35 l 1385 986 l 1415 986 l 986 0 l 956 0 l 721 540 l 486 0 l 456 0 l 26 986 l 57 986 l 471 35 l 706 575 l 529 978 m 625 1168 l 625 1275 l 653 1275 l 653 1168 l 625 1168 m 786 1168 l 786 1275 l 814 1275 l 814 1168 l 786 1168 z "},"ẅ":{"ha":1103,"x_min":35,"x_max":1068,"o":"m 1038 721 l 1068 721 l 753 0 l 728 0 l 551 404 l 375 0 l 350 0 l 35 721 l 65 721 l 363 40 l 536 439 l 415 719 l 444 719 l 551 475 l 658 719 l 688 719 l 567 439 l 740 40 l 1038 721 m 457 907 l 457 1014 l 485 1014 l 485 907 l 457 907 m 618 907 l 618 1014 l 646 1014 l 646 907 l 618 907 z "},"Ẓ":{"ha":867,"x_min":39,"x_max":826,"o":"m 39 28 l 792 958 l 46 958 l 46 986 l 826 986 l 826 958 l 74 28 l 821 28 l 821 0 l 39 0 l 39 28 m 426 -176 l 426 -69 l 454 -69 l 454 -176 l 426 -176 z "},"ẓ":{"ha":678,"x_min":46,"x_max":631,"o":"m 46 28 l 596 693 l 53 693 l 53 721 l 631 721 l 631 693 l 82 28 l 625 28 l 625 0 l 46 0 l 46 28 m 329 -176 l 329 -69 l 357 -69 l 357 -176 l 329 -176 z "},"Ẹ":{"ha":857,"x_min":138,"x_max":785,"o":"m 785 28 l 785 0 l 138 0 l 138 986 l 772 986 l 772 958 l 165 958 l 165 518 l 697 518 l 697 490 l 165 490 l 165 28 l 785 28 m 457 -176 l 457 -69 l 485 -69 l 485 -176 l 457 -176 z "},"ẹ":{"ha":800,"x_min":64,"x_max":751,"o":"m 411 -14 q 277 16 340 -14 q 167 98 214 46 q 92 219 119 150 q 64 365 64 288 q 90 508 64 442 q 163 625 117 575 q 272 703 210 675 q 404 732 333 732 q 540 703 476 732 q 649 624 603 674 q 724 506 696 574 q 751 360 751 438 l 751 344 l 92 344 q 124 215 97 275 q 194 110 151 154 q 294 40 238 65 q 413 14 350 14 q 494 25 454 14 q 568 56 533 36 q 629 104 603 76 q 671 165 656 132 l 697 158 q 653 90 682 121 q 587 35 625 58 q 503 -1 549 13 q 411 -14 458 -14 m 722 372 q 692 506 718 444 q 623 610 665 567 q 525 679 581 654 q 406 704 469 704 q 286 679 342 704 q 188 610 231 654 q 121 504 146 565 q 92 372 96 443 l 722 372 m 394 -176 l 394 -69 l 422 -69 l 422 -176 l 394 -176 z "},"Ẽ":{"ha":857,"x_min":138,"x_max":785,"o":"m 785 28 l 785 0 l 138 0 l 138 986 l 772 986 l 772 958 l 165 958 l 165 518 l 697 518 l 697 490 l 165 490 l 165 28 l 785 28 m 563 1182 q 509 1190 532 1182 q 467 1208 486 1199 q 428 1226 447 1218 q 389 1235 410 1235 q 353 1226 367 1235 q 331 1205 339 1217 q 321 1182 324 1193 q 318 1168 318 1171 l 290 1168 q 293 1186 290 1171 q 306 1218 296 1201 q 337 1248 317 1235 q 392 1261 357 1261 q 439 1253 418 1261 q 479 1235 460 1244 q 519 1217 499 1225 q 565 1208 539 1208 q 610 1218 594 1208 q 635 1240 626 1228 q 645 1262 643 1251 q 647 1275 647 1272 l 675 1275 q 672 1256 675 1271 q 657 1224 668 1240 q 623 1194 646 1207 q 563 1182 600 1182 z "},"ẽ":{"ha":800,"x_min":64,"x_max":751,"o":"m 411 -14 q 277 16 340 -14 q 167 98 214 46 q 92 219 119 150 q 64 365 64 288 q 90 508 64 442 q 163 625 117 575 q 272 703 210 675 q 404 732 333 732 q 540 703 476 732 q 649 624 603 674 q 724 506 696 574 q 751 360 751 438 l 751 344 l 92 344 q 124 215 97 275 q 194 110 151 154 q 294 40 238 65 q 413 14 350 14 q 494 25 454 14 q 568 56 533 36 q 629 104 603 76 q 671 165 656 132 l 697 158 q 653 90 682 121 q 587 35 625 58 q 503 -1 549 13 q 411 -14 458 -14 m 722 372 q 692 506 718 444 q 623 610 665 567 q 525 679 581 654 q 406 704 469 704 q 286 679 342 704 q 188 610 231 654 q 121 504 146 565 q 92 372 96 443 l 722 372 m 490 921 q 437 929 460 921 q 394 947 414 938 q 356 965 375 957 q 317 974 338 974 q 281 965 294 974 q 259 944 267 956 q 249 921 251 932 q 246 907 246 910 l 218 907 q 221 925 218 910 q 234 957 224 940 q 265 987 244 974 q 319 1000 285 1000 q 367 992 346 1000 q 407 974 388 983 q 447 956 426 964 q 493 947 467 947 q 538 957 522 947 q 563 978 554 967 q 573 1001 571 990 q 575 1014 575 1011 l 603 1014 q 599 994 603 1010 q 585 963 596 979 q 551 933 574 946 q 490 921 528 921 z "},"Ị":{"ha":303,"x_min":138,"x_max":165,"o":"m 138 0 l 138 986 l 165 986 l 165 0 l 138 0 m 138 -176 l 138 -69 l 165 -69 l 165 -176 l 138 -176 z "},"ị":{"ha":261,"x_min":117,"x_max":144,"o":"m 117 0 l 117 721 l 144 721 l 144 0 l 117 0 m 117 907 l 117 1014 l 144 1014 l 144 907 l 117 907 m 117 -176 l 117 -69 l 144 -69 l 144 -176 l 117 -176 z "},"Ọ":{"ha":1051,"x_min":67,"x_max":985,"o":"m 526 -7 q 340 36 424 -7 q 194 149 256 79 q 100 308 133 218 q 67 493 67 399 q 102 682 67 592 q 199 842 138 772 q 345 952 261 911 q 526 993 429 993 q 713 949 628 993 q 858 835 797 906 q 951 674 918 764 q 985 493 985 585 q 949 303 985 393 q 852 144 914 213 q 707 34 790 75 q 526 -7 624 -7 m 94 493 q 127 316 94 401 q 217 165 160 231 q 353 60 274 99 q 526 21 432 21 q 702 62 622 21 q 838 169 782 103 q 926 321 894 236 q 957 493 957 406 q 924 670 957 585 q 833 822 892 756 q 697 926 775 888 q 526 965 618 965 q 351 924 431 965 q 214 817 271 883 q 126 665 157 750 q 94 493 94 581 m 511 -176 l 511 -69 l 539 -69 l 539 -176 l 511 -176 z "},"ọ":{"ha":814,"x_min":64,"x_max":750,"o":"m 407 -14 q 274 16 336 -14 q 165 97 211 46 q 91 215 118 147 q 64 358 64 283 q 91 502 64 435 q 165 621 118 569 q 275 702 213 672 q 407 732 338 732 q 539 702 476 732 q 648 621 601 672 q 722 502 694 569 q 750 358 750 435 q 723 215 750 283 q 649 97 696 147 q 540 16 603 46 q 407 -14 478 -14 m 92 356 q 117 224 92 286 q 184 115 142 161 q 283 41 226 68 q 406 14 340 14 q 527 42 469 14 q 628 117 585 69 q 697 226 672 164 q 722 360 722 289 q 697 492 722 429 q 629 601 672 554 q 528 676 586 649 q 407 704 471 704 q 285 676 343 704 q 185 601 228 649 q 117 490 142 553 q 92 356 92 426 m 386 -176 l 386 -69 l 414 -69 l 414 -176 l 386 -176 z "}}}
